<svg width="1800" height="1060" viewBox="0 0 2534 1039" fill="none" xmlns="http://www.w3.org/2000/svg">
<path d="M1043.48 721.035C1075.45 668.389 1146.91 637.061 1208.92 648.396C1253.07 656.491 1291.66 683.586 1337.38 682.355C1393.01 680.935 1437.35 640.269 1480.15 610.986C1533.83 574.277 1581.87 561.449 1642.63 585.464C1687.68 603.23 1721.15 637.147 1772.33 642.324C1866.46 651.86 1929.91 565.777 1973.14 500.367C2016.67 434.498 2060.66 364.57 2144.28 336.892C2212.81 314.171 2275.11 323.48 2337.07 348.398C2366.87 360.349 2396.6 369.359 2418.73 392.572" stroke="#0D8EFF" stroke-miterlimit="10"/>
<path d="M2421.19 396.055C2398.38 373.062 2368.17 363.709 2337.94 351.713C2315.72 342.858 2293.42 336.05 2270.84 331.854C2229.48 324.132 2187.01 325.588 2142.17 340.499C2128.3 345.186 2115.4 350.946 2103.48 357.683C2042.79 392.142 2006.4 451.21 1969.09 506.763C1924.63 573.047 1858.24 657.788 1763.31 647.292C1712.08 641.719 1678.32 608.155 1633.57 589.829C1593.62 573.642 1559.2 572.964 1524.95 584.232C1507.59 589.941 1490.38 598.794 1472.38 610.11C1429.57 637.153 1385.01 675.07 1329.57 675.925C1315.82 676.125 1302.74 673.947 1289.88 670.617C1259.92 662.755 1231.59 648.601 1200.64 643.672C1138.48 633.592 1067.63 665.576 1035.93 718.46" stroke="#158CF9" stroke-miterlimit="10"/>
<path d="M2423.45 399.423C2399.95 376.649 2369.37 366.964 2338.61 354.912C2316.07 346.024 2293.37 339.077 2270.45 334.944C2228.44 327.253 2185.1 328.722 2139.98 343.905C2125.89 348.668 2112.97 354.526 2100.89 361.543C2039.49 396.823 2003.31 457.004 1965.14 513.172C1919.42 580.427 1850.03 663.622 1754.3 652.165C1703.23 646.217 1669.1 612.9 1624.51 594.195C1585.02 577.756 1550.8 576.022 1516.79 585.949C1499.58 590.892 1482.4 598.969 1464.47 609.318C1421.77 634.129 1376.98 669.297 1321.62 669.671C1307.89 669.775 1294.7 667.586 1281.83 664.255C1251.71 656.668 1223.12 643.267 1192.16 638.923C1129.8 630.29 1059.57 662.835 1028.15 715.956" stroke="#1D8BF2" stroke-miterlimit="10"/>
<path d="M2425.71 402.793C2401.52 380.239 2370.56 370.317 2339.28 358.114C2316.42 349.192 2293.4 342.211 2270.06 338.036C2227.41 330.28 2183.29 331.869 2137.68 347.398C2123.45 352.248 2110.28 358.279 2098.08 365.384C2035.98 401.485 2000 462.877 1960.99 519.468C1913.92 587.683 1841.76 669.161 1745.18 657.031C1694.17 650.697 1659.76 617.637 1615.36 598.457C1576.35 581.671 1542.37 579.178 1508.63 587.668C1491.54 591.94 1474.42 599.144 1456.68 608.536C1413.97 631.104 1369.08 663.434 1313.69 663.318C1299.99 663.23 1286.8 661.04 1273.78 657.89C1243.51 650.482 1214.64 637.932 1183.65 634.269C1121.35 626.912 1051.73 660.114 1020.47 713.463" stroke="#2589EC" stroke-miterlimit="10"/>
<path d="M2427.99 406.071C2403.11 383.736 2371.67 373.471 2340.08 361.233C2316.9 352.278 2293.56 345.264 2269.79 341.045C2226.48 333.321 2181.58 335.03 2135.61 350.724C2121.26 355.661 2107.86 361.768 2095.51 369.057C2032.63 405.874 1996.94 468.487 1957.07 525.694C1908.77 594.785 1833.7 674.726 1736.28 661.826C1685.36 655.01 1650.55 622.294 1606.42 602.744C1567.78 585.6 1534.06 582.253 1500.59 589.304C1483.62 592.904 1466.67 599.246 1448.89 607.659C1406.2 627.887 1361.17 657.571 1305.88 656.878C1292.19 656.694 1278.89 654.493 1265.86 651.438C1235.41 644.306 1206.29 632.509 1175.26 629.528C1112.92 623.437 1043.8 657.287 1012.92 710.884" stroke="#2D88E6" stroke-miterlimit="10"/>
<path d="M2430.36 409.452C2404.79 387.336 2372.98 376.738 2340.84 364.541C2317.34 355.552 2293.57 348.494 2269.49 344.243C2225.54 336.454 2179.76 338.272 2133.41 354.228C2118.83 359.241 2105.39 365.543 2092.79 373.004C2029.21 410.645 1993.73 474.374 1953.02 532.101C1903.35 602.155 1825.49 680.57 1727.16 666.697C1676.28 659.59 1641.19 627.131 1597.24 607.106C1559.07 589.709 1525.63 585.411 1492.32 591.012C1475.39 593.835 1458.58 599.41 1440.88 606.854C1398.29 624.847 1353.03 651.777 1297.84 650.507C1284.16 650.227 1270.86 648.025 1257.8 645.065C1227.21 638.112 1197.93 627.081 1166.67 624.76C1104.16 620.023 1035.74 654.541 1005.03 708.367" stroke="#3586DF" stroke-miterlimit="10"/>
<path d="M2432.62 412.827C2406.36 390.93 2374.16 380.095 2341.51 367.746C2317.69 358.723 2293.6 351.632 2269.09 347.338C2224.49 339.58 2177.95 341.422 2131.11 357.629C2116.41 362.729 2102.74 369.108 2090 376.753C2025.61 415.208 1990.43 480.161 1948.78 538.302C1897.86 609.33 1816.99 686.197 1717.95 671.468C1667.12 663.973 1631.76 631.773 1588 611.271C1550.29 593.622 1517.02 588.361 1484.08 592.532C1467.28 594.683 1450.53 599.384 1432.9 605.86C1390.2 621.595 1344.92 645.791 1289.81 644.04C1276.06 643.556 1262.86 641.364 1249.68 638.489C1218.92 631.812 1189.38 621.535 1158.08 619.896C1095.51 616.523 1027.72 651.605 997.278 705.67" stroke="#3D85D9" stroke-miterlimit="10"/>
<path d="M2434.88 416.201C2407.94 394.524 2375.26 383.346 2342.28 370.962C2318.14 361.904 2293.74 354.78 2268.8 350.443C2223.56 342.621 2176.24 344.582 2129.01 361.147C2114.18 366.335 2100.26 372.886 2087.39 380.62C2022.31 419.898 1987.34 485.969 1944.83 544.727C1892.57 616.623 1808.89 691.96 1708.9 676.45C1658.24 668.579 1622.49 636.722 1578.91 615.743C1541.56 597.832 1508.67 591.629 1475.9 594.349C1459.24 595.731 1442.52 599.654 1424.97 605.16C1382.27 618.647 1336.89 640 1281.85 637.767C1268.12 637.187 1254.81 634.984 1241.61 632.204C1210.7 625.707 1180.88 616.281 1149.55 615.325C1086.93 613.221 1019.65 648.951 989.482 703.255" stroke="#4583D3" stroke-miterlimit="10"/>
<path d="M2437.16 419.485C2409.5 398.123 2376.47 386.515 2342.96 374.076C2318.5 364.984 2293.68 357.816 2268.42 353.446C2222.42 345.645 2174.32 347.726 2126.73 364.457C2111.67 369.721 2097.73 376.371 2084.6 384.375C2018.72 424.371 1984.05 491.667 1940.69 550.947C1887.18 623.818 1800.59 697.616 1699.81 681.141C1649.21 672.883 1613.18 641.284 1569.76 619.925C1532.89 601.665 1500.17 594.594 1467.76 595.883C1451.13 596.582 1434.57 599.641 1417.2 604.186C1374.5 615.328 1328.98 634.028 1274.04 631.217C1260.33 630.541 1247.02 628.337 1233.69 625.642C1202.61 619.42 1172.53 610.751 1141.19 610.382C1078.51 609.644 1011.85 645.937 981.941 700.577" stroke="#4D81CC" stroke-miterlimit="10"/>
<path d="M2439.43 422.862C2411.08 401.719 2377.66 389.874 2343.64 377.282C2318.86 368.156 2293.71 360.955 2268.01 356.638C2221.38 348.772 2172.5 350.973 2124.42 367.955C2109.23 373.307 2095.05 380.131 2081.89 388.233C2015.32 429.055 1980.86 497.47 1936.64 557.368C1881.76 631.204 1792.36 703.473 1690.76 686.129C1640.23 677.484 1603.8 646.228 1560.69 624.306C1524.28 605.793 1491.75 597.662 1459.6 597.604C1443.1 597.534 1426.59 599.814 1409.29 603.388C1366.49 612.269 1320.95 628.229 1266.09 624.937C1252.41 624.068 1238.96 621.949 1225.61 619.349C1194.39 613.307 1164.04 605.49 1132.66 605.804C1069.81 606.423 1003.87 643.387 974.25 698.17" stroke="#5580C6" stroke-miterlimit="10"/>
<path d="M2441.8 426.251C2412.76 405.329 2378.87 393.139 2344.4 380.598C2319.3 371.438 2293.85 364.106 2267.82 359.854C2220.52 352.018 2170.88 354.244 2122.4 371.584C2107.09 377.024 2092.67 383.924 2079.38 392.211C2012 433.848 1977.84 503.491 1932.79 563.816C1876.68 638.532 1784.35 709.356 1681.82 691.133C1631.35 682.1 1594.64 651.102 1551.7 628.798C1515.65 610.022 1483.51 600.947 1451.62 599.446C1435.25 598.702 1418.79 600.106 1401.57 602.709C1358.78 609.242 1313.1 622.546 1258.33 618.675C1244.67 617.71 1231.24 615.494 1217.87 612.989C1186.48 607.224 1155.99 600.077 1124.46 601.161C1061.57 603.051 996.129 640.665 966.786 695.688" stroke="#5D7EC0" stroke-miterlimit="10"/>
<path d="M2444.06 429.633C2414.33 408.93 2380.07 396.406 2345.17 383.819C2319.65 374.615 2293.88 367.249 2267.52 362.964C2219.59 355.063 2169.04 357.495 2120.21 375.002C2104.65 380.614 2090.21 387.613 2076.66 396.074C2008.58 438.539 1974.64 509.303 1928.72 570.248C1871.19 645.729 1775.92 715.109 1672.6 695.919C1622.16 686.594 1585.18 655.854 1542.45 632.976C1506.86 613.946 1474.89 603.905 1443.27 600.96C1426.94 599.435 1410.62 600.07 1393.48 601.701C1350.59 605.874 1304.89 616.435 1250.21 612.081C1236.58 610.923 1223.02 608.792 1209.63 606.382C1178.09 600.797 1147.32 594.504 1115.78 596.176C1052.83 599.434 988.014 637.614 958.927 692.974" stroke="#657DB9" stroke-miterlimit="10"/>
<path d="M2446.34 432.921C2415.92 412.438 2381.26 399.675 2345.85 386.935C2320.01 377.697 2293.92 370.298 2267.14 365.969C2218.55 358.1 2167.24 360.555 2117.93 378.315C2102.24 384.015 2087.57 391.091 2073.88 399.737C2005.12 442.932 1971.37 514.916 1924.5 576.374C1865.8 652.941 1767.6 720.874 1663.47 700.718C1613.2 691.014 1575.83 660.619 1533.27 637.262C1498.15 617.979 1466.46 606.982 1435.01 602.581C1418.82 600.286 1402.45 600.033 1385.47 600.798C1342.49 602.609 1296.75 610.522 1242.17 605.589C1228.55 604.334 1214.99 602.202 1201.47 599.878C1169.77 594.569 1138.74 589.034 1107.17 591.39C1044.15 596.017 979.952 634.859 951.053 690.354" stroke="#6D7BB3" stroke-miterlimit="10"/>
<path d="M2448.6 436.305C2417.49 416.042 2382.36 402.934 2346.52 390.149C2320.36 380.876 2293.95 373.443 2266.74 369.072C2217.51 361.137 2165.43 363.713 2115.71 381.831C2099.9 387.619 2084.98 394.869 2071.17 403.603C2001.6 447.616 1968.16 520.829 1920.44 582.81C1860.48 660.355 1759.37 726.745 1654.42 705.718C1604.22 695.626 1566.44 665.574 1524.18 641.749C1489.42 622.202 1458.01 610.25 1426.92 604.413C1410.86 601.443 1394.55 600.313 1377.75 600.114C1334.68 599.563 1288.9 604.826 1234.4 599.409C1220.69 598.047 1207.25 595.829 1193.59 593.686C1161.73 588.557 1130.43 583.876 1098.83 586.918C1035.67 592.808 972.078 632.312 943.559 688.058" stroke="#757AAD" stroke-miterlimit="10"/>
<path d="M2450.86 439.693C2419.06 419.649 2383.56 406.206 2347.19 393.364C2320.72 383.961 2293.87 376.58 2266.34 372.176C2216.47 364.176 2163.5 366.861 2113.41 385.243C2097.47 391.119 2082.32 398.447 2068.37 407.366C1998.1 452.208 1964.87 526.546 1916.3 589.053C1854.99 667.568 1751.06 732.425 1645.29 710.526C1595.13 700.141 1557.1 670.252 1515.02 645.947C1480.72 626.146 1449.5 613.129 1418.67 605.942C1402.75 602.2 1386.5 600.192 1369.75 599.116C1326.59 596.2 1280.77 598.812 1226.36 592.814C1212.69 591.259 1199.13 589.126 1185.46 586.982C1153.46 582.034 1121.88 578.208 1090.27 581.838C1027.04 589.1 964.081 629.171 935.715 685.245" stroke="#7E78A6" stroke-miterlimit="10"/>
<path d="M2453.24 443.09C2420.73 423.363 2384.74 409.574 2348.05 396.696C2321.26 387.258 2294.09 379.844 2266.14 375.396C2215.61 367.427 2161.86 370.233 2111.31 388.772C2095.14 394.725 2079.95 402.248 2065.74 411.342C1994.67 457.002 1961.77 532.477 1912.35 595.509C1849.8 674.91 1742.93 738.318 1636.36 715.45C1586.26 704.676 1547.94 675.141 1506.04 650.357C1472.1 630.291 1441.27 616.327 1410.71 607.692C1394.8 603.264 1378.71 600.388 1362.04 598.337C1318.8 592.959 1272.93 593.013 1218.52 586.425C1204.86 584.773 1191.29 582.639 1177.61 580.591C1145.43 575.919 1113.72 572.766 1081.95 577.169C1018.67 585.802 956.34 626.44 928.249 682.756" stroke="#8676A0" stroke-miterlimit="10"/>
<path d="M2455.5 446.48C2422.3 426.973 2385.94 412.848 2348.72 399.914C2321.61 390.442 2294.12 382.993 2265.74 378.502C2214.57 370.468 2160.04 373.394 2109.11 392.196C2092.81 398.237 2077.39 405.838 2063.15 415.128C1991.4 461.522 1958.67 538.316 1908.41 601.875C1844.49 682.247 1734.69 744.207 1627.32 720.37C1577.26 709.302 1538.66 680.026 1496.97 654.665C1463.5 634.345 1432.84 619.412 1402.54 609.327C1386.78 604.126 1370.75 600.371 1354.13 597.442C1310.82 589.599 1264.91 586.999 1210.57 579.926C1196.93 578.177 1183.28 575.935 1169.55 574.079C1137.23 569.588 1105.24 567.291 1073.44 572.38C1010.01 582.279 948.277 623.678 920.481 680.14" stroke="#8E7599" stroke-miterlimit="10"/>
<path d="M2457.78 449.775C2423.89 430.488 2387.16 416.027 2349.4 403.037C2321.97 393.529 2294.05 386.037 2265.36 381.513C2213.53 373.509 2158.13 376.449 2106.8 395.612C2090.38 401.741 2074.71 409.516 2060.34 418.895C1987.79 466.109 1955.38 544.042 1904.17 608.116C1839 689.471 1726.26 749.981 1617.98 725.163C1568.09 713.716 1528.99 684.773 1487.59 658.943C1454.47 638.358 1424.11 622.369 1394.06 610.931C1378.45 604.957 1362.35 600.408 1346.01 596.524C1302.73 586.226 1256.66 581.055 1202.4 573.497C1188.8 571.554 1175.12 569.408 1161.27 567.637C1128.78 563.424 1096.53 561.887 1064.72 567.566C1001.23 578.839 940.129 620.806 912.592 677.607" stroke="#967393" stroke-miterlimit="10"/>
<path d="M2460.05 453.166C2425.46 434.099 2388.24 419.388 2350.07 406.255C2322.32 396.713 2294.1 389.09 2265.05 384.726C2212.58 376.657 2156.39 379.814 2104.69 399.144C2088.04 405.35 2072.36 413.225 2057.72 422.875C1984.46 470.921 1952.28 549.982 1900.19 614.679C1833.68 696.911 1718.1 755.981 1609.03 730.191C1559.18 718.451 1519.8 689.767 1478.59 663.456C1445.94 642.616 1415.86 625.668 1386.08 612.779C1370.48 606.117 1354.56 600.602 1338.28 595.838C1294.93 583.072 1248.8 575.339 1194.64 567.199C1181.05 565.159 1167.26 563.002 1153.39 561.327C1120.75 557.294 1088.23 556.614 1056.39 562.981C992.841 575.628 932.371 618.164 905.006 675.198" stroke="#9E728D" stroke-miterlimit="10"/>
<path d="M2462.42 456.572C2427.14 437.725 2389.54 422.678 2350.95 409.498C2322.88 399.922 2294.34 392.265 2264.86 387.857C2211.63 379.808 2154.67 382.989 2102.6 402.585C2085.82 408.879 2069.89 416.928 2055.12 426.667C1981.06 475.536 1949.18 555.834 1896.27 620.964C1828.4 704.17 1709.77 761.778 1600 735.028C1550.21 722.897 1510.44 694.558 1469.53 667.678C1437.35 646.583 1407.46 628.567 1377.93 614.323C1362.48 606.886 1346.61 600.49 1330.39 594.845C1286.96 579.611 1240.77 569.314 1186.71 560.592C1173.04 558.348 1159.34 556.296 1145.36 554.61C1112.56 550.855 1079.77 550.936 1047.91 557.99C984.301 572.013 924.446 615.216 897.357 672.494" stroke="#A67086" stroke-miterlimit="10"/>
<path d="M2464.68 459.941C2428.71 441.317 2390.74 425.935 2351.62 412.7C2323.23 403.09 2294.27 395.389 2264.47 390.949C2210.61 382.836 2152.87 386.137 2100.3 406.081C2083.4 412.463 2067.23 420.589 2052.33 430.513C1977.59 480.112 1945.91 561.628 1892.13 627.374C1823.01 711.556 1701.55 767.716 1590.88 739.986C1541.14 727.563 1501.11 699.389 1460.48 672.139C1428.66 650.78 1399.17 631.816 1369.89 616.217C1354.58 608.006 1338.77 600.73 1322.6 594.205C1279.22 576.416 1232.88 563.544 1178.88 554.434C1165.23 552.093 1151.55 549.944 1137.53 548.451C1104.58 544.877 1071.64 545.73 1039.65 553.461C975.898 568.752 916.661 612.616 889.85 670.131" stroke="#AE6E80" stroke-miterlimit="10"/>
<path d="M2466.96 463.164C2430.31 444.766 2391.85 429.139 2352.31 415.862C2323.6 406.22 2294.32 398.488 2264.11 394.007C2209.6 385.927 2151.11 389.252 2098.17 409.454C2081.02 416.008 2064.84 424.232 2049.69 434.328C1974.26 484.744 1942.8 567.364 1888.18 633.617C1817.82 718.66 1693.34 773.34 1581.99 744.657C1532.32 731.848 1492.01 704.039 1451.58 676.316C1420.23 654.71 1390.92 634.78 1361.91 617.733C1346.73 608.847 1331 600.595 1314.91 593.094C1271.57 572.85 1225.07 557.406 1171.18 547.717C1157.55 545.279 1143.76 543.12 1129.72 541.723C1096.61 538.428 1063.43 540.043 1031.41 548.461C967.527 565.017 908.932 609.437 882.399 667.176" stroke="#B66D7A" stroke-miterlimit="10"/>
<path d="M2469.21 466.482C2431.86 448.408 2393.06 432.353 2353.1 419.034C2324.08 409.362 2294.49 401.598 2263.85 397.075C2208.71 388.933 2149.33 392.464 2096.04 412.828C2078.77 419.468 2062.35 427.767 2047.06 438.046C1970.84 489.268 1939.68 573.099 1884.11 639.848C1812.51 725.849 1685.21 779.068 1572.97 749.413C1523.47 736.324 1482.68 708.763 1442.57 680.482C1411.59 658.617 1382.69 637.646 1353.83 619.237C1338.69 609.569 1323.11 600.544 1307.21 592.078C1263.92 569.283 1217.25 551.364 1163.47 541.095C1149.88 538.464 1136.07 536.402 1121.91 535.091C1088.66 531.979 1055.2 534.452 1023.16 543.556C959.335 561.495 901.258 606.556 875.003 664.52" stroke="#BE6B73" stroke-miterlimit="10"/>
<path d="M2471.47 469.801C2433.43 451.954 2394.27 435.567 2353.78 422.196C2324.45 412.492 2294.44 404.687 2263.49 400.132C2207.7 392.024 2147.56 395.579 2093.8 416.191C2076.41 422.917 2059.75 431.389 2044.44 441.764C1967.53 493.803 1936.59 578.737 1880.18 645.993C1807.32 732.953 1677.08 784.797 1564.08 754.083C1514.65 740.608 1473.58 713.412 1433.66 684.658C1403.06 662.535 1374.56 640.524 1345.96 620.763C1330.97 610.322 1315.45 600.419 1299.6 591.074C1256.35 565.824 1209.53 545.332 1155.86 534.485C1142.29 531.757 1128.39 529.588 1114.21 528.373C1080.8 525.54 1047.1 528.775 1015.05 538.468C950.949 557.855 893.601 603.58 867.623 661.768" stroke="#C66A6D" stroke-miterlimit="10"/>
<path d="M2473.83 473.129C2435.11 455.509 2395.46 438.877 2354.57 425.368C2324.92 415.633 2294.6 407.796 2263.23 403.2C2206.81 395.029 2145.91 398.704 2091.76 419.671C2074.13 426.472 2057.46 435.04 2041.9 445.588C1964.22 498.337 1933.58 584.482 1876.31 652.34C1802.01 740.14 1668.81 790.707 1555.18 758.847C1505.78 745.179 1464.34 718.241 1424.76 688.833C1394.61 666.558 1366.32 643.485 1337.99 622.277C1323.15 611.064 1307.79 600.292 1291.9 590.057C1248.7 562.256 1201.73 539.192 1148.13 527.958C1134.58 525.134 1120.68 522.965 1106.38 521.837C1072.83 519.186 1038.85 523.279 1006.68 533.648C942.654 554.321 885.948 600.601 860.143 659.004" stroke="#CE6867" stroke-miterlimit="10"/>
<path d="M2476.1 476.353C2436.7 458.96 2396.68 441.997 2355.27 428.435C2325.31 418.669 2294.67 410.801 2262.88 406.163C2205.82 398.026 2144.04 401.811 2089.54 422.939C2071.79 429.827 2054.87 438.567 2039.17 449.298C1960.8 502.863 1930.36 590.208 1872.26 658.477C1796.72 747.234 1660.61 796.234 1546.08 763.497C1496.75 749.444 1454.93 722.86 1415.65 692.99C1385.86 670.457 1357.96 646.439 1329.91 623.783C1315.19 611.895 1299.91 600.147 1284.09 589.033C1240.93 558.777 1193.8 533.141 1140.32 521.328C1126.8 518.311 1112.78 516.228 1098.56 515.206C1064.85 512.835 1030.75 517.604 998.422 528.745C934.354 550.79 878.166 597.712 852.744 656.35" stroke="#D66760" stroke-miterlimit="10"/>
<path d="M2478.36 479.67C2409.25 450.076 2339.12 420.184 2262.61 409.326C2186.1 398.467 2101.08 408.79 2036.63 453.121C1957.47 507.492 1927.35 595.952 1868.41 664.727C1791.53 754.336 1652.6 801.875 1537.27 768.272C1451.1 743.077 1386.88 681.421 1322.05 625.307C1257.21 569.193 1182.4 514.448 1090.85 508.583C989.675 502.252 883.278 565.125 845.368 653.595" stroke="#DE655A" stroke-miterlimit="10"/>
<path d="M851.168 653.022C887.396 571.141 982.97 512.48 1077.38 511.252C1083.58 511.181 1089.75 511.304 1095.85 511.812C1183.54 517.883 1255.94 568.57 1319.24 621.599C1321.47 623.394 1323.57 625.275 1325.79 627.07C1390.65 682.025 1455.3 742.072 1540.93 765.745C1655.62 797.228 1792.05 748.34 1869.57 660.436C1879.51 649.128 1888.8 637.265 1897.61 625.156C1941.21 565.257 1974.43 499.211 2040.14 456.17C2072.92 434.741 2110.72 421.78 2150.02 415.559C2187.98 409.599 2227.42 409.982 2264.75 415.271C2340.89 425.9 2411 454.323 2479.56 481.313" stroke="#D56960" stroke-miterlimit="10"/>
<path d="M856.861 652.437C893.726 571.672 988.966 514.826 1082.51 514.298C1088.62 514.216 1094.77 514.435 1100.87 514.944C1187.76 521.332 1259.66 571.396 1322.98 623.361C1325.2 625.156 1327.32 626.942 1329.54 628.738C1394.42 682.629 1459.4 741.057 1544.61 763.121C1658.76 792.494 1792.71 742.159 1870.75 656.045C1880.86 644.948 1890.1 633.37 1899.06 621.567C1943.42 563.296 1977.91 500.108 2043.65 459.219C2076.44 438.866 2114 426.662 2152.98 420.997C2190.65 415.497 2229.73 416.14 2267 421.228C2342.78 431.626 2412.75 458.569 2480.74 483.051" stroke="#CD6E67" stroke-miterlimit="10"/>
<path d="M862.662 651.862C900.164 572.214 995.157 517.29 1087.76 517.356C1093.84 517.371 1099.89 517.58 1105.88 518.078C1191.98 524.879 1263.39 574.223 1326.72 625.123C1328.94 626.92 1331.08 628.609 1333.3 630.406C1398.29 683.244 1463.6 740.052 1548.18 760.484C1661.8 787.747 1793.26 735.963 1871.81 651.641C1881.99 640.743 1891.39 629.471 1900.51 617.975C1945.64 561.237 1981.41 500.909 2047.06 462.162C2079.77 442.875 2117.16 431.537 2155.85 426.333C2193.21 421.39 2232.07 422.108 2269.05 427.07C2344.46 437.238 2414.4 462.807 2481.84 484.585" stroke="#C4726D" stroke-miterlimit="10"/>
<path d="M868.359 651.273C906.499 572.741 1001.16 519.634 1093.02 520.314C1099 520.319 1105.03 520.624 1111.03 521.123C1196.31 528.337 1267.25 576.961 1330.56 626.895C1332.81 628.595 1334.93 630.382 1337.06 632.072C1402.08 683.751 1467.7 739.034 1551.85 757.856C1664.86 782.898 1793.82 729.76 1873.11 647.154C1883.34 636.552 1892.91 625.491 1902.17 614.398C1948.06 559.289 1985.12 501.725 2050.68 465.218C2083.4 447.008 2120.55 436.429 2158.82 431.771C2195.89 427.289 2234.38 428.267 2271.18 433.114C2346.22 443.051 2416.03 467.139 2482.9 486.405" stroke="#BC7773" stroke-miterlimit="10"/>
<path d="M874.165 650.695C912.943 573.28 1007.27 521.99 1098.27 523.372C1104.23 523.474 1110.16 523.769 1116.05 524.257C1200.53 531.885 1270.98 579.789 1334.31 628.658C1336.44 630.349 1338.69 632.05 1340.83 633.741C1405.85 684.356 1471.92 737.931 1555.53 755.226C1668 778.155 1794.37 723.555 1874.28 642.752C1884.58 632.35 1894.31 621.595 1903.72 610.809C1950.37 557.331 1988.71 502.63 2054.2 468.171C2086.83 451.028 2123.84 441.219 2161.8 437.119C2198.57 433.098 2236.83 434.249 2273.44 438.981C2348.12 448.687 2417.9 471.303 2484.2 488.055" stroke="#B37B7A" stroke-miterlimit="10"/>
<path d="M879.981 650.108C919.396 573.811 1013.37 524.436 1103.52 526.423C1109.38 526.514 1115.3 526.906 1121.17 527.491C1204.84 535.534 1274.91 582.728 1338.13 630.618C1340.26 632.31 1342.53 633.915 1344.67 635.607C1409.72 685.06 1476.2 737.12 1559.29 752.792C1671.22 773.605 1795.1 717.551 1875.53 638.541C1885.9 628.339 1895.68 617.881 1905.25 607.402C1952.67 555.458 1992.28 503.622 2057.7 471.31C2090.34 455.245 2126.98 446.282 2164.76 442.654C2201.23 439.095 2239.25 440.419 2275.56 445.121C2349.97 454.607 2419.52 475.73 2485.25 489.869" stroke="#AB7F80" stroke-miterlimit="10"/>
<path d="M885.683 649.52C925.736 574.34 1019.38 526.784 1108.79 529.387C1114.63 529.575 1120.44 529.957 1126.32 530.543C1209.18 538.999 1278.75 585.57 1341.99 632.298C1344.15 633.894 1346.41 635.5 1348.55 637.192C1413.72 685.591 1480.43 736.017 1563.08 750.074C1674.39 768.663 1795.76 711.251 1876.84 633.949C1887.28 623.947 1897.21 613.795 1906.93 603.623C1955.12 553.312 1996.02 504.246 2061.35 474.178C2094 459.193 2130.4 450.99 2167.77 447.813C2203.96 444.716 2241.61 446.3 2277.85 450.8C2351.92 459.958 2421.32 479.694 2486.58 491.326" stroke="#A28486" stroke-miterlimit="10"/>
<path d="M891.497 648.935C932.189 574.873 1025.58 529.245 1114.05 532.444C1119.89 532.632 1125.58 533.1 1131.35 533.676C1213.4 542.547 1282.49 588.398 1345.74 634.06C1347.9 635.656 1350.16 637.263 1352.32 638.859C1417.51 686.096 1484.66 734.908 1566.66 747.425C1677.43 763.895 1796.31 705.026 1877.9 629.519C1888.39 619.814 1898.5 609.873 1908.38 600.008C1957.43 551.34 1999.5 505.132 2064.88 477.128C2097.44 463.212 2133.68 455.877 2170.76 453.163C2206.63 450.624 2244.06 452.285 2280.02 456.66C2353.72 465.586 2423.09 483.847 2487.69 492.852" stroke="#9A888D" stroke-miterlimit="10"/>
<path d="M897.311 648.348C938.659 575.306 1031.7 531.596 1119.32 535.401C1125.04 535.676 1130.75 536.048 1136.5 536.721C1217.75 546.008 1286.35 591.138 1349.59 635.832C1351.77 637.332 1353.93 638.929 1356.21 640.439C1421.41 686.612 1488.99 733.81 1570.47 744.7C1680.7 759.05 1796.98 698.711 1879.2 625.008C1889.76 615.503 1900.02 605.869 1910.04 596.408C1959.87 549.277 2003.22 505.939 2068.5 480.182C2101.07 467.346 2137.07 460.773 2173.84 458.618C2209.41 456.542 2246.48 458.463 2282.26 462.722C2355.59 471.418 2424.81 488.289 2488.95 494.686" stroke="#918C93" stroke-miterlimit="10"/>
<path d="M903.043 647.651C945.012 575.824 1037.72 533.936 1124.6 538.359C1130.32 538.634 1135.91 539.093 1141.54 539.852C1221.99 549.459 1290.1 593.965 1353.34 637.592C1355.52 639.092 1357.7 640.593 1359.88 642.094C1425.11 687.103 1492.98 732.869 1574.04 742.044C1683.6 754.455 1797.42 692.462 1880.26 620.566C1890.99 611.272 1901.2 601.925 1911.48 592.782C1962.08 547.285 2006.62 506.712 2071.92 483.118C2104.41 471.354 2140.14 465.639 2176.61 463.948C2211.89 462.334 2248.72 464.43 2284.31 468.573C2357.28 477.037 2426.48 492.431 2489.95 496.198" stroke="#899199" stroke-miterlimit="10"/>
<path d="M908.869 647.055C951.477 576.346 1043.85 536.282 1129.87 541.41C1135.47 541.772 1141.16 542.241 1146.69 542.99C1226.33 553.013 1293.95 596.799 1357.19 639.456C1359.37 640.957 1361.56 642.362 1363.74 643.863C1428.98 687.806 1497.29 731.956 1577.82 739.5C1686.85 749.691 1798.15 686.332 1881.54 616.136C1892.32 607.139 1902.7 598.002 1913.03 589.157C1964.4 545.296 2010.21 507.597 2075.44 486.157C2107.94 475.475 2143.43 470.524 2179.59 469.392C2214.58 468.242 2251.15 470.608 2286.45 474.625C2359.04 482.859 2428.11 496.764 2491.11 498.015" stroke="#8095A0" stroke-miterlimit="10"/>
<path d="M914.698 646.476C957.945 576.89 1049.96 538.751 1135.13 544.487C1140.74 544.849 1146.3 545.405 1151.83 546.154C1230.66 556.593 1297.78 599.752 1361.04 641.241C1363.24 642.646 1365.42 644.148 1367.61 645.553C1432.96 688.436 1501.59 730.955 1581.49 736.857C1689.97 744.921 1798.67 680.091 1882.68 611.709C1893.53 602.912 1904.07 594.084 1914.55 585.547C1966.7 543.229 2013.79 508.411 2078.94 489.128C2111.46 479.53 2146.68 475.438 2182.55 474.771C2217.33 474.192 2253.47 476.614 2288.69 480.526C2360.91 488.527 2429.95 500.952 2492.27 499.567" stroke="#789AA6" stroke-miterlimit="10"/>
<path d="M920.423 645.92C964.31 577.469 1056.09 541.175 1140.41 547.519C1145.89 547.968 1151.46 548.524 1156.88 549.263C1234.89 560.116 1301.62 602.553 1364.77 642.953C1366.97 644.359 1369.17 645.764 1371.37 647.169C1436.73 688.877 1505.68 729.757 1585.12 734.132C1692.95 740.057 1799.14 673.776 1883.77 607.219C1894.69 598.625 1905.39 590.107 1916.03 581.88C1968.93 541.21 2017.32 509.181 2082.38 492.156C2114.8 483.634 2149.88 480.318 2185.32 480.201C2219.8 480.086 2255.68 482.779 2290.61 486.563C2362.46 494.33 2431.35 505.262 2493.19 501.357" stroke="#6F9EAC" stroke-miterlimit="10"/>
<path d="M926.266 645.372C970.792 578.058 1062.24 543.601 1145.68 550.649C1151.16 551.098 1156.6 551.74 1162.03 552.48C1239.22 563.747 1305.45 605.451 1368.59 644.869C1370.78 646.274 1373 647.583 1375.2 648.989C1440.56 689.617 1509.93 728.867 1588.83 731.607C1696.11 735.401 1799.81 667.573 1885.04 602.94C1896.03 594.549 1906.78 586.331 1917.66 578.522C1971.33 539.501 2021.01 510.263 2086.09 495.412C2118.52 487.976 2153.34 485.522 2188.5 485.772C2222.68 486.122 2258.22 488.978 2292.95 492.645C2364.42 500.178 2433.29 509.626 2494.55 503.092" stroke="#66A2B3" stroke-miterlimit="10"/>
<path d="M932.108 644.822C977.275 578.646 1068.36 546.123 1150.96 553.682C1156.32 554.217 1161.77 554.86 1167.07 555.686C1243.44 567.368 1309.18 608.338 1372.31 646.676C1374.53 647.984 1376.74 649.293 1378.84 650.689C1444.22 690.141 1513.99 727.857 1592.35 728.96C1699.09 730.527 1800.16 661.334 1886.02 598.432C1897.07 590.341 1907.99 582.336 1918.92 574.828C1973.37 537.359 2024.32 511.108 2089.31 498.421C2121.76 492.072 2156.22 490.373 2191.17 491.195C2225.06 492.009 2260.34 495.04 2294.89 498.589C2365.98 505.888 2434.69 513.937 2495.38 504.774" stroke="#5EA7B9" stroke-miterlimit="10"/>
<path d="M937.848 644.259C983.655 579.221 1074.4 548.535 1156.24 556.81C1161.59 557.345 1166.92 558.074 1172.22 558.901C1247.77 570.997 1313.02 611.235 1376.13 648.589C1378.34 649.898 1380.45 651.197 1382.69 652.409C1448.17 690.791 1518.18 726.758 1596.08 726.333C1702.16 725.756 1800.72 655.111 1887.21 594.038C1898.32 586.15 1909.4 578.456 1920.49 571.258C1975.69 535.439 2027.94 511.983 2092.86 501.46C2125.21 496.188 2159.53 495.265 2194.06 496.638C2227.63 498.014 2262.67 501.218 2296.92 504.64C2367.64 511.705 2436.2 518.258 2496.41 506.572" stroke="#55ABC0" stroke-miterlimit="10"/>
<path d="M943.696 643.708C990.248 579.82 1080.65 550.973 1161.53 559.845C1166.76 560.467 1172.09 561.196 1177.29 562.013C1252.02 574.524 1316.76 614.026 1379.87 650.299C1382.11 651.512 1384.22 652.811 1386.45 654.023C1451.95 691.227 1522.36 725.658 1599.61 723.586C1705.15 720.779 1801.19 648.779 1888.19 589.526C1899.37 581.841 1910.61 574.458 1921.85 567.57C1977.84 533.306 2031.37 512.742 2096.18 504.482C2128.55 500.298 2162.6 500.238 2196.83 502.076C2230.1 503.917 2264.8 507.285 2298.86 510.589C2369.3 517.43 2437.73 522.486 2497.25 508.159" stroke="#4DB0C6" stroke-miterlimit="10"/>
<path d="M949.551 643.152C996.744 580.403 1086.79 553.493 1166.81 562.973C1172.04 563.595 1177.26 564.314 1182.44 565.228C1256.46 578.164 1320.59 617.019 1383.71 652.114C1385.95 653.326 1388.08 654.528 1390.31 655.741C1455.81 691.864 1526.64 724.663 1603.35 720.952C1708.33 716.012 1801.75 642.548 1889.38 585.126C1900.72 577.751 1911.91 570.561 1923.42 563.995C1980.17 531.383 2034.98 513.711 2099.73 507.52C2132 504.414 2165.91 505.132 2199.83 507.532C2232.8 509.838 2267.23 513.477 2301.11 516.664C2371.19 523.173 2439.45 526.829 2498.49 509.977" stroke="#44B4CC" stroke-miterlimit="10"/>
<path d="M955.309 642.579C1003.14 580.97 1092.85 555.9 1172.1 566.097C1177.33 566.719 1182.43 567.525 1187.59 568.536C1260.81 581.79 1324.42 620.007 1387.52 654.116C1389.76 655.329 1391.9 656.434 1394.14 657.647C1459.65 692.59 1530.8 723.744 1607.05 718.503C1711.39 711.32 1802.28 636.502 1890.54 580.814C1901.95 573.643 1913.3 566.764 1924.85 560.595C1982.36 529.636 2038.46 514.763 2103.13 510.739C2135.42 508.722 2168.96 510.293 2202.58 513.158C2235.25 515.929 2269.33 519.731 2303.02 522.801C2372.72 529.076 2440.95 531.244 2499.31 511.748" stroke="#3CB8D3" stroke-miterlimit="10"/>
<path d="M961.168 642.019C1009.64 581.55 1098.99 558.418 1177.4 569.126C1182.51 569.835 1187.61 570.642 1192.67 571.642C1265.06 585.311 1328.18 622.794 1391.28 655.821C1393.43 656.926 1395.66 658.139 1397.81 659.245C1463.32 693.107 1534.92 722.432 1610.57 715.843C1714.4 706.33 1802.74 630.251 1891.52 576.385C1903 569.417 1914.51 562.849 1926.2 556.992C1984.5 527.589 2041.88 515.611 2106.56 513.863C2138.86 512.935 2172.15 515.273 2205.45 518.701C2237.82 521.937 2271.65 526.011 2305.14 528.964C2374.47 535.003 2442.55 535.673 2500.43 513.65" stroke="#33BDD9" stroke-miterlimit="10"/>
<path d="M966.93 641.448C1016.05 582.122 1105.05 560.832 1182.59 572.246C1187.7 572.955 1192.67 573.848 1197.73 574.849C1269.31 588.933 1332.03 625.689 1395.02 657.621C1397.17 658.727 1399.42 659.843 1401.57 660.949C1467.18 693.737 1538.99 721.406 1614.1 713.177C1717.26 701.517 1803.08 623.987 1892.49 571.955C1904.02 565.289 1915.7 558.934 1927.55 553.389C1986.61 525.641 2045.28 516.56 2109.89 516.884C2142.1 517.035 2175.23 520.248 2208.25 524.044C2240.3 527.843 2273.9 531.994 2307.1 534.818C2376.05 540.623 2444.07 539.901 2501.29 515.136" stroke="#2BC1DF" stroke-miterlimit="10"/>
<path d="M972.805 640.88C1022.56 582.696 1111.32 563.357 1187.99 575.38C1192.98 576.176 1197.96 577.069 1202.91 578.06C1273.66 592.559 1335.89 628.579 1398.85 659.524C1401 660.63 1403.27 661.649 1405.42 662.755C1471.05 694.362 1543.26 720.491 1617.82 710.622C1720.43 696.826 1803.74 617.843 1893.68 567.538C1905.28 561.075 1917.01 555.021 1929.12 549.798C1988.94 523.705 2048.91 517.426 2113.43 520.016C2145.62 521.355 2178.52 525.238 2211.12 529.587C2242.88 533.851 2276.11 538.263 2309.14 540.872C2377.71 546.442 2445.59 544.221 2502.31 516.927" stroke="#22C5E6" stroke-miterlimit="10"/>
<path d="M978.692 640.222C1029.09 583.182 1117.5 565.686 1193.32 578.318C1198.31 579.114 1203.16 580.095 1208.12 581.085C1278.05 595.999 1339.78 631.282 1402.74 661.143C1404.9 662.152 1407.07 663.161 1409.33 664.277C1474.94 694.8 1547.49 719.185 1621.59 707.783C1723.55 691.741 1804.33 611.401 1894.89 562.932C1906.56 556.673 1918.43 551.028 1930.62 546.009C1991.32 521.485 2052.46 518.095 2116.9 522.855C2149.11 525.285 2181.64 530.023 2214.05 534.847C2245.5 539.578 2278.49 544.163 2311.31 546.753C2379.5 552.087 2447.34 548.376 2503.38 518.435" stroke="#1ACAEC" stroke-miterlimit="10"/>
<path d="M984.47 639.636C1035.51 583.739 1123.58 568.088 1198.53 581.426C1203.39 582.309 1208.24 583.289 1213.18 584.377C1282.29 599.707 1343.5 634.35 1406.46 663.126C1408.62 664.135 1410.79 665.144 1413.08 666.067C1478.72 695.408 1551.67 718.252 1625.22 705.209C1726.62 687.028 1804.78 605.224 1896.07 558.601C1907.81 552.546 1919.83 547.213 1932.16 542.602C1993.62 519.735 2056.05 519.244 2120.41 526.177C2152.53 529.686 2184.91 535.203 2217 540.591C2248.16 545.787 2280.79 550.537 2313.43 553.008C2381.23 558.107 2448.93 552.896 2504.48 520.424" stroke="#11CEF2" stroke-miterlimit="10"/>
<path d="M990.353 639.066C1042.03 584.313 1129.75 570.604 1203.96 584.465C1208.82 585.349 1213.66 586.426 1218.38 587.494C1286.67 603.238 1347.39 637.143 1410.44 664.844C1412.62 665.756 1414.79 666.765 1416.98 667.677C1482.71 695.943 1555.97 717.138 1628.88 702.443C1729.72 682.123 1805.36 598.866 1897.17 554.071C1908.96 548.316 1921.16 543.198 1933.64 538.9C1995.87 517.69 2059.59 520.003 2123.87 529.107C2156 533.708 2188.12 540.09 2219.8 545.934C2250.65 551.693 2283.04 556.617 2315.48 558.971C2382.91 563.834 2450.57 557.132 2505.43 522.012" stroke="#09D3F9" stroke-miterlimit="10"/>
<path d="M996.244 638.49C1048.57 584.883 1136.05 573.03 1209.27 587.587C1282.5 602.145 1346.88 638.205 1414.2 666.633C1481.6 695.169 1557.71 716.652 1632.52 699.768C1745.65 674.434 1824.21 569.861 1935.1 535.289C2029.5 505.901 2128.48 532.247 2222.7 551.381C2316.92 570.515 2426.01 579.448 2506.48 523.704" stroke="#00D7FF" stroke-miterlimit="10"/>
<path d="M198.625 570.537C242.188 525.107 319.512 509.569 377.673 534.455C419.069 552.197 450.612 587.647 495.716 596.444C550.586 607.227 603.495 576.443 652.251 556.658C713.395 531.863 763.471 529.618 817.455 566.859C857.499 594.433 882.428 635.554 931.403 651.932C1021.47 682.068 1103.65 610.235 1161.22 554.561C1219.19 498.496 1278.56 438.487 1366.95 429.251C1439.41 421.644 1498.32 444.575 1553.28 482.98C1579.72 501.418 1606.77 516.911 1623.07 544.883" stroke="#0D8EFF" stroke-miterlimit="10"/>
<path d="M1624.68 548.814C1607.65 520.904 1580.22 504.964 1553.37 486.385C1533.64 472.691 1513.37 461.021 1492.2 451.889C1453.45 435.128 1411.47 427.267 1364.06 432.293C1349.38 433.923 1335.39 436.833 1322.14 440.933C1254.64 461.957 1205.25 512.829 1155.77 559.998C1096.79 616.289 1012.03 686.163 921.409 654.894C872.482 638.111 847.186 597.27 807.573 569.201C772.168 544.314 738.587 536.094 702.388 539.81C684.049 541.694 665.12 546.74 644.843 554.067C596.603 571.627 544.111 599.634 489.568 588.332C476.043 585.517 463.724 580.479 451.888 574.341C424.346 559.94 399.862 539.628 370.671 527.933C312.07 504.261 235.185 520.594 191.831 566.334" stroke="#158CF9" stroke-miterlimit="10"/>
<path d="M1626.11 552.589C1608.37 524.742 1580.64 508.387 1553.29 489.634C1533.26 475.835 1512.62 463.935 1491.11 454.792C1451.71 437.918 1408.88 429.88 1361.13 435.121C1346.21 436.777 1332.18 439.782 1318.71 444.126C1250.33 465.825 1200.88 517.867 1150.42 565.473C1089.98 622.473 1002.63 690.169 911.448 657.765C862.771 640.643 837.047 599.957 797.685 571.542C762.791 546.503 729.646 537.273 694.003 539.711C675.982 540.863 657.27 545.147 637.292 551.53C589.668 566.894 537.593 592.121 483.239 580.359C469.75 577.451 457.329 572.378 445.49 566.238C417.72 552.073 392.808 532.452 363.468 521.336C304.349 499.063 227.944 516.099 184.799 562.148" stroke="#1D8BF2" stroke-miterlimit="10"/>
<path d="M1627.55 556.37C1609.08 528.585 1581.03 511.907 1553.21 492.888C1532.87 478.984 1511.93 466.979 1490.01 457.7C1450.01 440.62 1406.39 432.532 1358.07 438.012C1343 439.729 1328.69 442.853 1315.07 447.259C1245.81 469.632 1196.28 522.937 1144.9 570.797C1082.9 628.474 993.244 693.872 901.384 660.608C852.856 643.113 826.804 602.617 787.734 573.765C753.393 548.481 720.662 538.548 685.615 539.613C667.872 540.126 649.419 543.554 629.84 549.025C582.733 562.159 531.216 584.545 476.95 572.288C463.539 569.196 451.115 564.121 439.093 558.129C411.136 544.108 385.754 525.27 356.225 514.825C296.868 493.836 220.903 511.668 177.869 557.994" stroke="#2589EC" stroke-miterlimit="10"/>
<path d="M1629.02 560.066C1609.82 532.344 1581.39 515.218 1553.26 496.091C1532.62 482.081 1511.37 469.971 1489.05 460.556C1448.4 443.361 1403.99 435.223 1355.28 440.793C1340.06 442.57 1325.51 445.722 1311.71 450.281C1241.52 473.205 1191.98 527.809 1139.61 576.106C1076.21 634.402 984.053 697.652 891.553 663.435C843.216 645.475 816.696 605.226 777.978 576.061C744.089 550.498 711.813 539.77 677.364 539.462C659.898 539.334 641.804 541.94 622.424 546.431C575.874 557.241 524.835 576.965 470.799 564.155C457.425 560.971 444.897 555.86 432.832 549.958C404.648 536.173 378.838 518.027 349.12 508.254C289.424 488.516 213.8 507.113 171.077 553.781" stroke="#2D88E6" stroke-miterlimit="10"/>
<path d="M1630.56 563.883C1610.64 536.223 1581.92 518.681 1553.24 499.471C1532.29 485.355 1510.64 473.108 1488.02 463.589C1446.75 446.189 1401.45 437.967 1352.31 443.718C1336.86 445.523 1322.22 448.861 1308.13 453.54C1237.06 477.141 1187.48 532.92 1134.15 581.565C1069.19 640.541 974.642 701.674 881.484 666.287C833.256 648.045 806.409 607.984 767.983 578.38C734.607 552.664 702.826 541.047 668.873 539.331C651.627 538.436 633.851 540.311 614.769 543.855C568.837 552.462 518.215 569.398 464.409 556.033C451.072 552.757 438.541 547.644 426.433 541.831C398.061 528.192 371.923 510.771 341.815 501.604C281.641 483.178 206.559 502.605 163.946 549.552" stroke="#3586DF" stroke-miterlimit="10"/>
<path d="M1631.99 567.676C1611.34 540.078 1582.3 522.212 1553.16 502.735C1531.91 488.513 1509.95 476.161 1486.92 466.505C1445 448.99 1398.95 440.626 1349.28 446.526C1333.68 448.391 1318.8 451.757 1304.53 456.591C1232.48 480.837 1182.9 537.918 1128.56 586.786C1062.14 646.477 965.004 705.425 871.347 669.024C823.269 650.407 796.094 610.536 757.959 580.492C725.096 554.621 693.711 542.081 660.455 539.023C643.487 537.486 625.971 538.502 607.188 541.098C561.673 547.435 511.669 561.646 458.052 547.818C444.693 544.324 432.259 539.242 420.008 533.485C391.408 520.082 364.841 503.356 334.544 494.862C273.992 477.781 199.391 497.916 156.989 545.175" stroke="#3D85D9" stroke-miterlimit="10"/>
<path d="M1633.43 571.468C1612.05 543.933 1582.62 525.617 1553.17 506.032C1531.62 491.704 1509.35 479.247 1485.92 469.454C1443.39 451.733 1396.55 443.318 1346.41 449.493C1330.66 451.419 1315.5 454.905 1301.09 459.801C1228.16 484.724 1178.53 542.983 1123.2 592.292C1055.26 652.571 955.727 709.398 861.332 672.008C813.504 653.05 785.861 613.427 748.02 582.943C715.569 556.884 684.781 543.488 652.023 539.018C635.374 536.746 618.076 536.996 599.593 538.642C554.596 542.739 505.152 554.096 451.724 539.805C438.402 536.218 425.866 531.101 413.571 525.434C384.785 512.176 357.748 496.236 327.263 488.416C266.372 472.591 192.114 493.492 149.924 541.063" stroke="#4583D3" stroke-miterlimit="10"/>
<path d="M1634.89 575.181C1612.75 547.8 1583.08 528.975 1553.12 509.215C1531.26 494.781 1508.59 482.185 1484.85 472.289C1441.58 454.42 1393.95 445.955 1343.41 452.22C1327.42 454.173 1312.21 457.754 1297.48 462.863C1223.61 488.341 1173.99 547.904 1117.71 597.562C1048.31 658.558 946.282 713.23 851.328 674.698C803.651 655.365 775.68 615.931 738.091 585.099C706.195 558.793 675.762 544.564 643.702 538.748C627.232 535.799 610.293 535.223 592.209 535.951C547.771 537.713 498.805 546.398 445.608 531.551C432.323 527.871 419.784 522.753 407.347 517.141C378.332 504.121 350.867 488.876 320.233 481.638C258.965 467.162 185.189 488.773 143.17 536.748" stroke="#4D81CC" stroke-miterlimit="10"/>
<path d="M1636.33 578.979C1613.46 551.661 1583.46 532.51 1553.04 512.483C1530.87 497.943 1507.9 485.242 1483.72 475.301C1439.83 457.225 1391.41 448.709 1340.34 455.124C1324.21 457.138 1308.71 460.839 1293.94 466.044C1219.19 492.202 1169.52 552.946 1112.24 603.046C1041.29 664.726 936.863 717.273 841.31 677.691C793.784 657.983 765.345 618.797 728.19 587.465C696.807 561.004 666.812 545.757 635.309 538.652C619.158 534.966 602.439 533.622 584.655 533.399C540.634 532.882 492.288 538.833 439.281 523.521C426.074 519.656 413.392 514.594 400.912 509.073C371.71 496.198 343.776 481.741 312.953 475.179C251.206 462.02 177.975 484.465 136.208 532.66" stroke="#5580C6" stroke-miterlimit="10"/>
<path d="M1637.87 582.818C1614.27 555.562 1583.88 535.961 1553.02 515.884C1530.54 501.236 1507.31 488.338 1482.78 478.385C1438.24 460.195 1389.07 451.536 1337.52 458.226C1321.25 460.301 1305.51 464.031 1290.55 469.391C1214.83 496.197 1165.16 558.249 1106.97 608.608C1034.61 670.914 927.641 721.394 831.39 680.727C784.015 660.643 755.248 621.647 718.345 589.965C687.377 563.315 657.978 547.207 627.075 538.72C611.202 534.389 594.743 532.183 577.258 531.007C533.797 528.151 485.93 531.423 433.153 515.554C419.984 511.595 407.339 506.44 394.816 501.008C365.387 488.371 337.164 474.552 306.011 468.724C243.928 456.826 171.039 480.04 129.484 528.549" stroke="#5D7EC0" stroke-miterlimit="10"/>
<path d="M1639.3 586.629C1614.98 559.436 1584.3 539.416 1553.02 519.196C1530.15 504.409 1506.6 491.405 1481.77 481.348C1436.62 462.951 1386.52 454.301 1334.58 461.082C1318.03 463.277 1302.25 467.102 1287 472.583C1210.4 500.073 1160.68 563.31 1101.5 614.113C1027.55 676.889 918.047 725.301 821.237 683.488C773.973 663.12 744.878 624.313 708.309 592.096C677.854 565.29 648.853 548.254 618.548 538.382C602.895 533.28 586.754 530.337 569.569 528.207C526.567 522.976 479.32 523.508 426.734 507.172C413.642 503.028 400.854 497.929 388.288 492.587C358.672 480.095 329.979 467.067 298.678 461.824C236.216 451.278 163.812 475.204 122.429 524.12" stroke="#657DB9" stroke-miterlimit="10"/>
<path d="M1640.76 590.353C1615.71 563.223 1584.71 542.876 1552.97 522.388C1529.79 507.494 1505.94 494.384 1480.7 484.19C1434.9 465.677 1384.05 456.885 1331.58 463.817C1314.88 466.073 1298.85 469.927 1283.43 475.563C1205.99 503.644 1156.17 568.159 1095.94 619.281C1020.6 682.903 908.551 729.245 811.183 686.286C764.17 665.574 734.606 627.016 698.331 594.355C668.391 567.393 639.887 549.461 610.081 538.17C594.747 532.329 578.767 528.489 561.942 525.53C519.399 517.92 472.731 515.8 420.376 498.907C407.322 494.668 394.532 489.568 381.822 484.282C351.978 472.029 322.856 459.699 291.366 455.133C228.527 445.943 156.568 470.673 115.338 519.778" stroke="#6D7BB3" stroke-miterlimit="10"/>
<path d="M1642.19 594.168C1616.42 567.102 1585.03 546.302 1552.88 525.672C1529.39 510.671 1505.24 497.456 1479.59 487.125C1433.19 468.405 1381.54 459.562 1328.6 466.77C1311.76 469.087 1295.45 473.062 1279.88 478.761C1201.46 507.492 1151.65 573.319 1090.47 624.793C1013.67 689.136 899.123 733.311 801.157 689.297C754.296 668.208 724.264 629.9 688.383 596.83C658.858 569.678 630.852 550.849 601.745 538.204C586.691 531.715 570.971 527.011 554.546 523.13C512.463 513.138 466.375 508.364 414.212 491.004C401.096 486.639 388.443 481.477 375.55 476.341C345.519 464.233 315.928 452.695 284.25 448.807C220.974 440.848 149.46 466.384 108.543 515.835" stroke="#757AAD" stroke-miterlimit="10"/>
<path d="M1643.62 597.994C1617.12 570.99 1585.44 549.771 1552.79 528.964C1529.03 513.764 1504.43 500.501 1478.48 490.066C1431.46 471.138 1378.92 462.211 1325.55 469.604C1308.57 471.983 1292.01 475.987 1276.26 481.841C1196.96 511.258 1147.11 578.276 1084.96 630.104C1006.6 695.139 889.659 737.182 791.095 692.111C744.345 670.736 714.024 632.525 678.437 599.01C649.427 571.701 621.859 551.848 593.311 537.906C578.577 530.675 563.116 525.106 546.951 520.36C505.327 507.984 459.82 500.553 407.887 482.632C394.849 478.08 382.054 472.975 369.158 467.837C338.94 455.876 308.879 445.13 277.052 441.829C213.399 435.228 142.371 461.478 101.526 511.305" stroke="#7E78A6" stroke-miterlimit="10"/>
<path d="M1645.16 601.853C1617.88 575.004 1585.82 553.331 1552.86 532.414C1528.8 517.107 1503.9 503.738 1477.54 493.165C1429.87 474.122 1376.54 465.145 1322.68 472.597C1305.44 475.004 1288.81 479.196 1272.77 485.173C1192.49 515.243 1142.69 583.484 1079.59 635.668C999.812 701.335 880.326 741.302 781.203 695.08C734.605 673.327 703.915 635.399 668.622 601.438C640.028 573.938 613.058 553.219 585.11 537.886C570.555 529.973 555.455 523.571 539.59 517.866C498.466 503.011 453.499 493.011 401.698 474.496C388.698 469.851 375.899 464.744 362.96 459.696C332.515 447.974 302.166 437.869 270.01 435.308C205.979 430.066 135.437 457.031 94.806 507.175" stroke="#8676A0" stroke-miterlimit="10"/>
<path d="M1646.58 605.684C1618.58 578.899 1586.24 556.804 1552.76 535.711C1528.4 520.296 1503.19 506.821 1476.43 496.11C1428.15 476.859 1374.02 467.832 1319.73 475.468C1302.35 477.937 1285.47 482.158 1269.35 488.325C1188.24 518.99 1138.3 588.609 1074.25 641.148C992.911 707.508 870.882 745.397 771.201 698.024C724.715 675.984 693.697 638.246 658.739 603.747C630.66 576.089 604.088 554.436 576.74 537.71C562.505 529.055 547.665 521.785 532.06 515.213C491.437 497.876 447.05 485.213 395.441 466.229C382.478 461.489 369.617 456.254 356.595 451.389C325.963 439.813 295.144 430.503 262.799 428.622C198.331 424.616 128.196 452.482 87.8184 502.85" stroke="#8E7599" stroke-miterlimit="10"/>
<path d="M1648.05 609.426C1619.32 582.704 1586.69 560.188 1552.71 538.918C1528.04 523.396 1502.42 509.781 1475.35 498.966C1426.42 479.599 1371.44 470.395 1316.68 478.31C1299.16 480.84 1282 485.183 1265.73 491.413C1183.64 522.734 1133.75 593.58 1068.65 646.441C985.849 713.528 861.277 749.337 760.937 700.777C714.704 678.391 683.117 640.87 648.554 605.958C620.891 578.109 594.858 555.462 568.07 537.434C554.155 528.035 539.434 519.955 524.331 512.49C484.308 492.701 440.361 477.43 388.944 457.976C376.06 453.05 363.156 447.905 349.991 443.097C319.131 431.76 287.883 423.153 255.39 421.861C190.545 419.218 120.897 447.801 80.6936 498.578" stroke="#967393" stroke-miterlimit="10"/>
<path d="M1649.48 613.26C1620.02 586.602 1586.96 563.723 1552.62 542.217C1527.64 526.587 1501.76 512.774 1474.3 502.039C1424.76 482.464 1368.95 473.303 1313.8 481.31C1296.03 483.869 1278.83 488.308 1262.24 494.754C1179.27 526.763 1129.33 598.805 1063.23 652.115C978.912 719.804 851.897 753.564 751 703.85C704.878 681.176 672.963 643.846 638.695 608.487C611.548 580.48 586.014 556.93 559.826 537.506C546.091 527.422 531.771 518.414 516.928 510.079C477.406 487.802 434 469.953 382.815 449.936C369.969 444.916 356.963 439.735 343.754 435.018C312.708 423.828 280.99 416.018 248.309 415.408C183.087 414.13 113.927 443.429 73.8376 494.491" stroke="#9E728D" stroke-miterlimit="10"/>
<path d="M1651.01 617.141C1620.82 590.546 1587.48 567.245 1552.72 545.594C1527.44 529.856 1501.25 515.937 1473.39 505.063C1423.1 485.339 1366.53 476.034 1310.95 484.228C1293.04 486.849 1275.55 491.41 1258.82 497.92C1174.86 530.587 1124.93 603.954 1057.92 657.53C972.047 725.917 842.387 757.56 741.031 706.723C695.062 683.668 662.677 646.588 628.844 610.721C602.214 582.555 577.119 557.974 551.491 537.245C538.077 526.415 524.017 516.536 509.434 507.331C470.413 482.563 427.547 462.132 376.595 441.552C363.727 436.31 350.778 431.254 337.467 426.501C306.193 415.551 274.046 408.445 241.176 408.519C175.577 408.607 106.865 438.718 66.9894 490.098" stroke="#A67086" stroke-miterlimit="10"/>
<path d="M1652.45 620.92C1621.54 594.393 1587.91 570.673 1552.65 548.849C1527.06 533.006 1500.47 518.949 1472.3 507.972C1421.4 488.042 1364.05 478.688 1307.9 487.124C1289.85 489.805 1272.11 494.395 1255.2 501.06C1170.41 534.317 1120.4 608.958 1052.39 662.971C965.061 732.072 832.965 761.653 730.957 709.634C685.104 686.295 652.434 649.321 618.958 613.138C592.746 584.785 568.252 559.337 543.187 537.304C530.094 525.73 516.296 514.982 501.974 504.907C463.598 477.59 421.175 454.546 370.378 433.59C357.549 428.254 344.639 423.104 331.245 418.535C299.787 407.734 267.313 401.367 234.157 402.091C168.126 403.419 99.8656 434.334 60.2065 486.021" stroke="#AE6E80" stroke-miterlimit="10"/>
<path d="M1653.97 624.484C1622.33 598.035 1588.28 573.962 1552.62 552.004C1526.73 536.061 1499.84 521.903 1471.27 510.792C1419.73 490.754 1361.64 481.258 1305.06 489.872C1286.73 492.672 1268.95 497.355 1251.75 504.138C1166.11 538.062 1116.04 613.857 1047.1 668.193C958.358 737.888 823.638 765.323 721.192 712.202C675.5 688.493 642.467 651.821 609.294 615.209C583.604 586.711 559.513 560.336 535.054 536.915C522.243 524.692 508.749 512.984 494.731 501.95C456.963 472.184 414.989 446.532 364.434 425.02C351.645 419.592 338.635 414.408 325.201 409.931C293.521 399.375 260.623 393.715 227.284 395.12C160.828 397.685 93.0673 429.298 53.628 481.271" stroke="#B66D7A" stroke-miterlimit="10"/>
<path d="M1655.44 628.14C1623.04 601.86 1588.75 577.283 1552.69 555.191C1526.5 539.148 1499.31 524.89 1470.34 513.646C1418.2 493.407 1359.18 483.922 1302.22 492.621C1283.75 495.48 1265.73 500.188 1248.35 507.123C1161.74 541.681 1111.69 618.754 1041.7 673.379C951.517 743.759 814.374 769.114 711.288 714.826C665.818 690.872 632.263 654.344 599.532 617.243C574.264 588.567 550.819 561.241 526.824 536.489C514.237 523.493 501.066 511.044 487.452 499.084C450.333 466.777 408.767 438.609 358.454 416.541C345.746 410.928 332.695 405.837 319.12 401.42C287.259 391.015 253.898 386.155 220.376 388.241C153.655 392.203 86.2536 424.572 47.0342 476.831" stroke="#BE6B73" stroke-miterlimit="10"/>
<path d="M1656.92 631.797C1623.8 605.594 1589.23 580.605 1552.66 558.346C1526.17 542.202 1498.58 527.81 1469.31 516.466C1416.52 496.119 1356.76 486.493 1299.28 495.336C1280.67 498.255 1262.37 503.081 1244.95 510.109C1157.47 545.333 1107.38 623.56 1036.45 678.507C944.816 749.572 805.109 772.908 701.525 717.392C656.216 693.067 622.298 656.843 589.87 619.312C565.024 590.458 542.223 562.18 518.794 536.132C506.529 522.394 493.622 509.078 480.271 496.251C443.761 461.496 402.644 430.72 352.573 408.096C339.905 402.39 326.794 397.173 313.179 392.848C281.096 382.688 247.311 378.535 213.648 381.211C146.32 386.562 79.4782 419.754 40.4787 472.299" stroke="#C66A6D" stroke-miterlimit="10"/>
<path d="M1658.5 635.484C1624.65 609.358 1589.66 584.017 1552.73 561.532C1525.95 545.288 1498.05 530.795 1468.38 519.318C1414.99 498.77 1354.45 489.095 1296.5 498.209C1277.65 501.153 1259.31 506.072 1241.61 513.218C1153.21 548.983 1103.14 628.488 1031.22 683.85C937.977 755.441 795.666 776.848 691.724 720.047C646.495 695.537 612.156 659.49 580.211 621.377C555.846 592.471 533.49 563.175 510.667 535.737C498.725 521.259 486.181 507.11 472.993 493.383C437.132 456.086 396.464 422.702 346.555 399.708C333.928 393.91 320.817 388.692 307.061 384.427C274.797 374.418 240.548 371.066 206.602 374.389C139.05 381.044 72.7075 414.933 33.8277 467.731" stroke="#CE6867" stroke-miterlimit="10"/>
<path d="M1660.01 639.05C1625.44 613.002 1590.17 587.25 1552.74 564.597C1525.65 548.253 1497.46 533.66 1467.38 522.049C1413.35 501.393 1351.93 491.636 1293.6 500.835C1274.61 503.838 1255.99 508.876 1238.11 516.174C1148.84 552.605 1098.68 633.356 1025.86 688.947C931.172 761.223 786.379 780.424 681.757 722.548C636.69 697.667 601.888 661.89 570.346 623.381C546.403 594.298 524.651 564.142 502.434 535.316C490.775 520.189 478.534 505.08 465.61 490.486C430.358 450.741 390.138 414.749 340.471 391.2C327.925 385.216 314.673 380.058 300.977 375.918C268.492 366.154 233.96 363.449 199.69 367.514C131.773 375.532 65.79 410.177 27.2303 463.294" stroke="#D66760" stroke-miterlimit="10"/>
<path d="M1661.49 642.703C1600.64 597.928 1538.87 552.634 1466.42 524.991C1393.96 497.347 1308.25 489.042 1234.77 519.282C1144.54 556.346 1094.44 638.283 1020.67 694.198C924.475 767.032 777.258 784.154 672.057 725.236C593.467 681.124 544.888 605.333 494.407 534.954C443.927 464.574 383.353 393.377 294.999 367.435C197.32 338.916 78.4197 378.518 20.6789 458.758" stroke="#DE655A" stroke-miterlimit="10"/>
<path d="M26.5116 459.453C81.0713 385.421 188.384 347.648 281.188 367.119C287.286 368.408 293.304 369.884 299.161 371.729C383.678 397.034 442.832 463.653 492.53 530.623C494.29 532.908 495.91 535.251 497.67 537.536C548.446 606.775 597.823 681.067 676.232 723.542C781.299 780.208 926.377 761.178 1022.8 690.169C1035.17 681.027 1047.04 671.188 1058.49 660.997C1115.15 610.587 1163.09 551.751 1237.5 523.067C1274.61 508.802 1314.67 504.113 1354.63 506.501C1393.22 508.858 1431.78 517.888 1467.13 531.369C1539.27 558.705 1601.36 602.532 1662.27 644.586" stroke="#D56960" stroke-miterlimit="10"/>
<path d="M32.2422 460.111C87.1671 387.316 193.73 351.274 285.525 371.257C291.525 372.514 297.503 374.082 303.361 375.929C387.031 401.38 445.838 467.28 495.79 533.201C497.551 535.487 499.211 537.739 500.972 540.025C552.003 608.218 602.078 680.975 680.446 721.754C785.48 776.201 928.461 755.166 1024.97 686.042C1037.47 677.146 1049.22 667.578 1060.75 657.724C1117.77 609.097 1166.29 553.385 1240.22 526.852C1277.1 513.661 1316.74 509.675 1356.26 512.551C1394.46 515.304 1432.6 524.515 1467.94 537.782C1539.78 564.811 1602.08 607.136 1663.01 646.56" stroke="#CD6E67" stroke-miterlimit="10"/>
<path d="M38.0763 460.801C93.3662 389.245 199.238 355.062 289.965 375.433C295.925 376.783 301.805 378.319 307.563 380.132C390.344 405.823 448.844 470.91 499.051 535.781C500.812 538.068 502.513 540.229 504.274 542.516C555.66 609.693 606.433 680.916 684.561 719.929C789.56 772.153 930.441 749.112 1027.04 681.876C1039.56 673.192 1051.39 663.962 1063 654.447C1120.43 607.512 1169.53 554.927 1242.89 530.514C1279.42 518.366 1318.71 515.21 1357.83 518.482C1395.6 521.723 1433.5 530.963 1468.59 544.043C1540.12 570.764 1602.7 611.712 1663.73 648.317" stroke="#C4726D" stroke-miterlimit="10"/>
<path d="M43.8128 461.449C99.4681 391.131 204.59 358.682 294.449 379.509C300.31 380.825 306.15 382.454 311.909 384.269C393.801 410.2 451.994 474.474 502.417 538.389C504.218 540.585 505.879 542.84 507.581 545.002C559.263 611.038 610.693 680.818 688.78 718.131C793.685 768.004 932.427 743.046 1029.36 677.672C1041.85 669.293 1053.81 660.31 1065.46 651.225C1123.26 606.075 1172.97 556.528 1245.72 534.329C1282.02 523.259 1320.88 520.807 1359.47 524.534C1396.84 528.172 1434.33 537.594 1469.26 550.52C1540.49 576.934 1603.29 616.377 1664.33 650.345" stroke="#BC7773" stroke-miterlimit="10"/>
<path d="M49.6534 462.133C105.674 393.055 210.045 362.341 298.894 383.684C304.716 385.094 310.456 386.69 316.116 388.472C397.119 414.644 455.005 478.105 505.682 540.968C507.384 543.132 509.186 545.329 510.888 547.492C562.825 612.479 615.095 680.662 693 716.332C797.87 763.977 934.41 736.974 1031.53 673.524C1044.05 665.358 1056.08 656.713 1067.82 647.968C1125.98 604.605 1176.28 558.193 1248.48 538.025C1284.44 528 1323 526.287 1361.15 530.505C1398.12 534.54 1435.34 544.083 1470.11 556.855C1541.03 582.961 1604.15 620.932 1665.21 652.261" stroke="#B37B7A" stroke-miterlimit="10"/>
<path d="M55.5074 462.798C111.893 394.961 215.473 366.078 303.352 387.845C309.074 389.222 314.776 390.911 320.396 392.787C400.509 419.201 458.189 481.881 508.98 543.753C510.682 545.917 512.525 548.023 514.227 550.187C566.459 614.031 619.488 680.801 697.251 714.734C802.086 760.149 936.524 731.131 1033.74 669.572C1046.27 661.62 1058.29 653.281 1070.1 644.875C1128.67 603.208 1179.55 559.934 1251.18 541.893C1286.9 532.948 1324.9 532 1362.76 536.649C1399.33 541.083 1436.27 550.748 1470.75 563.426C1541.46 589.257 1604.7 625.687 1665.82 654.279" stroke="#AB7F80" stroke-miterlimit="10"/>
<path d="M61.2481 463.445C118 396.849 220.827 369.707 307.837 391.932C313.52 393.402 319.122 395.059 324.744 396.935C403.966 423.591 461.298 485.55 512.384 546.276C514.127 548.349 515.97 550.456 517.673 552.622C570.26 615.447 623.887 680.643 701.609 712.87C806.349 755.926 938.644 724.984 1036.09 665.26C1048.65 657.521 1060.74 649.521 1072.64 641.454C1131.57 601.579 1183.07 561.353 1254.08 545.535C1289.57 537.672 1327.15 537.431 1364.51 542.445C1400.68 547.277 1437.21 557.125 1471.68 569.589C1542.12 595.019 1605.53 630.031 1666.77 656.011" stroke="#A28486" stroke-miterlimit="10"/>
<path d="M67.0996 464.113C124.217 398.759 226.352 373.486 312.292 396.102C317.975 397.574 323.438 399.291 328.96 401.134C407.291 428.033 464.316 489.177 515.657 548.85C517.4 550.924 519.244 553.032 520.987 555.106C573.87 616.786 628.296 680.473 705.734 711.018C810.439 751.839 940.629 718.877 1038.16 661.048C1050.7 653.616 1062.92 645.863 1074.9 638.136C1134.3 600.087 1186.28 562.973 1256.85 549.227C1292 542.414 1329.22 543.008 1366.18 548.421C1401.92 553.745 1438.22 563.623 1472.43 575.899C1542.57 601.021 1606.29 634.555 1667.49 657.759" stroke="#9A888D" stroke-miterlimit="10"/>
<path d="M72.952 464.773C130.476 400.568 231.819 377.131 316.788 400.175C322.332 401.706 327.836 403.331 333.319 405.269C410.76 432.412 467.477 492.742 519.032 551.455C520.817 553.437 522.56 555.513 524.445 557.529C577.583 618.157 632.809 680.336 710.105 709.138C814.775 747.721 942.76 712.701 1040.48 656.801C1053.04 649.582 1065.34 642.169 1077.36 634.876C1137.17 598.527 1189.73 564.561 1259.69 553.043C1294.6 547.314 1331.4 548.617 1367.93 554.523C1403.27 560.246 1439.15 570.307 1473.21 582.429C1543.04 607.244 1606.94 639.359 1668.3 659.85" stroke="#918C93" stroke-miterlimit="10"/>
<path d="M78.7506 465.301C136.599 402.433 237.191 380.743 321.289 404.248C326.834 405.78 332.198 407.465 337.54 409.464C414.131 436.758 470.5 496.365 522.309 554.023C524.094 556.007 525.878 557.991 527.663 559.975C581.097 619.456 636.94 680.275 714.235 707.271C818.687 743.767 944.646 706.534 1042.56 652.567C1055.24 645.596 1067.42 638.456 1079.62 631.537C1139.8 596.986 1192.88 566.045 1262.36 556.699C1296.93 552.022 1333.28 554.129 1369.41 560.435C1404.35 566.559 1439.95 576.744 1473.86 588.711C1543.38 613.217 1607.6 643.85 1668.91 661.558" stroke="#899199" stroke-miterlimit="10"/>
<path d="M84.6188 465.945C142.833 404.321 242.672 384.38 325.759 408.406C331.164 409.999 336.629 411.718 341.872 413.684C417.571 441.224 473.632 500.016 525.656 556.711C527.441 558.696 529.266 560.588 531.051 562.573C584.74 621 641.383 680.307 718.535 705.555C822.991 739.713 946.803 700.544 1044.85 648.385C1057.51 641.72 1069.81 634.829 1081.99 628.217C1142.53 595.464 1196.2 567.679 1265.11 560.475C1299.44 556.885 1335.36 559.704 1371.06 566.504C1405.61 573.029 1440.89 583.431 1474.54 595.211C1543.75 619.407 1608.19 648.524 1669.62 663.605" stroke="#8095A0" stroke-miterlimit="10"/>
<path d="M90.4777 466.627C149.057 406.257 248.1 388.164 330.212 412.618C335.618 414.211 340.943 415.991 346.187 417.958C420.992 445.741 476.702 503.804 529.02 559.343C530.846 561.236 532.631 563.222 534.456 565.115C588.499 622.514 645.839 680.266 722.745 703.728C827.162 735.638 948.762 694.408 1046.99 644.193C1059.68 637.744 1072.06 631.194 1084.32 624.925C1145.27 593.884 1199.52 569.264 1267.85 564.205C1301.94 561.705 1337.4 565.33 1372.7 572.532C1406.91 579.585 1441.76 589.95 1475.35 601.607C1544.26 625.493 1609.01 653.122 1670.39 665.411" stroke="#789AA6" stroke-miterlimit="10"/>
<path d="M96.2157 467.361C155.158 408.263 253.54 391.968 334.673 416.846C339.938 418.499 345.264 420.28 350.408 422.213C424.313 450.235 479.81 507.495 532.276 561.924C534.102 563.817 535.927 565.711 537.753 567.604C592.085 623.833 650.118 680.016 726.934 701.847C831.204 731.467 950.685 688.224 1049.1 639.97C1061.81 633.739 1074.27 627.534 1086.61 621.609C1147.92 592.385 1202.79 570.847 1270.49 568.032C1304.24 566.592 1339.39 570.963 1374.14 578.626C1407.95 586.08 1442.48 596.66 1475.82 608.127C1544.4 631.697 1609.37 657.798 1670.86 667.452" stroke="#6F9EAC" stroke-miterlimit="10"/>
<path d="M102.067 468.126C161.371 410.303 258.992 395.775 339.104 421.17C344.369 422.824 349.554 424.665 354.699 426.599C427.704 454.859 482.886 511.28 535.56 564.724C537.386 566.618 539.253 568.418 541.079 570.312C595.66 625.463 654.486 680.107 731.15 700.179C835.373 727.54 952.775 682.19 1051.33 635.994C1064.06 629.981 1076.5 624.087 1088.98 618.635C1150.65 591.23 1206.15 572.777 1273.36 572.149C1306.87 571.801 1341.56 576.981 1375.95 584.951C1409.36 592.806 1443.51 603.475 1476.69 614.783C1544.96 638.038 1610.23 662.643 1671.78 669.532" stroke="#66A2B3" stroke-miterlimit="10"/>
<path d="M107.918 468.888C167.585 412.341 264.403 399.674 343.575 425.401C348.7 427.114 353.885 428.955 358.889 430.95C430.995 459.449 485.861 515.03 538.784 567.394C540.651 569.195 542.517 570.996 544.243 572.857C599.113 626.834 658.691 680.033 735.205 698.344C839.421 723.351 954.561 676.047 1053.34 631.724C1066.05 626.022 1078.61 620.381 1091.07 615.24C1153.14 589.562 1209.18 574.383 1275.81 575.909C1309.08 576.656 1343.24 582.516 1377.29 591.015C1410.3 599.272 1444.17 610.063 1477.19 621.212C1545.15 644.151 1610.59 667.318 1672.19 671.441" stroke="#5EA7B9" stroke-miterlimit="10"/>
<path d="M113.673 469.611C173.701 414.34 269.758 403.442 348.009 429.72C353.135 431.435 358.18 433.336 363.184 435.331C434.389 464.069 488.941 518.811 542.072 570.188C543.939 571.989 545.705 573.757 547.612 575.466C602.831 628.397 663.043 679.894 739.465 696.571C843.533 719.283 956.552 669.963 1055.52 627.607C1068.24 622.124 1080.89 616.827 1093.43 612.032C1155.86 588.175 1212.51 576.085 1278.57 579.768C1311.49 581.575 1345.33 588.184 1378.84 597.145C1411.41 605.897 1445 616.81 1477.76 627.768C1545.4 650.39 1611.05 672.026 1672.76 673.508" stroke="#55ABC0" stroke-miterlimit="10"/>
<path d="M119.529 470.372C180.02 416.413 275.314 407.285 352.484 433.955C357.469 435.73 362.514 437.632 367.418 439.593C437.723 468.57 491.959 522.471 545.338 572.766C547.245 574.474 549.012 576.243 550.919 577.951C606.427 629.708 667.391 679.756 743.561 694.636C847.621 714.992 958.479 663.749 1057.52 623.329C1070.27 618.065 1082.99 613.114 1095.62 608.665C1158.45 586.537 1215.68 577.632 1281.11 583.566C1313.8 586.469 1347.17 593.887 1380.29 603.25C1412.45 612.404 1445.66 623.405 1478.27 634.205C1545.69 656.544 1611.55 676.647 1673.21 675.325" stroke="#4DB0C6" stroke-miterlimit="10"/>
<path d="M125.395 471.123C186.249 418.443 280.74 411.18 356.929 438.275C361.914 440.05 366.859 441.919 371.723 443.975C441.228 473.225 495.007 526.344 548.675 575.463C550.582 577.172 552.389 578.848 554.297 580.557C610.053 631.232 671.81 679.737 747.828 692.853C851.84 710.944 960.476 657.65 1059.7 619.201C1072.53 614.282 1085.17 609.516 1097.98 605.446C1161.18 585.143 1218.99 579.424 1283.87 587.423C1316.21 591.389 1349.27 599.557 1381.94 609.416C1413.71 618.972 1446.59 630.189 1479.04 640.83C1546.19 662.759 1612.22 681.422 1673.99 677.456" stroke="#44B4CC" stroke-miterlimit="10"/>
<path d="M131.171 471.829C192.387 420.431 286.116 414.941 361.382 442.589C366.368 444.364 371.172 446.293 375.996 448.443C444.64 477.838 498.063 530.208 551.938 578.336C553.846 580.046 555.694 581.628 557.601 583.338C613.646 632.835 676.095 679.762 752.021 691.24C855.924 706.937 962.396 651.72 1061.85 615.15C1074.69 610.45 1087.42 606.031 1100.16 602.368C1163.72 583.89 1222.15 581.267 1286.45 591.426C1318.55 596.489 1351.05 605.433 1383.31 615.694C1414.68 625.653 1447.19 636.959 1479.48 647.441C1546.31 669.052 1612.64 686.214 1674.36 679.441" stroke="#3CB8D3" stroke-miterlimit="10"/>
<path d="M137.043 472.573C198.621 422.454 291.547 418.831 365.873 446.812C370.718 448.648 375.522 450.577 380.246 452.694C447.989 482.329 501.097 533.857 555.22 580.902C557.068 582.485 558.976 584.195 560.823 585.778C617.117 634.192 680.439 679.387 756.092 689.38C860.028 702.622 964.297 645.573 1063.83 610.941C1076.7 606.46 1089.5 602.387 1102.33 599.07C1166.29 582.325 1225.3 582.892 1289.08 595.34C1320.93 601.501 1353 611.162 1384.83 621.92C1415.8 632.282 1447.98 643.804 1480.12 654.128C1546.63 675.422 1613.17 691.047 1675.01 681.627" stroke="#33BDD9" stroke-miterlimit="10"/>
<path d="M142.821 473.286C204.761 424.451 296.923 422.605 370.225 451.104C375.071 452.94 379.735 454.93 384.459 457.047C451.3 486.921 504.191 537.637 558.462 583.562C560.309 585.145 562.258 586.762 564.105 588.345C620.747 635.706 684.661 679.285 760.16 687.511C863.945 698.451 966.09 639.385 1065.8 606.73C1078.65 602.562 1091.58 598.742 1104.48 595.772C1168.8 580.856 1228.4 584.616 1291.63 599.133C1323.14 606.358 1354.85 616.864 1386.32 627.931C1416.84 638.789 1448.79 650.34 1480.66 660.471C1546.86 681.446 1613.67 695.662 1675.49 683.339" stroke="#2BC1DF" stroke-miterlimit="10"/>
<path d="M148.711 474.018C211.013 426.468 302.471 426.526 374.791 455.451C379.496 457.347 384.16 459.337 388.784 461.421C454.723 491.534 507.298 541.405 561.775 586.337C563.623 587.92 565.612 589.444 567.46 591.027C624.39 637.209 689.055 679.333 764.402 685.791C868.137 694.46 968.158 633.375 1067.99 602.571C1080.86 598.622 1093.77 595.115 1106.85 592.526C1171.54 579.439 1231.75 586.3 1294.36 603.075C1325.59 611.492 1356.92 622.622 1387.84 634.152C1417.96 645.414 1449.49 657.146 1481.24 667.025C1547.12 687.682 1614.14 700.36 1676.07 685.387" stroke="#22C5E6" stroke-miterlimit="10"/>
<path d="M154.631 474.672C217.295 428.408 307.99 430.242 379.327 459.594C384.032 461.491 388.556 463.541 393.18 465.625C458.217 495.977 510.475 545.002 565.2 588.846C567.088 590.336 568.977 591.827 570.925 593.444C628.103 638.539 693.5 678.985 768.754 683.801C872.379 690.072 970.235 627.062 1070.25 598.236C1083.14 594.507 1096.09 591.441 1109.19 589.072C1174.38 577.755 1235.07 587.778 1297.09 606.718C1328.08 616.235 1358.85 628.143 1389.47 640.11C1419.19 651.775 1450.44 663.63 1481.99 673.443C1547.55 693.782 1614.88 704.955 1676.76 687.169" stroke="#1ACAEC" stroke-miterlimit="10"/>
<path d="M160.432 475.356C223.458 430.377 313.389 433.991 383.704 463.862C388.268 465.82 392.792 467.871 397.376 470.049C461.51 500.64 513.412 548.913 568.384 591.669C570.272 593.16 572.161 594.651 574.19 596.081C631.656 639.994 697.805 678.984 772.905 682.03C876.481 686.028 972.111 620.964 1072.41 594.15C1085.32 590.641 1098.35 587.922 1111.49 585.994C1177.04 576.509 1238.31 589.73 1299.75 610.836C1330.4 621.42 1360.84 634.08 1391.02 646.545C1420.34 658.613 1451.21 670.557 1482.6 680.21C1547.84 700.231 1615.38 709.864 1677.37 689.426" stroke="#11CEF2" stroke-miterlimit="10"/>
<path d="M166.33 476.087C229.717 432.397 318.844 437.884 388.316 468.121C392.88 470.079 397.364 472.224 401.747 474.336C464.979 505.166 516.563 552.59 571.883 594.291C573.812 595.688 575.701 597.178 577.63 598.575C635.442 641.433 702.283 678.836 777.129 680.078C880.653 681.803 974.159 614.72 1074.54 589.854C1087.43 586.658 1100.57 584.194 1113.8 582.614C1179.71 574.961 1241.6 591.287 1302.45 614.561C1332.86 626.245 1362.84 639.717 1392.52 652.552C1421.39 665.118 1451.98 677.184 1483.22 686.678C1548.14 706.379 1615.99 714.506 1677.93 691.252" stroke="#09D3F9" stroke-miterlimit="10"/>
<path d="M172.237 476.809C235.987 434.408 324.449 441.71 392.797 472.433C461.144 503.156 515.824 553.558 575.149 596.929C634.533 640.427 704.092 678.747 781.32 678.208C898.057 677.592 999.378 589.711 1116.07 579.315C1215.4 570.507 1306.23 618.742 1394.08 658.68C1481.93 698.618 1586.73 731.565 1678.55 693.197" stroke="#00D7FF" stroke-miterlimit="10"/>
</svg>
