<svg width="24" height="24" viewBox="0 0 24 24" fill="none" xmlns="http://www.w3.org/2000/svg">
<rect width="24" height="24" transform="translate(0.000610352)" fill="white"/>
<path d="M12.0006 9.75C11.9006 9.75 11.8106 9.73 11.7106 9.69C11.4306 9.58 11.2506 9.3 11.2506 9V2C11.2506 1.59 11.5906 1.25 12.0006 1.25C12.4106 1.25 12.7506 1.59 12.7506 2V7.19L13.4706 6.47C13.7606 6.18 14.2406 6.18 14.5306 6.47C14.8206 6.76 14.8206 7.24 14.5306 7.53L12.5306 9.53C12.3906 9.67 12.2006 9.75 12.0006 9.75Z" fill="#9D8DFE"/>
<path d="M12.0006 9.74994C11.8106 9.74994 11.6206 9.67994 11.4706 9.52994L9.47061 7.52994C9.18061 7.23994 9.18061 6.75994 9.47061 6.46994C9.76061 6.17994 10.2406 6.17994 10.5306 6.46994L12.5306 8.46994C12.8206 8.75994 12.8206 9.23994 12.5306 9.52994C12.3806 9.67994 12.1906 9.74994 12.0006 9.74994Z" fill="#9D8DFE"/>
<path d="M13.7606 17.75H10.2306C9.18062 17.75 8.24062 17.17 7.77062 16.23L6.60062 13.89C6.56062 13.8 6.47062 13.75 6.38062 13.75H1.98062C1.57062 13.75 1.23062 13.41 1.23062 13C1.23062 12.59 1.57062 12.25 1.98062 12.25H6.39062C7.06062 12.25 7.66062 12.62 7.96062 13.22L9.13062 15.56C9.34062 15.99 9.77062 16.25 10.2506 16.25H13.7806C14.2606 16.25 14.6906 15.99 14.9006 15.56L16.0706 13.22C16.3706 12.62 16.9706 12.25 17.6406 12.25H22.0006C22.4106 12.25 22.7506 12.59 22.7506 13C22.7506 13.41 22.4106 13.75 22.0006 13.75H17.6406C17.5406 13.75 17.4606 13.8 17.4206 13.89L16.2506 16.23C15.7506 17.17 14.8106 17.75 13.7606 17.75Z" fill="#9D8DFE"/>
<path d="M15.0006 22.7499H9.00061C3.57061 22.7499 1.25061 20.4299 1.25061 14.9999V10.9999C1.25061 6.30993 2.99061 3.95993 6.89061 3.38993C7.31061 3.32993 7.68061 3.60993 7.74061 4.01993C7.80061 4.42993 7.52061 4.80993 7.11061 4.86993C3.97061 5.32993 2.75061 7.04993 2.75061 10.9999V14.9999C2.75061 19.6099 4.39061 21.2499 9.00061 21.2499H15.0006C19.6106 21.2499 21.2506 19.6099 21.2506 14.9999V10.9999C21.2506 7.04993 20.0306 5.32993 16.8906 4.86993C16.4806 4.80993 16.2006 4.42993 16.2606 4.01993C16.3206 3.60993 16.7006 3.32993 17.1106 3.38993C21.0106 3.95993 22.7506 6.30993 22.7506 10.9999V14.9999C22.7506 20.4299 20.4306 22.7499 15.0006 22.7499Z" fill="#9D8DFE"/>
</svg>
