<svg width="24" height="24" viewBox="0 0 24 24" fill="none" xmlns="http://www.w3.org/2000/svg">
<rect width="24" height="24" transform="translate(0.000610352)" fill="white"/>
<path d="M13.1808 18.6999C12.0108 18.6999 11.0208 17.9799 10.6508 16.8699L9.95084 14.7999C9.84084 14.4399 9.56084 14.1699 9.22084 14.0599L7.14084 13.3599C6.02084 12.9799 5.30084 11.9699 5.32084 10.7899C5.34084 9.60992 6.08084 8.61994 7.21084 8.26994L14.7408 5.92992C15.6908 5.63992 16.7208 5.88994 17.4208 6.59994C18.1208 7.30994 18.3708 8.32993 18.0808 9.27993L15.7408 16.8199C15.3908 17.9499 14.4008 18.6899 13.2108 18.7099C13.2008 18.6999 13.1908 18.6999 13.1808 18.6999ZM15.5208 7.29993C15.4008 7.29993 15.2908 7.31994 15.1708 7.34994L7.63084 9.69993C7.02084 9.88993 6.80084 10.3899 6.80084 10.8099C6.79084 11.2199 7.00084 11.7399 7.60084 11.9399L9.68084 12.6299C10.4808 12.8899 11.1108 13.5199 11.3708 14.3299L12.0608 16.3899C12.2608 16.9899 12.7308 17.1799 13.1908 17.1999C13.6008 17.1999 14.1108 16.9799 14.3008 16.3699L16.6408 8.82993C16.7708 8.40993 16.6608 7.96993 16.3508 7.65993C16.1208 7.41993 15.8308 7.29993 15.5208 7.29993Z" fill="#9D8DFE"/>
<path d="M15.0006 22.75H9.00061C3.57061 22.75 1.25061 20.43 1.25061 15V9C1.25061 3.57 3.57061 1.25 9.00061 1.25H15.0006C20.4306 1.25 22.7506 3.57 22.7506 9V15C22.7506 20.43 20.4306 22.75 15.0006 22.75ZM9.00061 2.75C4.39061 2.75 2.75061 4.39 2.75061 9V15C2.75061 19.61 4.39061 21.25 9.00061 21.25H15.0006C19.6106 21.25 21.2506 19.61 21.2506 15V9C21.2506 4.39 19.6106 2.75 15.0006 2.75H9.00061Z" fill="#9D8DFE"/>
</svg>
