<svg width="44" height="44" viewBox="0 0 44 44" fill="none" xmlns="http://www.w3.org/2000/svg">
<path d="M25.6667 17.05V22.3667H30.4333C30.8 22.3667 30.9833 22.7333 30.9833 23.1L30.25 26.5833C30.25 26.7667 29.8833 26.95 29.7 26.95H25.6667V40.3333H20.1667V27.1333H17.05C16.6833 27.1333 16.5 26.95 16.5 26.5833V23.1C16.5 22.7333 16.6833 22.55 17.05 22.55H20.1667V16.5C20.1667 13.3833 22.55 11 25.6667 11H30.6167C30.9833 11 31.1667 11.1833 31.1667 11.55V15.95C31.1667 16.3167 30.9833 16.5 30.6167 16.5H26.2167C25.85 16.5 25.6667 16.6833 25.6667 17.05Z" stroke="white" stroke-width="1.5" stroke-miterlimit="10" stroke-linecap="round"/>
<path d="M27.5001 40.3334H16.5001C7.33341 40.3334 3.66675 36.6667 3.66675 27.5001V16.5001C3.66675 7.33341 7.33341 3.66675 16.5001 3.66675H27.5001C36.6667 3.66675 40.3334 7.33341 40.3334 16.5001V27.5001C40.3334 36.6667 36.6667 40.3334 27.5001 40.3334Z" stroke="white" stroke-width="1.5" stroke-linecap="round" stroke-linejoin="round"/>
</svg>
