<svg width="44" height="44" viewBox="0 0 44 44" fill="none" xmlns="http://www.w3.org/2000/svg">
<path d="M16.5001 40.3334H27.5001C36.6667 40.3334 40.3334 36.6667 40.3334 27.5001V16.5001C40.3334 7.33341 36.6667 3.66675 27.5001 3.66675H16.5001C7.33341 3.66675 3.66675 7.33341 3.66675 16.5001V27.5001C3.66675 36.6667 7.33341 40.3334 16.5001 40.3334Z" stroke="white" stroke-width="1.5" stroke-linecap="round" stroke-linejoin="round"/>
<path d="M21.9999 28.4166C25.5437 28.4166 28.4166 25.5437 28.4166 21.9999C28.4166 18.4561 25.5437 15.5833 21.9999 15.5833C18.4561 15.5833 15.5833 18.4561 15.5833 21.9999C15.5833 25.5437 18.4561 28.4166 21.9999 28.4166Z" stroke="white" stroke-width="1.5" stroke-linecap="round" stroke-linejoin="round"/>
<path d="M32.333 12.8334H32.3541" stroke="white" stroke-width="2" stroke-linecap="round" stroke-linejoin="round"/>
</svg>
