<svg width="1421" height="707" viewBox="0 0 1421 707" fill="none" xmlns="http://www.w3.org/2000/svg">
<g clip-path="url(#clip0_1350_4389)">
<rect x="529" y="415.003" width="525" height="77" rx="20" fill="#D8D1FF"/>
<path d="M749.347 362.853C773.618 364.063 792.631 384.836 787.948 408.681C778.199 458.319 756.21 505.073 723.626 544.698C681.63 595.77 624.208 632.358 559.651 649.178C495.094 665.998 426.744 662.18 364.47 638.276C302.195 614.372 249.22 571.618 213.193 516.188C177.167 460.758 159.953 395.521 164.038 329.897C168.123 264.273 193.295 201.658 235.919 151.093C278.544 100.528 336.415 64.6313 401.176 48.5849C451.493 36.1174 503.947 36.1349 553.911 48.3235C577.684 54.123 588.651 80.3 579.383 102.948L559.139 152.424C550.001 174.757 524.504 184.943 500.571 181.86C479.261 179.114 457.492 180.314 436.412 185.537C401.14 194.277 369.62 213.829 346.404 241.369C323.188 268.909 309.478 303.013 307.253 338.756C305.028 374.499 314.404 410.03 334.026 440.221C353.648 470.411 382.502 493.697 416.42 506.717C450.338 519.736 487.565 521.816 522.727 512.654C557.888 503.493 589.164 483.566 612.037 455.749C625.476 439.406 635.605 420.838 642.037 401.046C649.548 377.936 669.657 358.88 693.927 360.09L749.347 362.853Z" fill="#9D8DFE"/>
<path d="M758.395 363.304C777.669 364.265 792.718 380.729 789.562 399.767C784.278 431.641 773.953 462.571 758.9 491.414C738.429 530.636 709.684 565.094 674.585 592.487C639.486 619.88 598.84 639.577 555.363 650.263C511.885 660.949 466.577 662.378 422.464 654.454C378.351 646.531 336.448 629.437 299.554 604.314C262.661 579.192 231.626 546.619 208.521 508.772C185.417 470.925 170.776 428.674 165.576 384.841C161.738 352.496 163.107 319.839 169.564 288.062C173.381 269.277 193.107 259.243 211.387 265.014V265.014C229.873 270.849 239.789 290.63 236.589 309.749C232.879 331.911 232.323 354.537 234.984 376.971C239.031 411.083 250.426 443.964 268.406 473.418C286.387 502.873 310.539 528.222 339.251 547.773C367.963 567.324 400.573 580.627 434.904 586.794C469.234 592.96 504.495 591.848 538.331 583.532C572.166 575.215 603.798 559.886 631.114 538.568C658.429 517.25 680.799 490.434 696.731 459.91C707.242 439.77 714.791 418.322 719.201 396.209C722.976 377.284 739.121 362.343 758.395 363.304V363.304Z" fill="#BDB3FD"/>
<path d="M345.663 619.441C343.244 624.356 337.311 626.424 332.444 623.91C269.08 591.173 218.782 538.149 189.98 473.463C161.2 408.828 155.686 336.599 174.163 268.687C175.605 263.386 181.17 260.422 186.433 261.996L234.163 276.269C239.482 277.859 242.466 283.475 241.061 288.847C227.414 341.035 231.899 396.358 253.976 445.94C276.065 495.548 314.399 536.343 362.702 561.901C367.623 564.505 369.73 570.528 367.272 575.524L345.663 619.441Z" fill="#BDB3FD"/>
<path d="M777.689 408.749C783.124 409.828 786.661 415.126 785.379 420.516C776.411 458.209 760.34 493.935 737.969 525.83C713.665 560.479 682.434 589.88 646.183 612.237C609.932 634.594 569.42 649.44 527.121 655.867C484.822 662.294 441.621 660.169 400.157 649.62C358.693 639.071 319.833 620.321 285.951 594.513C252.069 568.705 223.874 536.38 203.087 499.512C182.3 462.644 169.357 422.006 165.048 380.078C161.078 341.44 164.516 302.453 175.151 265.139C176.657 259.858 182.254 256.962 187.497 258.596L196.315 261.346C201.617 262.999 204.538 268.651 203.036 273.998C193.619 307.531 190.6 342.532 194.165 377.224C198.074 415.259 209.815 452.123 228.671 485.567C247.527 519.011 273.104 548.333 303.839 571.744C334.575 595.155 369.825 612.164 407.439 621.733C445.052 631.302 484.24 633.23 522.611 627.4C560.982 621.57 597.731 608.103 630.615 587.822C663.5 567.541 691.83 540.871 713.877 509.44C734.009 480.738 748.516 448.615 756.688 414.724C757.978 409.372 763.21 405.874 768.61 406.946L777.689 408.749Z" fill="#D8D1FF"/>
<mask id="mask0_1350_4389" style="mask-type:alpha" maskUnits="userSpaceOnUse" x="163" y="263" width="627" height="397">
<path d="M758.395 363.304C777.669 364.265 792.718 380.729 789.562 399.767C784.28 431.63 773.96 462.551 758.914 491.386C738.453 530.6 709.72 565.054 674.635 592.447C639.55 619.841 598.92 639.543 555.457 650.24C511.993 660.936 466.697 662.381 422.591 654.477C378.485 646.573 336.585 629.503 299.687 604.405C262.79 579.307 231.743 546.76 208.621 508.935C185.499 471.111 170.833 428.88 165.602 385.062C161.742 352.731 163.085 320.084 169.513 288.313C173.315 269.524 193.033 259.474 211.318 265.229V265.229C229.809 271.05 239.74 290.822 236.556 309.944C232.866 332.101 232.328 354.719 235.005 377.142C239.076 411.244 250.489 444.109 268.484 473.546C286.478 502.982 310.64 528.311 339.355 547.843C368.07 567.375 400.678 580.66 435.003 586.811C469.328 592.962 504.579 591.838 538.404 583.514C572.229 575.189 603.849 559.856 631.153 538.537C658.457 517.219 680.818 490.406 696.742 459.888C707.248 439.754 714.792 418.314 719.201 396.209C722.976 377.284 739.121 362.343 758.395 363.304V363.304Z" fill="#BDB3FD"/>
</mask>
<g mask="url(#mask0_1350_4389)">
<path d="M793.293 365.044C789.595 439.209 758.981 509.564 707.015 563.321C655.05 617.078 585.182 650.669 510.111 657.987C435.041 665.305 359.752 645.865 297.929 603.2C236.106 560.535 191.853 497.479 173.215 425.491L201.573 418.42C218.481 483.722 258.623 540.922 314.705 579.624C370.786 618.327 439.083 635.961 507.181 629.323C575.279 622.684 638.658 592.214 685.798 543.449C732.938 494.684 760.709 430.863 764.063 363.586L793.293 365.044Z" fill="#D8D1FF"/>
</g>
<rect x="446" y="224.003" width="496" height="77" rx="20" fill="#D8D1FF"/>
<rect x="42.0007" y="224.002" width="496" height="77" rx="20" fill="#D8D1FF"/>
<path d="M712.235 333.239C687.973 331.854 669.11 310.945 673.965 287.134C684.071 237.567 706.397 190.974 739.265 151.584C781.628 100.816 839.312 64.6431 903.989 48.2884C968.665 31.9337 1036.99 36.2437 1099.09 60.5959C1161.19 84.9482 1213.85 128.082 1249.48 183.77C1285.11 239.458 1301.85 304.817 1297.29 370.41C1292.73 436.004 1267.11 498.436 1224.12 548.692C1181.14 598.948 1123.01 634.428 1058.13 650.007C1007.73 662.112 955.275 661.717 905.4 649.168C881.669 643.198 870.892 616.943 880.322 594.362L900.922 545.033C910.221 522.766 935.79 512.764 959.7 516.02C980.99 518.919 1002.77 517.876 1023.88 512.805C1059.22 504.319 1090.88 484.995 1114.29 457.623C1137.71 430.25 1151.66 396.246 1154.14 360.52C1156.63 324.795 1147.51 289.196 1128.1 258.865C1108.7 228.535 1080.01 205.041 1046.19 191.777C1012.37 178.514 975.155 176.166 939.928 185.074C904.702 193.982 873.284 213.684 850.211 241.335C836.655 257.58 826.392 276.075 819.817 295.82C812.14 318.876 791.895 337.786 767.634 336.401L712.235 333.239Z" fill="#9D8DFE"/>
<path d="M703.191 332.723C683.924 331.624 668.994 315.052 672.287 296.037C677.921 263.504 688.812 231.998 704.613 202.738C725.978 163.175 755.812 128.657 792.061 101.564C828.31 74.4706 870.11 55.4462 914.581 45.8018C959.052 36.1573 1005.14 36.1222 1049.66 45.6987C1094.18 55.2753 1136.08 74.2358 1172.47 101.273C1208.86 128.311 1238.88 162.783 1260.45 202.314C1282.03 241.844 1294.64 285.493 1297.43 330.252C1299.51 363.494 1296.12 396.761 1287.48 428.789C1282.5 447.268 1262.22 456.046 1244.36 449.179V449.179C1226.25 442.22 1217.57 421.848 1221.97 402.956C1227.18 380.536 1229.13 357.431 1227.69 334.341C1225.51 299.508 1215.69 265.539 1198.91 234.775C1182.12 204.011 1158.76 177.183 1130.44 156.142C1102.11 135.1 1069.51 120.344 1034.86 112.891C1000.21 105.439 964.345 105.466 929.736 112.972C895.127 120.477 862.596 135.283 834.386 156.368C806.176 177.452 782.958 204.315 766.331 235.105C755.27 255.587 747.302 277.482 742.62 300.101C738.71 318.999 722.457 333.823 703.191 332.723V332.723Z" fill="#BDB3FD"/>
<path d="M1117.76 79.566C1120.21 74.6683 1126.16 72.643 1131.01 75.1924C1195.08 108.881 1245.51 163.353 1273.6 229.493C1301.68 295.584 1305.64 369.059 1285.01 437.46C1283.42 442.717 1277.78 445.529 1272.56 443.815L1225.24 428.274C1219.97 426.541 1217.13 420.844 1218.68 415.511C1233.98 362.924 1230.68 306.633 1209.14 255.927C1187.59 205.192 1149.15 163.279 1100.3 136.982C1095.4 134.343 1093.34 128.304 1095.83 123.326L1117.76 79.566Z" fill="#BDB3FD"/>
<path d="M684.225 287.141C678.798 286.022 675.298 280.699 676.62 275.318C685.934 237.382 702.454 201.5 725.34 169.575C750.186 134.916 782.007 105.659 818.832 83.6172C855.656 61.5755 896.7 47.218 939.421 41.434C982.142 35.6501 1025.63 38.5628 1067.19 49.9918C1108.76 61.4209 1147.51 81.1228 1181.05 107.877C1214.59 134.632 1242.2 167.87 1262.18 205.531C1282.16 243.193 1294.08 284.478 1297.2 326.827C1300.08 365.881 1295.41 405.073 1283.49 442.34C1281.82 447.568 1276.13 450.284 1270.95 448.487L1262.23 445.465C1256.98 443.646 1254.23 437.901 1255.91 432.603C1266.48 399.108 1270.59 363.921 1268.01 328.858C1265.18 290.441 1254.37 252.991 1236.25 218.827C1218.12 184.663 1193.07 154.512 1162.65 130.242C1132.22 105.973 1097.07 88.1004 1059.37 77.7328C1021.66 67.3653 982.214 64.723 943.461 69.9698C904.707 75.2166 867.475 88.2407 834.071 108.235C800.666 128.23 771.801 154.77 749.262 186.21C728.665 214.941 713.753 247.205 705.268 281.317C703.939 286.659 698.682 290.12 693.291 289.009L684.225 287.141Z" fill="#D8D1FF"/>
<mask id="mask1_1350_4389" style="mask-type:alpha" maskUnits="userSpaceOnUse" x="671" y="38" width="628" height="410">
<path d="M703.191 332.723C683.924 331.624 668.994 315.052 672.287 296.037C677.885 263.716 688.67 232.409 704.306 203.308C725.483 163.893 755.06 129.456 791.018 102.347C826.976 75.2372 868.467 56.0942 912.66 46.2245C956.853 36.3548 1002.71 35.9908 1047.09 45.1574C1091.47 54.3239 1133.34 72.8051 1169.84 99.3393C1206.34 125.874 1236.6 159.836 1258.57 198.908C1280.53 237.98 1293.68 281.242 1297.12 325.74C1299.67 358.724 1296.83 391.812 1288.79 423.761C1284.12 442.331 1263.99 451.451 1246 444.876V444.876C1227.79 438.216 1218.77 417.996 1222.84 399.036C1227.64 376.694 1229.21 353.73 1227.44 330.83C1224.77 296.2 1214.53 262.532 1197.44 232.124C1180.34 201.717 1156.79 175.286 1128.39 154.636C1099.98 133.987 1067.4 119.604 1032.86 112.47C998.318 105.336 962.633 105.62 928.241 113.301C893.848 120.982 861.558 135.879 833.575 156.977C805.591 178.074 782.573 204.875 766.092 235.549C755.155 255.904 747.268 277.646 742.62 300.101C738.71 318.999 722.457 333.823 703.191 332.723V332.723Z" fill="#BDB3FD"/>
</mask>
<g mask="url(#mask1_1350_4389)">
<path d="M668.306 330.732C672.538 256.596 703.658 186.463 756.01 133.081C808.361 79.7 878.469 46.6137 953.591 39.8365C1028.71 33.0594 1103.86 53.0413 1165.37 96.1501C1226.89 139.259 1270.68 202.633 1288.8 274.753L1260.4 281.62C1243.96 216.198 1204.23 158.71 1148.43 119.604C1092.63 80.4991 1024.46 62.373 956.314 68.5207C888.17 74.6685 824.573 104.682 777.083 153.106C729.594 201.529 701.364 265.149 697.525 332.4L668.306 330.732Z" fill="#D8D1FF"/>
</g>
<rect x="886" y="224" width="496" height="77" rx="20" fill="#D8D1FF"/>
<rect x="42" y="415" width="525" height="77" rx="20" fill="#D8D1FF"/>
<rect x="857" y="415" width="525" height="77" rx="20" fill="#D8D1FF"/>
</g>
<defs>
<clipPath id="clip0_1350_4389">
<rect width="1421" height="707" fill="white"/>
</clipPath>
</defs>
</svg>
