<svg width="1166" height="753" viewBox="0 0 1166 753" fill="none" xmlns="http://www.w3.org/2000/svg">
<rect x="438" y="577" width="142" height="176" fill="url(#paint0_linear_195_292)"/>
<rect x="670" y="577" width="142" height="176" fill="url(#paint1_linear_195_292)"/>
<rect x="895" y="577" width="142" height="176" fill="url(#paint2_linear_195_292)"/>
<rect x="63" y="121" width="291" height="600" rx="20" fill="url(#paint3_linear_195_292)"/>
<circle cx="112" cy="237" r="15" fill="#9D8DFE" fill-opacity="0.75"/>
<circle cx="112" cy="299" r="15" fill="#9D8DFE" fill-opacity="0.75"/>
<circle cx="112" cy="423" r="15" fill="#9D8DFE" fill-opacity="0.75"/>
<circle cx="112" cy="361" r="15" fill="#9D8DFE" fill-opacity="0.75"/>
<rect x="144" y="230" width="169" height="14" rx="7" fill="#9D8DFE" fill-opacity="0.75"/>
<rect x="144" y="292" width="169" height="14" rx="7" fill="#9D8DFE" fill-opacity="0.75"/>
<rect x="144" y="354" width="169" height="14" rx="7" fill="#9D8DFE" fill-opacity="0.75"/>
<rect x="144" y="416" width="169" height="14" rx="7" fill="#9D8DFE" fill-opacity="0.75"/>
<rect x="316" y="167" width="850" height="490" rx="10" fill="white"/>
<path d="M459.774 552.16V566H457.954V555.68L453.354 566H452.074L447.454 555.66V566H445.634V552.16H447.594L452.714 563.6L457.834 552.16H459.774ZM467.64 566.18C466.614 566.18 465.68 565.947 464.84 565.48C464.014 565.013 463.36 564.353 462.88 563.5C462.414 562.633 462.18 561.633 462.18 560.5C462.18 559.38 462.42 558.393 462.9 557.54C463.394 556.673 464.06 556.013 464.9 555.56C465.74 555.093 466.68 554.86 467.72 554.86C468.76 554.86 469.7 555.093 470.54 555.56C471.38 556.013 472.04 556.667 472.52 557.52C473.014 558.373 473.26 559.367 473.26 560.5C473.26 561.633 473.007 562.633 472.5 563.5C472.007 564.353 471.334 565.013 470.48 565.48C469.627 565.947 468.68 566.18 467.64 566.18ZM467.64 564.58C468.294 564.58 468.907 564.427 469.48 564.12C470.054 563.813 470.514 563.353 470.86 562.74C471.22 562.127 471.4 561.38 471.4 560.5C471.4 559.62 471.227 558.873 470.88 558.26C470.534 557.647 470.08 557.193 469.52 556.9C468.96 556.593 468.354 556.44 467.7 556.44C467.034 556.44 466.42 556.593 465.86 556.9C465.314 557.193 464.874 557.647 464.54 558.26C464.207 558.873 464.04 559.62 464.04 560.5C464.04 561.393 464.2 562.147 464.52 562.76C464.854 563.373 465.294 563.833 465.84 564.14C466.387 564.433 466.987 564.58 467.64 564.58ZM480.993 554.84C482.327 554.84 483.407 555.247 484.233 556.06C485.06 556.86 485.473 558.02 485.473 559.54V566H483.673V559.8C483.673 558.707 483.4 557.873 482.853 557.3C482.307 556.713 481.56 556.42 480.613 556.42C479.653 556.42 478.887 556.72 478.313 557.32C477.753 557.92 477.473 558.793 477.473 559.94V566H475.653V555.04H477.473V556.6C477.833 556.04 478.32 555.607 478.933 555.3C479.56 554.993 480.247 554.84 480.993 554.84Z" fill="#323DB3"/>
<path d="M378.287 532.62C378.287 530.327 378.66 528.54 379.407 527.26C380.154 525.967 381.46 525.32 383.327 525.32C385.18 525.32 386.48 525.967 387.227 527.26C387.974 528.54 388.347 530.327 388.347 532.62C388.347 534.953 387.974 536.767 387.227 538.06C386.48 539.353 385.18 540 383.327 540C381.46 540 380.154 539.353 379.407 538.06C378.66 536.767 378.287 534.953 378.287 532.62ZM386.547 532.62C386.547 531.46 386.467 530.48 386.307 529.68C386.16 528.867 385.847 528.213 385.367 527.72C384.9 527.227 384.22 526.98 383.327 526.98C382.42 526.98 381.727 527.227 381.247 527.72C380.78 528.213 380.467 528.867 380.307 529.68C380.16 530.48 380.087 531.46 380.087 532.62C380.087 533.82 380.16 534.827 380.307 535.64C380.467 536.453 380.78 537.107 381.247 537.6C381.727 538.093 382.42 538.34 383.327 538.34C384.22 538.34 384.9 538.093 385.367 537.6C385.847 537.107 386.16 536.453 386.307 535.64C386.467 534.827 386.547 533.82 386.547 532.62ZM404.078 531.9V533.44H396.098V531.9H404.078Z" fill="#323DB3"/>
<path d="M355.339 324.48C354.592 324.187 354.019 323.76 353.619 323.2C353.219 322.64 353.019 321.96 353.019 321.16C353.019 320.44 353.199 319.793 353.559 319.22C353.919 318.633 354.452 318.173 355.159 317.84C355.879 317.493 356.746 317.32 357.759 317.32C358.772 317.32 359.632 317.493 360.339 317.84C361.059 318.173 361.599 318.633 361.959 319.22C362.332 319.793 362.519 320.44 362.519 321.16C362.519 321.933 362.312 322.613 361.899 323.2C361.486 323.773 360.919 324.2 360.199 324.48C361.026 324.733 361.679 325.18 362.159 325.82C362.652 326.447 362.899 327.207 362.899 328.1C362.899 328.967 362.686 329.727 362.259 330.38C361.832 331.02 361.226 331.52 360.439 331.88C359.666 332.227 358.772 332.4 357.759 332.4C356.746 332.4 355.852 332.227 355.079 331.88C354.319 331.52 353.726 331.02 353.299 330.38C352.872 329.727 352.659 328.967 352.659 328.1C352.659 327.207 352.899 326.44 353.379 325.8C353.859 325.16 354.512 324.72 355.339 324.48ZM360.759 321.38C360.759 320.567 360.492 319.94 359.959 319.5C359.426 319.06 358.692 318.84 357.759 318.84C356.839 318.84 356.112 319.06 355.579 319.5C355.046 319.94 354.779 320.573 354.779 321.4C354.779 322.147 355.052 322.747 355.599 323.2C356.159 323.653 356.879 323.88 357.759 323.88C358.652 323.88 359.372 323.653 359.919 323.2C360.479 322.733 360.759 322.127 360.759 321.38ZM357.759 325.28C356.772 325.28 355.966 325.513 355.339 325.98C354.712 326.433 354.399 327.12 354.399 328.04C354.399 328.893 354.699 329.58 355.299 330.1C355.912 330.62 356.732 330.88 357.759 330.88C358.786 330.88 359.599 330.62 360.199 330.1C360.799 329.58 361.099 328.893 361.099 328.04C361.099 327.147 360.792 326.467 360.179 326C359.566 325.52 358.759 325.28 357.759 325.28ZM365.316 324.62C365.316 322.327 365.69 320.54 366.436 319.26C367.183 317.967 368.49 317.32 370.356 317.32C372.21 317.32 373.51 317.967 374.256 319.26C375.003 320.54 375.376 322.327 375.376 324.62C375.376 326.953 375.003 328.767 374.256 330.06C373.51 331.353 372.21 332 370.356 332C368.49 332 367.183 331.353 366.436 330.06C365.69 328.767 365.316 326.953 365.316 324.62ZM373.576 324.62C373.576 323.46 373.496 322.48 373.336 321.68C373.19 320.867 372.876 320.213 372.396 319.72C371.93 319.227 371.25 318.98 370.356 318.98C369.45 318.98 368.756 319.227 368.276 319.72C367.81 320.213 367.496 320.867 367.336 321.68C367.19 322.48 367.116 323.46 367.116 324.62C367.116 325.82 367.19 326.827 367.336 327.64C367.496 328.453 367.81 329.107 368.276 329.6C368.756 330.093 369.45 330.34 370.356 330.34C371.25 330.34 371.93 330.093 372.396 329.6C372.876 329.107 373.19 328.453 373.336 327.64C373.496 326.827 373.576 325.82 373.576 324.62ZM377.875 324.62C377.875 322.327 378.248 320.54 378.995 319.26C379.741 317.967 381.048 317.32 382.915 317.32C384.768 317.32 386.068 317.967 386.815 319.26C387.561 320.54 387.935 322.327 387.935 324.62C387.935 326.953 387.561 328.767 386.815 330.06C386.068 331.353 384.768 332 382.915 332C381.048 332 379.741 331.353 378.995 330.06C378.248 328.767 377.875 326.953 377.875 324.62ZM386.135 324.62C386.135 323.46 386.055 322.48 385.895 321.68C385.748 320.867 385.435 320.213 384.955 319.72C384.488 319.227 383.808 318.98 382.915 318.98C382.008 318.98 381.315 319.227 380.835 319.72C380.368 320.213 380.055 320.867 379.895 321.68C379.748 322.48 379.675 323.46 379.675 324.62C379.675 325.82 379.748 326.827 379.895 327.64C380.055 328.453 380.368 329.107 380.835 329.6C381.315 330.093 382.008 330.34 382.915 330.34C383.808 330.34 384.488 330.093 384.955 329.6C385.435 329.107 385.748 328.453 385.895 327.64C386.055 326.827 386.135 325.82 386.135 324.62ZM403.665 323.9V325.44H395.685V323.9H403.665Z" fill="#323DB3"/>
<path d="M360.72 372.98C360.427 371.5 359.513 370.76 357.98 370.76C356.793 370.76 355.907 371.22 355.32 372.14C354.733 373.047 354.447 374.547 354.46 376.64C354.767 375.947 355.273 375.407 355.98 375.02C356.7 374.62 357.5 374.42 358.38 374.42C359.753 374.42 360.847 374.847 361.66 375.7C362.487 376.553 362.9 377.733 362.9 379.24C362.9 380.147 362.72 380.96 362.36 381.68C362.013 382.4 361.48 382.973 360.76 383.4C360.053 383.827 359.193 384.04 358.18 384.04C356.807 384.04 355.733 383.733 354.96 383.12C354.187 382.507 353.647 381.66 353.34 380.58C353.033 379.5 352.88 378.167 352.88 376.58C352.88 371.687 354.587 369.24 358 369.24C359.307 369.24 360.333 369.593 361.08 370.3C361.827 371.007 362.267 371.9 362.4 372.98H360.72ZM358 375.96C357.427 375.96 356.887 376.08 356.38 376.32C355.873 376.547 355.46 376.9 355.14 377.38C354.833 377.847 354.68 378.42 354.68 379.1C354.68 380.113 354.973 380.94 355.56 381.58C356.147 382.207 356.987 382.52 358.08 382.52C359.013 382.52 359.753 382.233 360.3 381.66C360.86 381.073 361.14 380.287 361.14 379.3C361.14 378.26 360.873 377.447 360.34 376.86C359.807 376.26 359.027 375.96 358 375.96ZM365.355 376.62C365.355 374.327 365.729 372.54 366.475 371.26C367.222 369.967 368.529 369.32 370.395 369.32C372.249 369.32 373.549 369.967 374.295 371.26C375.042 372.54 375.415 374.327 375.415 376.62C375.415 378.953 375.042 380.767 374.295 382.06C373.549 383.353 372.249 384 370.395 384C368.529 384 367.222 383.353 366.475 382.06C365.729 380.767 365.355 378.953 365.355 376.62ZM373.615 376.62C373.615 375.46 373.535 374.48 373.375 373.68C373.229 372.867 372.915 372.213 372.435 371.72C371.969 371.227 371.289 370.98 370.395 370.98C369.489 370.98 368.795 371.227 368.315 371.72C367.849 372.213 367.535 372.867 367.375 373.68C367.229 374.48 367.155 375.46 367.155 376.62C367.155 377.82 367.229 378.827 367.375 379.64C367.535 380.453 367.849 381.107 368.315 381.6C368.795 382.093 369.489 382.34 370.395 382.34C371.289 382.34 371.969 382.093 372.435 381.6C372.915 381.107 373.229 380.453 373.375 379.64C373.535 378.827 373.615 377.82 373.615 376.62ZM377.914 376.62C377.914 374.327 378.287 372.54 379.034 371.26C379.78 369.967 381.087 369.32 382.954 369.32C384.807 369.32 386.107 369.967 386.854 371.26C387.6 372.54 387.974 374.327 387.974 376.62C387.974 378.953 387.6 380.767 386.854 382.06C386.107 383.353 384.807 384 382.954 384C381.087 384 379.78 383.353 379.034 382.06C378.287 380.767 377.914 378.953 377.914 376.62ZM386.174 376.62C386.174 375.46 386.094 374.48 385.934 373.68C385.787 372.867 385.474 372.213 384.994 371.72C384.527 371.227 383.847 370.98 382.954 370.98C382.047 370.98 381.354 371.227 380.874 371.72C380.407 372.213 380.094 372.867 379.934 373.68C379.787 374.48 379.714 375.46 379.714 376.62C379.714 377.82 379.787 378.827 379.934 379.64C380.094 380.453 380.407 381.107 380.874 381.6C381.354 382.093 382.047 382.34 382.954 382.34C383.847 382.34 384.527 382.093 384.994 381.6C385.474 381.107 385.787 380.453 385.934 379.64C386.094 378.827 386.174 377.82 386.174 376.62ZM403.704 375.9V377.44H395.724V375.9H403.704Z" fill="#323DB3"/>
<path d="M352.279 432.78V431.4L359.299 421.68H361.479V431.2H363.479V432.78H361.479V436H359.679V432.78H352.279ZM359.759 423.58L354.379 431.2H359.759V423.58ZM365.297 428.62C365.297 426.327 365.67 424.54 366.417 423.26C367.163 421.967 368.47 421.32 370.337 421.32C372.19 421.32 373.49 421.967 374.237 423.26C374.983 424.54 375.357 426.327 375.357 428.62C375.357 430.953 374.983 432.767 374.237 434.06C373.49 435.353 372.19 436 370.337 436C368.47 436 367.163 435.353 366.417 434.06C365.67 432.767 365.297 430.953 365.297 428.62ZM373.557 428.62C373.557 427.46 373.477 426.48 373.317 425.68C373.17 424.867 372.857 424.213 372.377 423.72C371.91 423.227 371.23 422.98 370.337 422.98C369.43 422.98 368.737 423.227 368.257 423.72C367.79 424.213 367.477 424.867 367.317 425.68C367.17 426.48 367.097 427.46 367.097 428.62C367.097 429.82 367.17 430.827 367.317 431.64C367.477 432.453 367.79 433.107 368.257 433.6C368.737 434.093 369.43 434.34 370.337 434.34C371.23 434.34 371.91 434.093 372.377 433.6C372.857 433.107 373.17 432.453 373.317 431.64C373.477 430.827 373.557 429.82 373.557 428.62ZM377.855 428.62C377.855 426.327 378.229 424.54 378.975 423.26C379.722 421.967 381.029 421.32 382.895 421.32C384.749 421.32 386.049 421.967 386.795 423.26C387.542 424.54 387.915 426.327 387.915 428.62C387.915 430.953 387.542 432.767 386.795 434.06C386.049 435.353 384.749 436 382.895 436C381.029 436 379.722 435.353 378.975 434.06C378.229 432.767 377.855 430.953 377.855 428.62ZM386.115 428.62C386.115 427.46 386.035 426.48 385.875 425.68C385.729 424.867 385.415 424.213 384.935 423.72C384.469 423.227 383.789 422.98 382.895 422.98C381.989 422.98 381.295 423.227 380.815 423.72C380.349 424.213 380.035 424.867 379.875 425.68C379.729 426.48 379.655 427.46 379.655 428.62C379.655 429.82 379.729 430.827 379.875 431.64C380.035 432.453 380.349 433.107 380.815 433.6C381.295 434.093 381.989 434.34 382.895 434.34C383.789 434.34 384.469 434.093 384.935 433.6C385.415 433.107 385.729 432.453 385.875 431.64C386.035 430.827 386.115 429.82 386.115 428.62ZM403.646 427.9V429.44H395.666V427.9H403.646Z" fill="#323DB3"/>
<rect x="814.5" y="221.5" width="319" height="45" rx="22.5" fill="white" stroke="#DFDFDD"/>
<rect x="819" y="226" width="100" height="36" rx="18" fill="#9D8DFE"/>
<path d="M860.255 236.06L856.215 250H854.175L850.935 238.78L847.575 250L845.555 250.02L841.655 236.06H843.595L846.635 247.88L849.995 236.06H852.035L855.235 247.84L858.295 236.06H860.255ZM872.247 244.1C872.247 244.447 872.227 244.813 872.187 245.2H863.427C863.494 246.28 863.86 247.127 864.527 247.74C865.207 248.34 866.027 248.64 866.987 248.64C867.774 248.64 868.427 248.46 868.947 248.1C869.48 247.727 869.854 247.233 870.067 246.62H872.027C871.734 247.673 871.147 248.533 870.267 249.2C869.387 249.853 868.294 250.18 866.987 250.18C865.947 250.18 865.014 249.947 864.187 249.48C863.374 249.013 862.734 248.353 862.267 247.5C861.8 246.633 861.567 245.633 861.567 244.5C861.567 243.367 861.794 242.373 862.247 241.52C862.7 240.667 863.334 240.013 864.147 239.56C864.974 239.093 865.92 238.86 866.987 238.86C868.027 238.86 868.947 239.087 869.747 239.54C870.547 239.993 871.16 240.62 871.587 241.42C872.027 242.207 872.247 243.1 872.247 244.1ZM870.367 243.72C870.367 243.027 870.214 242.433 869.907 241.94C869.6 241.433 869.18 241.053 868.647 240.8C868.127 240.533 867.547 240.4 866.907 240.4C865.987 240.4 865.2 240.693 864.547 241.28C863.907 241.867 863.54 242.68 863.447 243.72H870.367ZM884.649 244.1C884.649 244.447 884.629 244.813 884.589 245.2H875.829C875.896 246.28 876.263 247.127 876.929 247.74C877.609 248.34 878.429 248.64 879.389 248.64C880.176 248.64 880.829 248.46 881.349 248.1C881.883 247.727 882.256 247.233 882.469 246.62H884.429C884.136 247.673 883.549 248.533 882.669 249.2C881.789 249.853 880.696 250.18 879.389 250.18C878.349 250.18 877.416 249.947 876.589 249.48C875.776 249.013 875.136 248.353 874.669 247.5C874.203 246.633 873.969 245.633 873.969 244.5C873.969 243.367 874.196 242.373 874.649 241.52C875.103 240.667 875.736 240.013 876.549 239.56C877.376 239.093 878.323 238.86 879.389 238.86C880.429 238.86 881.349 239.087 882.149 239.54C882.949 239.993 883.563 240.62 883.989 241.42C884.429 242.207 884.649 243.1 884.649 244.1ZM882.769 243.72C882.769 243.027 882.616 242.433 882.309 241.94C882.003 241.433 881.583 241.053 881.049 240.8C880.529 240.533 879.949 240.4 879.309 240.4C878.389 240.4 877.603 240.693 876.949 241.28C876.309 241.867 875.943 242.68 875.849 243.72H882.769ZM893.172 250L888.872 245.16V250H887.052V235.2H888.872V243.9L893.092 239.04H895.632L890.472 244.5L895.652 250H893.172Z" fill="white"/>
<path d="M1067.77 236.06L1063.23 244.74V250H1061.41V244.74L1056.85 236.06H1058.87L1062.31 243.12L1065.75 236.06H1067.77ZM1079.69 244.1C1079.69 244.447 1079.67 244.813 1079.63 245.2H1070.87C1070.94 246.28 1071.3 247.127 1071.97 247.74C1072.65 248.34 1073.47 248.64 1074.43 248.64C1075.22 248.64 1075.87 248.46 1076.39 248.1C1076.92 247.727 1077.3 247.233 1077.51 246.62H1079.47C1079.18 247.673 1078.59 248.533 1077.71 249.2C1076.83 249.853 1075.74 250.18 1074.43 250.18C1073.39 250.18 1072.46 249.947 1071.63 249.48C1070.82 249.013 1070.18 248.353 1069.71 247.5C1069.24 246.633 1069.01 245.633 1069.01 244.5C1069.01 243.367 1069.24 242.373 1069.69 241.52C1070.14 240.667 1070.78 240.013 1071.59 239.56C1072.42 239.093 1073.36 238.86 1074.43 238.86C1075.47 238.86 1076.39 239.087 1077.19 239.54C1077.99 239.993 1078.6 240.62 1079.03 241.42C1079.47 242.207 1079.69 243.1 1079.69 244.1ZM1077.81 243.72C1077.81 243.027 1077.66 242.433 1077.35 241.94C1077.04 241.433 1076.62 241.053 1076.09 240.8C1075.57 240.533 1074.99 240.4 1074.35 240.4C1073.43 240.4 1072.64 240.693 1071.99 241.28C1071.35 241.867 1070.98 242.68 1070.89 243.72H1077.81ZM1081.41 244.48C1081.41 243.36 1081.64 242.38 1082.09 241.54C1082.55 240.687 1083.17 240.027 1083.95 239.56C1084.75 239.093 1085.64 238.86 1086.61 238.86C1087.57 238.86 1088.41 239.067 1089.11 239.48C1089.82 239.893 1090.35 240.413 1090.69 241.04V239.04H1092.53V250H1090.69V247.96C1090.33 248.6 1089.79 249.133 1089.07 249.56C1088.37 249.973 1087.54 250.18 1086.59 250.18C1085.62 250.18 1084.74 249.94 1083.95 249.46C1083.17 248.98 1082.55 248.307 1082.09 247.44C1081.64 246.573 1081.41 245.587 1081.41 244.48ZM1090.69 244.5C1090.69 243.673 1090.53 242.953 1090.19 242.34C1089.86 241.727 1089.41 241.26 1088.83 240.94C1088.27 240.607 1087.65 240.44 1086.97 240.44C1086.29 240.44 1085.67 240.6 1085.11 240.92C1084.55 241.24 1084.11 241.707 1083.77 242.32C1083.44 242.933 1083.27 243.653 1083.27 244.48C1083.27 245.32 1083.44 246.053 1083.77 246.68C1084.11 247.293 1084.55 247.767 1085.11 248.1C1085.67 248.42 1086.29 248.58 1086.97 248.58C1087.65 248.58 1088.27 248.42 1088.83 248.1C1089.41 247.767 1089.86 247.293 1090.19 246.68C1090.53 246.053 1090.69 245.327 1090.69 244.5ZM1097.43 240.82C1097.75 240.193 1098.2 239.707 1098.79 239.36C1099.39 239.013 1100.12 238.84 1100.97 238.84V240.72H1100.49C1098.45 240.72 1097.43 241.827 1097.43 244.04V250H1095.61V239.04H1097.43V240.82Z" fill="#DFDFDD"/>
<path d="M957.735 236.16V250H955.915V239.68L951.315 250H950.035L945.415 239.66V250H943.595V236.16H945.555L950.675 247.6L955.795 236.16H957.735ZM965.601 250.18C964.575 250.18 963.641 249.947 962.801 249.48C961.975 249.013 961.321 248.353 960.841 247.5C960.375 246.633 960.141 245.633 960.141 244.5C960.141 243.38 960.381 242.393 960.861 241.54C961.355 240.673 962.021 240.013 962.861 239.56C963.701 239.093 964.641 238.86 965.681 238.86C966.721 238.86 967.661 239.093 968.501 239.56C969.341 240.013 970.001 240.667 970.481 241.52C970.975 242.373 971.221 243.367 971.221 244.5C971.221 245.633 970.968 246.633 970.461 247.5C969.968 248.353 969.295 249.013 968.441 249.48C967.588 249.947 966.641 250.18 965.601 250.18ZM965.601 248.58C966.255 248.58 966.868 248.427 967.441 248.12C968.015 247.813 968.475 247.353 968.821 246.74C969.181 246.127 969.361 245.38 969.361 244.5C969.361 243.62 969.188 242.873 968.841 242.26C968.495 241.647 968.041 241.193 967.481 240.9C966.921 240.593 966.315 240.44 965.661 240.44C964.995 240.44 964.381 240.593 963.821 240.9C963.275 241.193 962.835 241.647 962.501 242.26C962.168 242.873 962.001 243.62 962.001 244.5C962.001 245.393 962.161 246.147 962.481 246.76C962.815 247.373 963.255 247.833 963.801 248.14C964.348 248.433 964.948 248.58 965.601 248.58ZM978.954 238.84C980.288 238.84 981.368 239.247 982.194 240.06C983.021 240.86 983.434 242.02 983.434 243.54V250H981.634V243.8C981.634 242.707 981.361 241.873 980.814 241.3C980.268 240.713 979.521 240.42 978.574 240.42C977.614 240.42 976.848 240.72 976.274 241.32C975.714 241.92 975.434 242.793 975.434 243.94V250H973.614V239.04H975.434V240.6C975.794 240.04 976.281 239.607 976.894 239.3C977.521 238.993 978.208 238.84 978.954 238.84ZM988.627 240.54V247C988.627 247.533 988.741 247.913 988.967 248.14C989.194 248.353 989.587 248.46 990.147 248.46H991.487V250H989.847C988.834 250 988.074 249.767 987.567 249.3C987.061 248.833 986.807 248.067 986.807 247V240.54H985.387V239.04H986.807V236.28H988.627V239.04H991.487V240.54H988.627ZM999.132 238.84C999.959 238.84 1000.71 239.02 1001.37 239.38C1002.04 239.727 1002.56 240.253 1002.93 240.96C1003.32 241.667 1003.51 242.527 1003.51 243.54V250H1001.71V243.8C1001.71 242.707 1001.44 241.873 1000.89 241.3C1000.35 240.713 999.599 240.42 998.652 240.42C997.692 240.42 996.926 240.72 996.352 241.32C995.792 241.92 995.512 242.793 995.512 243.94V250H993.692V235.2H995.512V240.6C995.872 240.04 996.366 239.607 996.992 239.3C997.632 238.993 998.346 238.84 999.132 238.84Z" fill="#DFDFDD"/>
<path d="M355.169 235.712C354.753 235.712 354.401 235.568 354.113 235.28C353.841 234.992 353.705 234.64 353.705 234.224C353.705 233.808 353.841 233.456 354.113 233.168C354.401 232.88 354.753 232.736 355.169 232.736C355.585 232.736 355.929 232.88 356.201 233.168C356.489 233.456 356.633 233.808 356.633 234.224C356.633 234.64 356.489 234.992 356.201 235.28C355.929 235.568 355.585 235.712 355.169 235.712ZM356.249 253.856C356.249 255.024 355.953 255.88 355.361 256.424C354.769 256.968 353.905 257.24 352.769 257.24H351.497V255.392H352.409C353.017 255.392 353.441 255.272 353.681 255.032C353.937 254.792 354.065 254.384 354.065 253.808V237.848H356.249V253.856ZM371.61 237.848V251H369.426V249.056C369.01 249.728 368.426 250.256 367.674 250.64C366.938 251.008 366.122 251.192 365.226 251.192C364.202 251.192 363.282 250.984 362.466 250.568C361.65 250.136 361.002 249.496 360.522 248.648C360.058 247.8 359.826 246.768 359.826 245.552V237.848H361.986V245.264C361.986 246.56 362.314 247.56 362.97 248.264C363.626 248.952 364.522 249.296 365.658 249.296C366.826 249.296 367.746 248.936 368.418 248.216C369.09 247.496 369.426 246.448 369.426 245.072V237.848H371.61ZM381.705 237.608C383.305 237.608 384.601 238.096 385.593 239.072C386.585 240.032 387.081 241.424 387.081 243.248V251H384.921V243.56C384.921 242.248 384.593 241.248 383.937 240.56C383.281 239.856 382.385 239.504 381.249 239.504C380.097 239.504 379.177 239.864 378.489 240.584C377.817 241.304 377.481 242.352 377.481 243.728V251H375.297V237.848H377.481V239.72C377.913 239.048 378.497 238.528 379.233 238.16C379.985 237.792 380.809 237.608 381.705 237.608ZM402.649 243.92C402.649 244.336 402.625 244.776 402.577 245.24H392.065C392.145 246.536 392.585 247.552 393.385 248.288C394.201 249.008 395.185 249.368 396.337 249.368C397.281 249.368 398.065 249.152 398.689 248.72C399.329 248.272 399.777 247.68 400.033 246.944H402.385C402.033 248.208 401.329 249.24 400.273 250.04C399.217 250.824 397.905 251.216 396.337 251.216C395.089 251.216 393.969 250.936 392.977 250.376C392.001 249.816 391.233 249.024 390.673 248C390.113 246.96 389.833 245.76 389.833 244.4C389.833 243.04 390.105 241.848 390.649 240.824C391.193 239.8 391.953 239.016 392.929 238.472C393.921 237.912 395.057 237.632 396.337 237.632C397.585 237.632 398.689 237.904 399.649 238.448C400.609 238.992 401.345 239.744 401.857 240.704C402.385 241.648 402.649 242.72 402.649 243.92ZM400.393 243.464C400.393 242.632 400.209 241.92 399.841 241.328C399.473 240.72 398.969 240.264 398.329 239.96C397.705 239.64 397.009 239.48 396.241 239.48C395.137 239.48 394.193 239.832 393.409 240.536C392.641 241.24 392.201 242.216 392.089 243.464H400.393ZM411.306 249.248C413.338 247.616 414.93 246.28 416.082 245.24C417.234 244.184 418.202 243.088 418.986 241.952C419.786 240.8 420.186 239.672 420.186 238.568C420.186 237.528 419.93 236.712 419.418 236.12C418.922 235.512 418.114 235.208 416.994 235.208C415.906 235.208 415.058 235.552 414.45 236.24C413.858 236.912 413.538 237.816 413.49 238.952H411.378C411.442 237.16 411.986 235.776 413.01 234.8C414.034 233.824 415.354 233.336 416.97 233.336C418.618 233.336 419.922 233.792 420.882 234.704C421.858 235.616 422.346 236.872 422.346 238.472C422.346 239.8 421.946 241.096 421.146 242.36C420.362 243.608 419.466 244.712 418.458 245.672C417.45 246.616 416.162 247.72 414.594 248.984H422.85V250.808H411.306V249.248ZM425.375 242.144C425.375 239.392 425.823 237.248 426.719 235.712C427.615 234.16 429.183 233.384 431.423 233.384C433.647 233.384 435.207 234.16 436.103 235.712C436.999 237.248 437.447 239.392 437.447 242.144C437.447 244.944 436.999 247.12 436.103 248.672C435.207 250.224 433.647 251 431.423 251C429.183 251 427.615 250.224 426.719 248.672C425.823 247.12 425.375 244.944 425.375 242.144ZM435.287 242.144C435.287 240.752 435.191 239.576 434.999 238.616C434.823 237.64 434.447 236.856 433.871 236.264C433.311 235.672 432.495 235.376 431.423 235.376C430.335 235.376 429.503 235.672 428.927 236.264C428.367 236.856 427.991 237.64 427.799 238.616C427.623 239.576 427.535 240.752 427.535 242.144C427.535 243.584 427.623 244.792 427.799 245.768C427.991 246.744 428.367 247.528 428.927 248.12C429.503 248.712 430.335 249.008 431.423 249.008C432.495 249.008 433.311 248.712 433.871 248.12C434.447 247.528 434.823 246.744 434.999 245.768C435.191 244.792 435.287 243.584 435.287 242.144ZM440.181 249.248C442.213 247.616 443.805 246.28 444.957 245.24C446.109 244.184 447.077 243.088 447.861 241.952C448.661 240.8 449.061 239.672 449.061 238.568C449.061 237.528 448.805 236.712 448.293 236.12C447.797 235.512 446.989 235.208 445.869 235.208C444.781 235.208 443.933 235.552 443.325 236.24C442.733 236.912 442.413 237.816 442.365 238.952H440.253C440.317 237.16 440.861 235.776 441.885 234.8C442.909 233.824 444.229 233.336 445.845 233.336C447.493 233.336 448.797 233.792 449.757 234.704C450.733 235.616 451.221 236.872 451.221 238.472C451.221 239.8 450.821 241.096 450.021 242.36C449.237 243.608 448.341 244.712 447.333 245.672C446.325 246.616 445.037 247.72 443.469 248.984H451.725V250.808H440.181V249.248ZM453.722 247.136V245.48L462.146 233.816H464.762V245.24H467.162V247.136H464.762V251H462.602V247.136H453.722ZM462.698 236.096L456.242 245.24H462.698V236.096Z" fill="#252323"/>
<path d="M354.036 486.54C355.729 485.18 357.056 484.067 358.016 483.2C358.976 482.32 359.782 481.407 360.436 480.46C361.102 479.5 361.436 478.56 361.436 477.64C361.436 476.773 361.222 476.093 360.796 475.6C360.382 475.093 359.709 474.84 358.776 474.84C357.869 474.84 357.162 475.127 356.656 475.7C356.162 476.26 355.896 477.013 355.856 477.96H354.096C354.149 476.467 354.602 475.313 355.456 474.5C356.309 473.687 357.409 473.28 358.756 473.28C360.129 473.28 361.216 473.66 362.016 474.42C362.829 475.18 363.236 476.227 363.236 477.56C363.236 478.667 362.902 479.747 362.236 480.8C361.582 481.84 360.836 482.76 359.996 483.56C359.156 484.347 358.082 485.267 356.776 486.32H363.656V487.84H354.036V486.54ZM365.76 480.62C365.76 478.327 366.133 476.54 366.88 475.26C367.626 473.967 368.933 473.32 370.8 473.32C372.653 473.32 373.953 473.967 374.7 475.26C375.446 476.54 375.82 478.327 375.82 480.62C375.82 482.953 375.446 484.767 374.7 486.06C373.953 487.353 372.653 488 370.8 488C368.933 488 367.626 487.353 366.88 486.06C366.133 484.767 365.76 482.953 365.76 480.62ZM374.02 480.62C374.02 479.46 373.94 478.48 373.78 477.68C373.633 476.867 373.32 476.213 372.84 475.72C372.373 475.227 371.693 474.98 370.8 474.98C369.893 474.98 369.2 475.227 368.72 475.72C368.253 476.213 367.94 476.867 367.78 477.68C367.633 478.48 367.56 479.46 367.56 480.62C367.56 481.82 367.633 482.827 367.78 483.64C367.94 484.453 368.253 485.107 368.72 485.6C369.2 486.093 369.893 486.34 370.8 486.34C371.693 486.34 372.373 486.093 372.84 485.6C373.32 485.107 373.633 484.453 373.78 483.64C373.94 482.827 374.02 481.82 374.02 480.62ZM378.318 480.62C378.318 478.327 378.691 476.54 379.438 475.26C380.185 473.967 381.491 473.32 383.358 473.32C385.211 473.32 386.511 473.967 387.258 475.26C388.005 476.54 388.378 478.327 388.378 480.62C388.378 482.953 388.005 484.767 387.258 486.06C386.511 487.353 385.211 488 383.358 488C381.491 488 380.185 487.353 379.438 486.06C378.691 484.767 378.318 482.953 378.318 480.62ZM386.578 480.62C386.578 479.46 386.498 478.48 386.338 477.68C386.191 476.867 385.878 476.213 385.398 475.72C384.931 475.227 384.251 474.98 383.358 474.98C382.451 474.98 381.758 475.227 381.278 475.72C380.811 476.213 380.498 476.867 380.338 477.68C380.191 478.48 380.118 479.46 380.118 480.62C380.118 481.82 380.191 482.827 380.338 483.64C380.498 484.453 380.811 485.107 381.278 485.6C381.758 486.093 382.451 486.34 383.358 486.34C384.251 486.34 384.931 486.093 385.398 485.6C385.878 485.107 386.191 484.453 386.338 483.64C386.498 482.827 386.578 481.82 386.578 480.62ZM404.109 479.9V481.44H396.129V479.9H404.109Z" fill="#323DB3"/>
<path d="M406 325H1117" stroke="#DFDFDD" stroke-dasharray="4 4"/>
<path d="M407 533H1118" stroke="#DFDFDD" stroke-dasharray="4 4"/>
<path d="M407 429H1118" stroke="#DFDFDD" stroke-dasharray="4 4"/>
<path d="M407 377H1118" stroke="#DFDFDD" stroke-dasharray="4 4"/>
<path d="M406 481H1117" stroke="#DFDFDD" stroke-dasharray="4 4"/>
<path d="M552.612 552.06V553.54H548.812V566H546.992V553.54H543.172V552.06H552.612ZM564.573 555.04V566H562.753V564.38C562.406 564.94 561.919 565.38 561.293 565.7C560.679 566.007 559.999 566.16 559.253 566.16C558.399 566.16 557.633 565.987 556.953 565.64C556.273 565.28 555.733 564.747 555.333 564.04C554.946 563.333 554.753 562.473 554.753 561.46V555.04H556.553V561.22C556.553 562.3 556.826 563.133 557.373 563.72C557.919 564.293 558.666 564.58 559.613 564.58C560.586 564.58 561.353 564.28 561.913 563.68C562.473 563.08 562.753 562.207 562.753 561.06V555.04H564.573ZM577.645 560.1C577.645 560.447 577.625 560.813 577.585 561.2H568.825C568.892 562.28 569.259 563.127 569.925 563.74C570.605 564.34 571.425 564.64 572.385 564.64C573.172 564.64 573.825 564.46 574.345 564.1C574.879 563.727 575.252 563.233 575.465 562.62H577.425C577.132 563.673 576.545 564.533 575.665 565.2C574.785 565.853 573.692 566.18 572.385 566.18C571.345 566.18 570.412 565.947 569.585 565.48C568.772 565.013 568.132 564.353 567.665 563.5C567.199 562.633 566.965 561.633 566.965 560.5C566.965 559.367 567.192 558.373 567.645 557.52C568.099 556.667 568.732 556.013 569.545 555.56C570.372 555.093 571.319 554.86 572.385 554.86C573.425 554.86 574.345 555.087 575.145 555.54C575.945 555.993 576.559 556.62 576.985 557.42C577.425 558.207 577.645 559.1 577.645 560.1ZM575.765 559.72C575.765 559.027 575.612 558.433 575.305 557.94C574.999 557.433 574.579 557.053 574.045 556.8C573.525 556.533 572.945 556.4 572.305 556.4C571.385 556.4 570.599 556.693 569.945 557.28C569.305 557.867 568.939 558.68 568.845 559.72H575.765Z" fill="#323DB3"/>
<path d="M653.345 552.06L649.305 566H647.265L644.025 554.78L640.665 566L638.645 566.02L634.745 552.06H636.685L639.725 563.88L643.085 552.06H645.125L648.325 563.84L651.385 552.06H653.345ZM665.337 560.1C665.337 560.447 665.317 560.813 665.277 561.2H656.517C656.584 562.28 656.95 563.127 657.617 563.74C658.297 564.34 659.117 564.64 660.077 564.64C660.864 564.64 661.517 564.46 662.037 564.1C662.57 563.727 662.944 563.233 663.157 562.62H665.117C664.824 563.673 664.237 564.533 663.357 565.2C662.477 565.853 661.384 566.18 660.077 566.18C659.037 566.18 658.104 565.947 657.277 565.48C656.464 565.013 655.824 564.353 655.357 563.5C654.89 562.633 654.657 561.633 654.657 560.5C654.657 559.367 654.884 558.373 655.337 557.52C655.79 556.667 656.424 556.013 657.237 555.56C658.064 555.093 659.01 554.86 660.077 554.86C661.117 554.86 662.037 555.087 662.837 555.54C663.637 555.993 664.25 556.62 664.677 557.42C665.117 558.207 665.337 559.1 665.337 560.1ZM663.457 559.72C663.457 559.027 663.304 558.433 662.997 557.94C662.69 557.433 662.27 557.053 661.737 556.8C661.217 556.533 660.637 556.4 659.997 556.4C659.077 556.4 658.29 556.693 657.637 557.28C656.997 557.867 656.63 558.68 656.537 559.72H663.457ZM667.059 560.48C667.059 559.36 667.286 558.38 667.739 557.54C668.193 556.687 668.813 556.027 669.599 555.56C670.399 555.093 671.293 554.86 672.279 554.86C673.133 554.86 673.926 555.06 674.659 555.46C675.393 555.847 675.953 556.36 676.339 557V551.2H678.179V566H676.339V563.94C675.979 564.593 675.446 565.133 674.739 565.56C674.033 565.973 673.206 566.18 672.259 566.18C671.286 566.18 670.399 565.94 669.599 565.46C668.813 564.98 668.193 564.307 667.739 563.44C667.286 562.573 667.059 561.587 667.059 560.48ZM676.339 560.5C676.339 559.673 676.173 558.953 675.839 558.34C675.506 557.727 675.053 557.26 674.479 556.94C673.919 556.607 673.299 556.44 672.619 556.44C671.939 556.44 671.319 556.6 670.759 556.92C670.199 557.24 669.753 557.707 669.419 558.32C669.086 558.933 668.919 559.653 668.919 560.48C668.919 561.32 669.086 562.053 669.419 562.68C669.753 563.293 670.199 563.767 670.759 564.1C671.319 564.42 671.939 564.58 672.619 564.58C673.299 564.58 673.919 564.42 674.479 564.1C675.053 563.767 675.506 563.293 675.839 562.68C676.173 562.053 676.339 561.327 676.339 560.5Z" fill="#323DB3"/>
<path d="M745.417 552.06V553.54H741.617V566H739.797V553.54H735.977V552.06H745.417ZM753.097 554.84C753.924 554.84 754.671 555.02 755.337 555.38C756.004 555.727 756.524 556.253 756.897 556.96C757.284 557.667 757.477 558.527 757.477 559.54V566H755.677V559.8C755.677 558.707 755.404 557.873 754.857 557.3C754.311 556.713 753.564 556.42 752.617 556.42C751.657 556.42 750.891 556.72 750.317 557.32C749.757 557.92 749.477 558.793 749.477 559.94V566H747.657V551.2H749.477V556.6C749.837 556.04 750.331 555.607 750.957 555.3C751.597 554.993 752.311 554.84 753.097 554.84ZM770.17 555.04V566H768.35V564.38C768.003 564.94 767.517 565.38 766.89 565.7C766.277 566.007 765.597 566.16 764.85 566.16C763.997 566.16 763.23 565.987 762.55 565.64C761.87 565.28 761.33 564.747 760.93 564.04C760.543 563.333 760.35 562.473 760.35 561.46V555.04H762.15V561.22C762.15 562.3 762.423 563.133 762.97 563.72C763.517 564.293 764.263 564.58 765.21 564.58C766.183 564.58 766.95 564.28 767.51 563.68C768.07 563.08 768.35 562.207 768.35 561.06V555.04H770.17Z" fill="#323DB3"/>
<path d="M836.69 552.06V553.54H830.63V558.24H835.55V559.72H830.63V566H828.81V552.06H836.69ZM840.708 556.82C841.028 556.193 841.481 555.707 842.068 555.36C842.668 555.013 843.394 554.84 844.248 554.84V556.72H843.768C841.728 556.72 840.708 557.827 840.708 560.04V566H838.888V555.04H840.708V556.82ZM847.289 553.26C846.942 553.26 846.649 553.14 846.409 552.9C846.169 552.66 846.049 552.367 846.049 552.02C846.049 551.673 846.169 551.38 846.409 551.14C846.649 550.9 846.942 550.78 847.289 550.78C847.622 550.78 847.902 550.9 848.129 551.14C848.369 551.38 848.489 551.673 848.489 552.02C848.489 552.367 848.369 552.66 848.129 552.9C847.902 553.14 847.622 553.26 847.289 553.26ZM848.169 555.04V566H846.349V555.04H848.169Z" fill="#323DB3"/>
<path d="M911.052 566.14C910.132 566.14 909.305 565.98 908.572 565.66C907.852 565.327 907.285 564.873 906.872 564.3C906.458 563.713 906.245 563.04 906.232 562.28H908.172C908.238 562.933 908.505 563.487 908.972 563.94C909.452 564.38 910.145 564.6 911.052 564.6C911.918 564.6 912.598 564.387 913.092 563.96C913.598 563.52 913.852 562.96 913.852 562.28C913.852 561.747 913.705 561.313 913.412 560.98C913.118 560.647 912.752 560.393 912.312 560.22C911.872 560.047 911.278 559.86 910.532 559.66C909.612 559.42 908.872 559.18 908.312 558.94C907.765 558.7 907.292 558.327 906.892 557.82C906.505 557.3 906.312 556.607 906.312 555.74C906.312 554.98 906.505 554.307 906.892 553.72C907.278 553.133 907.818 552.68 908.512 552.36C909.218 552.04 910.025 551.88 910.932 551.88C912.238 551.88 913.305 552.207 914.132 552.86C914.972 553.513 915.445 554.38 915.552 555.46H913.552C913.485 554.927 913.205 554.46 912.712 554.06C912.218 553.647 911.565 553.44 910.752 553.44C909.992 553.44 909.372 553.64 908.892 554.04C908.412 554.427 908.172 554.973 908.172 555.68C908.172 556.187 908.312 556.6 908.592 556.92C908.885 557.24 909.238 557.487 909.652 557.66C910.078 557.82 910.672 558.007 911.432 558.22C912.352 558.473 913.092 558.727 913.652 558.98C914.212 559.22 914.692 559.6 915.092 560.12C915.492 560.627 915.692 561.32 915.692 562.2C915.692 562.88 915.512 563.52 915.152 564.12C914.792 564.72 914.258 565.207 913.552 565.58C912.845 565.953 912.012 566.14 911.052 566.14ZM928.09 555.04V566H926.27V564.38C925.923 564.94 925.437 565.38 924.81 565.7C924.197 566.007 923.517 566.16 922.77 566.16C921.917 566.16 921.15 565.987 920.47 565.64C919.79 565.28 919.25 564.747 918.85 564.04C918.463 563.333 918.27 562.473 918.27 561.46V555.04H920.07V561.22C920.07 562.3 920.343 563.133 920.89 563.72C921.437 564.293 922.183 564.58 923.13 564.58C924.103 564.58 924.87 564.28 925.43 563.68C925.99 563.08 926.27 562.207 926.27 561.06V555.04H928.09ZM933.383 556.54V563C933.383 563.533 933.496 563.913 933.723 564.14C933.95 564.353 934.343 564.46 934.903 564.46H936.243V566H934.603C933.59 566 932.83 565.767 932.323 565.3C931.816 564.833 931.563 564.067 931.563 563V556.54H930.143V555.04H931.563V552.28H933.383V555.04H936.243V556.54H933.383Z" fill="#323DB3"/>
<path d="M998.298 566.14C997.378 566.14 996.551 565.98 995.818 565.66C995.098 565.327 994.531 564.873 994.118 564.3C993.705 563.713 993.491 563.04 993.478 562.28H995.418C995.485 562.933 995.751 563.487 996.218 563.94C996.698 564.38 997.391 564.6 998.298 564.6C999.165 564.6 999.845 564.387 1000.34 563.96C1000.84 563.52 1001.1 562.96 1001.1 562.28C1001.1 561.747 1000.95 561.313 1000.66 560.98C1000.36 560.647 999.998 560.393 999.558 560.22C999.118 560.047 998.525 559.86 997.778 559.66C996.858 559.42 996.118 559.18 995.558 558.94C995.011 558.7 994.538 558.327 994.138 557.82C993.751 557.3 993.558 556.607 993.558 555.74C993.558 554.98 993.751 554.307 994.138 553.72C994.525 553.133 995.065 552.68 995.758 552.36C996.465 552.04 997.271 551.88 998.178 551.88C999.485 551.88 1000.55 552.207 1001.38 552.86C1002.22 553.513 1002.69 554.38 1002.8 555.46H1000.8C1000.73 554.927 1000.45 554.46 999.958 554.06C999.465 553.647 998.811 553.44 997.998 553.44C997.238 553.44 996.618 553.64 996.138 554.04C995.658 554.427 995.418 554.973 995.418 555.68C995.418 556.187 995.558 556.6 995.838 556.92C996.131 557.24 996.485 557.487 996.898 557.66C997.325 557.82 997.918 558.007 998.678 558.22C999.598 558.473 1000.34 558.727 1000.9 558.98C1001.46 559.22 1001.94 559.6 1002.34 560.12C1002.74 560.627 1002.94 561.32 1002.94 562.2C1002.94 562.88 1002.76 563.52 1002.4 564.12C1002.04 564.72 1001.5 565.207 1000.8 565.58C1000.09 565.953 999.258 566.14 998.298 566.14ZM1015.34 555.04V566H1013.52V564.38C1013.17 564.94 1012.68 565.38 1012.06 565.7C1011.44 566.007 1010.76 566.16 1010.02 566.16C1009.16 566.16 1008.4 565.987 1007.72 565.64C1007.04 565.28 1006.5 564.747 1006.1 564.04C1005.71 563.333 1005.52 562.473 1005.52 561.46V555.04H1007.32V561.22C1007.32 562.3 1007.59 563.133 1008.14 563.72C1008.68 564.293 1009.43 564.58 1010.38 564.58C1011.35 564.58 1012.12 564.28 1012.68 563.68C1013.24 563.08 1013.52 562.207 1013.52 561.06V555.04H1015.34ZM1023.75 554.84C1025.08 554.84 1026.16 555.247 1026.99 556.06C1027.82 556.86 1028.23 558.02 1028.23 559.54V566H1026.43V559.8C1026.43 558.707 1026.16 557.873 1025.61 557.3C1025.06 556.713 1024.32 556.42 1023.37 556.42C1022.41 556.42 1021.64 556.72 1021.07 557.32C1020.51 557.92 1020.23 558.793 1020.23 559.94V566H1018.41V555.04H1020.23V556.6C1020.59 556.04 1021.08 555.607 1021.69 555.3C1022.32 554.993 1023 554.84 1023.75 554.84Z" fill="#323DB3"/>
<path d="M923.9 535.368H925.44V543.348H923.9V535.368Z" fill="#323DB3"/>
<path d="M1009.9 535.368H1011.44V543.348H1009.9V535.368Z" fill="#323DB3"/>
<path d="M466.9 536.368H468.44V544.348H466.9V536.368Z" fill="#323DB3"/>
<path d="M839.9 535.368H841.44V543.348H839.9V535.368Z" fill="#323DB3"/>
<path d="M752.9 535.368H754.44V543.348H752.9V535.368Z" fill="#323DB3"/>
<path d="M658.9 536.368H660.44V544.348H658.9V536.368Z" fill="#323DB3"/>
<path d="M558.9 536.368H560.44V544.348H558.9V536.368Z" fill="#323DB3"/>
<rect x="448" y="431" width="40" height="101" rx="5" fill="url(#paint4_linear_195_292)"/>
<rect x="990" y="334" width="40" height="196" rx="5" fill="url(#paint5_linear_195_292)"/>
<rect x="905" y="355" width="40" height="176" rx="5" fill="url(#paint6_linear_195_292)"/>
<rect x="821" y="403" width="40" height="129" rx="5" fill="url(#paint7_linear_195_292)"/>
<rect x="734" y="395" width="40" height="138" rx="5" fill="url(#paint8_linear_195_292)"/>
<rect x="640" y="383" width="40" height="150" rx="5" fill="url(#paint9_linear_195_292)"/>
<rect x="538" y="393" width="40" height="138" rx="5" fill="url(#paint10_linear_195_292)"/>
<path d="M493.28 242.547L488.68 247.367L484.1 242.547V240.247L488.68 245.087L493.28 240.247V242.547Z" fill="black"/>
<g filter="url(#filter0_d_195_292)">
<path d="M452.188 507.726C510.525 353.219 514.588 552.766 577.621 459.211" stroke="#3F4BC9" stroke-width="4" stroke-linecap="round"/>
<path d="M647.366 468.614C663.326 567.014 727.496 177.074 768.943 407.952" stroke="#3F4BC9" stroke-width="4" stroke-linecap="round"/>
<path d="M768.899 408.514C819.882 523.011 814.156 300.591 896.39 374.807" stroke="#3F4BC9" stroke-width="4" stroke-linecap="round"/>
<path d="M897.067 375.653C953.462 474.319 960.378 271.177 1025.81 352.577" stroke="#3F4BC9" stroke-width="4" stroke-linecap="round"/>
<path d="M578.055 457.283C596.929 405.103 628.36 412.362 648.738 473.607" stroke="#3F4BC9" stroke-width="4" stroke-linecap="round"/>
</g>
<circle cx="738" cy="332" r="8.5" fill="#323DB3" stroke="#DFDFDD" stroke-width="3"/>
<circle cx="797.034" cy="624" r="10" transform="rotate(179.803 797.034 624)" fill="url(#paint11_linear_195_292)"/>
<circle cx="568" cy="622" r="8.5" fill="#323DB3" stroke="#323DB3" stroke-width="3"/>
<g filter="url(#filter1_d_195_292)">
<path d="M717.997 258.291C712.476 258.427 708.083 263.013 708.185 268.535L708.471 283.948C708.573 289.47 713.132 293.836 718.653 293.701L734.348 293.314C735.327 293.29 736.259 293.722 736.87 294.484V294.484C738.163 296.094 740.638 296.033 741.87 294.361V294.361C742.453 293.57 743.368 293.092 744.348 293.068L758.641 292.717C764.162 292.581 768.555 287.994 768.453 282.472L768.167 267.059C768.065 261.537 763.506 257.171 757.985 257.307L717.997 258.291Z" fill="#9D8DFE"/>
<path d="M708.685 268.523L708.971 283.936C709.068 289.182 713.399 293.33 718.644 293.201L734.338 292.814C735.473 292.786 736.553 293.287 737.261 294.169C738.349 295.525 740.432 295.473 741.469 294.066C742.144 293.15 743.204 292.596 744.338 292.568L758.632 292.217C763.877 292.088 768.05 287.73 767.953 282.485L767.667 267.072C767.57 261.826 763.239 257.678 757.994 257.807L718.006 258.791C712.761 258.92 708.588 263.277 708.685 268.523Z" stroke="#9D8DFE"/>
</g>
<path d="M733.92 269.54V270.61C733.92 270.93 733.887 271.19 733.82 271.39C733.753 271.583 733.687 271.747 733.62 271.88L728.14 283.16C728.027 283.393 727.867 283.593 727.66 283.76C727.453 283.92 727.177 284 726.83 284H725.04L730.63 272.95C730.757 272.723 730.88 272.517 731 272.33C731.127 272.137 731.267 271.953 731.42 271.78H724.5C724.347 271.78 724.213 271.723 724.1 271.61C723.987 271.497 723.93 271.363 723.93 271.21V269.54H733.92ZM737.902 273.88C737.902 274.687 738.108 275.303 738.522 275.73C738.942 276.15 739.535 276.36 740.302 276.36C740.702 276.36 741.058 276.297 741.372 276.17C741.685 276.043 741.948 275.87 742.162 275.65C742.375 275.43 742.535 275.17 742.642 274.87C742.755 274.57 742.812 274.247 742.812 273.9C742.812 273.507 742.752 273.157 742.632 272.85C742.512 272.537 742.342 272.273 742.122 272.06C741.902 271.847 741.638 271.683 741.332 271.57C741.032 271.457 740.702 271.4 740.342 271.4C739.968 271.4 739.632 271.463 739.332 271.59C739.032 271.71 738.775 271.88 738.562 272.1C738.348 272.32 738.185 272.583 738.072 272.89C737.958 273.19 737.902 273.52 737.902 273.88ZM741.182 278.39C741.295 278.25 741.402 278.113 741.502 277.98C741.602 277.847 741.698 277.713 741.792 277.58C741.458 277.793 741.092 277.957 740.692 278.07C740.292 278.177 739.872 278.23 739.432 278.23C738.932 278.23 738.442 278.143 737.962 277.97C737.482 277.797 737.055 277.537 736.682 277.19C736.308 276.837 736.005 276.403 735.772 275.89C735.545 275.37 735.432 274.763 735.432 274.07C735.432 273.423 735.552 272.817 735.792 272.25C736.032 271.683 736.368 271.187 736.802 270.76C737.235 270.333 737.755 269.997 738.362 269.75C738.968 269.503 739.638 269.38 740.372 269.38C741.112 269.38 741.775 269.497 742.362 269.73C742.955 269.963 743.458 270.29 743.872 270.71C744.292 271.13 744.612 271.633 744.832 272.22C745.058 272.807 745.172 273.45 745.172 274.15C745.172 274.597 745.132 275.02 745.052 275.42C744.978 275.82 744.872 276.207 744.732 276.58C744.592 276.947 744.422 277.307 744.222 277.66C744.022 278.013 743.798 278.363 743.552 278.71L740.242 283.43C740.128 283.59 739.958 283.727 739.732 283.84C739.505 283.947 739.248 284 738.962 284H736.692L741.182 278.39ZM757.303 276.77C757.303 278.03 757.166 279.127 756.893 280.06C756.626 280.987 756.253 281.753 755.773 282.36C755.3 282.967 754.736 283.42 754.083 283.72C753.436 284.013 752.736 284.16 751.983 284.16C751.23 284.16 750.53 284.013 749.883 283.72C749.243 283.42 748.686 282.967 748.213 282.36C747.74 281.753 747.37 280.987 747.103 280.06C746.836 279.127 746.703 278.03 746.703 276.77C746.703 275.503 746.836 274.407 747.103 273.48C747.37 272.553 747.74 271.787 748.213 271.18C748.686 270.573 749.243 270.123 749.883 269.83C750.53 269.53 751.23 269.38 751.983 269.38C752.736 269.38 753.436 269.53 754.083 269.83C754.736 270.123 755.3 270.573 755.773 271.18C756.253 271.787 756.626 272.553 756.893 273.48C757.166 274.407 757.303 275.503 757.303 276.77ZM754.753 276.77C754.753 275.723 754.676 274.857 754.523 274.17C754.37 273.483 754.163 272.937 753.903 272.53C753.65 272.123 753.356 271.84 753.023 271.68C752.69 271.513 752.343 271.43 751.983 271.43C751.63 271.43 751.286 271.513 750.953 271.68C750.626 271.84 750.336 272.123 750.083 272.53C749.83 272.937 749.626 273.483 749.473 274.17C749.326 274.857 749.253 275.723 749.253 276.77C749.253 277.817 749.326 278.683 749.473 279.37C749.626 280.057 749.83 280.603 750.083 281.01C750.336 281.417 750.626 281.703 750.953 281.87C751.286 282.03 751.63 282.11 751.983 282.11C752.343 282.11 752.69 282.03 753.023 281.87C753.356 281.703 753.65 281.417 753.903 281.01C754.163 280.603 754.37 280.057 754.523 279.37C754.676 278.683 754.753 277.817 754.753 276.77Z" fill="white"/>
<path d="M595.59 616.545V617.655H592.74V627H591.375V617.655H588.51V616.545H595.59ZM600.855 627.135C600.085 627.135 599.385 626.96 598.755 626.61C598.135 626.26 597.645 625.765 597.285 625.125C596.935 624.475 596.76 623.725 596.76 622.875C596.76 622.035 596.94 621.295 597.3 620.655C597.67 620.005 598.17 619.51 598.8 619.17C599.43 618.82 600.135 618.645 600.915 618.645C601.695 618.645 602.4 618.82 603.03 619.17C603.66 619.51 604.155 620 604.515 620.64C604.885 621.28 605.07 622.025 605.07 622.875C605.07 623.725 604.88 624.475 604.5 625.125C604.13 625.765 603.625 626.26 602.985 626.61C602.345 626.96 601.635 627.135 600.855 627.135ZM600.855 625.935C601.345 625.935 601.805 625.82 602.235 625.59C602.665 625.36 603.01 625.015 603.27 624.555C603.54 624.095 603.675 623.535 603.675 622.875C603.675 622.215 603.545 621.655 603.285 621.195C603.025 620.735 602.685 620.395 602.265 620.175C601.845 619.945 601.39 619.83 600.9 619.83C600.4 619.83 599.94 619.945 599.52 620.175C599.11 620.395 598.78 620.735 598.53 621.195C598.28 621.655 598.155 622.215 598.155 622.875C598.155 623.545 598.275 624.11 598.515 624.57C598.765 625.03 599.095 625.375 599.505 625.605C599.915 625.825 600.365 625.935 600.855 625.935ZM608.53 619.905V624.75C608.53 625.15 608.615 625.435 608.785 625.605C608.955 625.765 609.25 625.845 609.67 625.845H610.675V627H609.445C608.685 627 608.115 626.825 607.735 626.475C607.355 626.125 607.165 625.55 607.165 624.75V619.905H606.1V618.78H607.165V616.71H608.53V618.78H610.675V619.905H608.53ZM611.819 622.86C611.819 622.02 611.989 621.285 612.329 620.655C612.669 620.015 613.134 619.52 613.724 619.17C614.324 618.82 614.989 618.645 615.719 618.645C616.439 618.645 617.064 618.8 617.594 619.11C618.124 619.42 618.519 619.81 618.779 620.28V618.78H620.159V627H618.779V625.47C618.509 625.95 618.104 626.35 617.564 626.67C617.034 626.98 616.414 627.135 615.704 627.135C614.974 627.135 614.314 626.955 613.724 626.595C613.134 626.235 612.669 625.73 612.329 625.08C611.989 624.43 611.819 623.69 611.819 622.86ZM618.779 622.875C618.779 622.255 618.654 621.715 618.404 621.255C618.154 620.795 617.814 620.445 617.384 620.205C616.964 619.955 616.499 619.83 615.989 619.83C615.479 619.83 615.014 619.95 614.594 620.19C614.174 620.43 613.839 620.78 613.589 621.24C613.339 621.7 613.214 622.24 613.214 622.86C613.214 623.49 613.339 624.04 613.589 624.51C613.839 624.97 614.174 625.325 614.594 625.575C615.014 625.815 615.479 625.935 615.989 625.935C616.499 625.935 616.964 625.815 617.384 625.575C617.814 625.325 618.154 624.97 618.404 624.51C618.654 624.04 618.779 623.495 618.779 622.875ZM623.831 615.9V627H622.466V615.9H623.831ZM635.661 627L633.171 622.725H631.521V627H630.156V616.545H633.531C634.321 616.545 634.986 616.68 635.526 616.95C636.076 617.22 636.486 617.585 636.756 618.045C637.026 618.505 637.161 619.03 637.161 619.62C637.161 620.34 636.951 620.975 636.531 621.525C636.121 622.075 635.501 622.44 634.671 622.62L637.296 627H635.661ZM631.521 621.63H633.531C634.271 621.63 634.826 621.45 635.196 621.09C635.566 620.72 635.751 620.23 635.751 619.62C635.751 619 635.566 618.52 635.196 618.18C634.836 617.84 634.281 617.67 633.531 617.67H631.521V621.63ZM646.782 622.575C646.782 622.835 646.767 623.11 646.737 623.4H640.167C640.217 624.21 640.492 624.845 640.992 625.305C641.502 625.755 642.117 625.98 642.837 625.98C643.427 625.98 643.917 625.845 644.307 625.575C644.707 625.295 644.987 624.925 645.147 624.465H646.617C646.397 625.255 645.957 625.9 645.297 626.4C644.637 626.89 643.817 627.135 642.837 627.135C642.057 627.135 641.357 626.96 640.737 626.61C640.127 626.26 639.647 625.765 639.297 625.125C638.947 624.475 638.772 623.725 638.772 622.875C638.772 622.025 638.942 621.28 639.282 620.64C639.622 620 640.097 619.51 640.707 619.17C641.327 618.82 642.037 618.645 642.837 618.645C643.617 618.645 644.307 618.815 644.907 619.155C645.507 619.495 645.967 619.965 646.287 620.565C646.617 621.155 646.782 621.825 646.782 622.575ZM645.372 622.29C645.372 621.77 645.257 621.325 645.027 620.955C644.797 620.575 644.482 620.29 644.082 620.1C643.692 619.9 643.257 619.8 642.777 619.8C642.087 619.8 641.497 620.02 641.007 620.46C640.527 620.9 640.252 621.51 640.182 622.29H645.372ZM651.644 625.74L654.194 618.78H655.649L652.424 627H650.834L647.609 618.78H649.079L651.644 625.74ZM664.492 622.575C664.492 622.835 664.477 623.11 664.447 623.4H657.877C657.927 624.21 658.202 624.845 658.702 625.305C659.212 625.755 659.827 625.98 660.547 625.98C661.137 625.98 661.627 625.845 662.017 625.575C662.417 625.295 662.697 624.925 662.857 624.465H664.327C664.107 625.255 663.667 625.9 663.007 626.4C662.347 626.89 661.527 627.135 660.547 627.135C659.767 627.135 659.067 626.96 658.447 626.61C657.837 626.26 657.357 625.765 657.007 625.125C656.657 624.475 656.482 623.725 656.482 622.875C656.482 622.025 656.652 621.28 656.992 620.64C657.332 620 657.807 619.51 658.417 619.17C659.037 618.82 659.747 618.645 660.547 618.645C661.327 618.645 662.017 618.815 662.617 619.155C663.217 619.495 663.677 619.965 663.997 620.565C664.327 621.155 664.492 621.825 664.492 622.575ZM663.082 622.29C663.082 621.77 662.967 621.325 662.737 620.955C662.507 620.575 662.192 620.29 661.792 620.1C661.402 619.9 660.967 619.8 660.487 619.8C659.797 619.8 659.207 620.02 658.717 620.46C658.237 620.9 657.962 621.51 657.892 622.29H663.082ZM670.299 618.63C671.299 618.63 672.109 618.935 672.729 619.545C673.349 620.145 673.659 621.015 673.659 622.155V627H672.309V622.35C672.309 621.53 672.104 620.905 671.694 620.475C671.284 620.035 670.724 619.815 670.014 619.815C669.294 619.815 668.719 620.04 668.289 620.49C667.869 620.94 667.659 621.595 667.659 622.455V627H666.294V618.78H667.659V619.95C667.929 619.53 668.294 619.205 668.754 618.975C669.224 618.745 669.739 618.63 670.299 618.63ZM683.178 618.78V627H681.813V625.785C681.553 626.205 681.188 626.535 680.718 626.775C680.258 627.005 679.748 627.12 679.188 627.12C678.548 627.12 677.973 626.99 677.463 626.73C676.953 626.46 676.548 626.06 676.248 625.53C675.958 625 675.813 624.355 675.813 623.595V618.78H677.163V623.415C677.163 624.225 677.368 624.85 677.778 625.29C678.188 625.72 678.748 625.935 679.458 625.935C680.188 625.935 680.763 625.71 681.183 625.26C681.603 624.81 681.813 624.155 681.813 623.295V618.78H683.178ZM692.983 622.575C692.983 622.835 692.968 623.11 692.938 623.4H686.368C686.418 624.21 686.693 624.845 687.193 625.305C687.703 625.755 688.318 625.98 689.038 625.98C689.628 625.98 690.118 625.845 690.508 625.575C690.908 625.295 691.188 624.925 691.348 624.465H692.818C692.598 625.255 692.158 625.9 691.498 626.4C690.838 626.89 690.018 627.135 689.038 627.135C688.258 627.135 687.558 626.96 686.938 626.61C686.328 626.26 685.848 625.765 685.498 625.125C685.148 624.475 684.973 623.725 684.973 622.875C684.973 622.025 685.143 621.28 685.483 620.64C685.823 620 686.298 619.51 686.908 619.17C687.528 618.82 688.238 618.645 689.038 618.645C689.818 618.645 690.508 618.815 691.108 619.155C691.708 619.495 692.168 619.965 692.488 620.565C692.818 621.155 692.983 621.825 692.983 622.575ZM691.573 622.29C691.573 621.77 691.458 621.325 691.228 620.955C690.998 620.575 690.683 620.29 690.283 620.1C689.893 619.9 689.458 619.8 688.978 619.8C688.288 619.8 687.698 620.02 687.208 620.46C686.728 620.9 686.453 621.51 686.383 622.29H691.573Z" fill="black"/>
<path d="M824.624 616.545V617.655H821.774V627H820.409V617.655H817.544V616.545H824.624ZM833.594 618.78V627H832.229V625.785C831.969 626.205 831.604 626.535 831.134 626.775C830.674 627.005 830.164 627.12 829.604 627.12C828.964 627.12 828.389 626.99 827.879 626.73C827.369 626.46 826.964 626.06 826.664 625.53C826.374 625 826.229 624.355 826.229 623.595V618.78H827.579V623.415C827.579 624.225 827.784 624.85 828.194 625.29C828.604 625.72 829.164 625.935 829.874 625.935C830.604 625.935 831.179 625.71 831.599 625.26C832.019 624.81 832.229 624.155 832.229 623.295V618.78H833.594ZM837.264 620.115C837.504 619.645 837.844 619.28 838.284 619.02C838.734 618.76 839.279 618.63 839.919 618.63V620.04H839.559C838.029 620.04 837.264 620.87 837.264 622.53V627H835.899V618.78H837.264V620.115ZM845.5 618.63C846.5 618.63 847.31 618.935 847.93 619.545C848.55 620.145 848.86 621.015 848.86 622.155V627H847.51V622.35C847.51 621.53 847.305 620.905 846.895 620.475C846.485 620.035 845.925 619.815 845.215 619.815C844.495 619.815 843.92 620.04 843.49 620.49C843.07 620.94 842.86 621.595 842.86 622.455V627H841.495V618.78H842.86V619.95C843.13 619.53 843.495 619.205 843.955 618.975C844.425 618.745 844.94 618.63 845.5 618.63ZM854.675 627.135C853.905 627.135 853.205 626.96 852.575 626.61C851.955 626.26 851.465 625.765 851.105 625.125C850.755 624.475 850.58 623.725 850.58 622.875C850.58 622.035 850.76 621.295 851.12 620.655C851.49 620.005 851.99 619.51 852.62 619.17C853.25 618.82 853.955 618.645 854.735 618.645C855.515 618.645 856.22 618.82 856.85 619.17C857.48 619.51 857.975 620 858.335 620.64C858.705 621.28 858.89 622.025 858.89 622.875C858.89 623.725 858.7 624.475 858.32 625.125C857.95 625.765 857.445 626.26 856.805 626.61C856.165 626.96 855.455 627.135 854.675 627.135ZM854.675 625.935C855.165 625.935 855.625 625.82 856.055 625.59C856.485 625.36 856.83 625.015 857.09 624.555C857.36 624.095 857.495 623.535 857.495 622.875C857.495 622.215 857.365 621.655 857.105 621.195C856.845 620.735 856.505 620.395 856.085 620.175C855.665 619.945 855.21 619.83 854.72 619.83C854.22 619.83 853.76 619.945 853.34 620.175C852.93 620.395 852.6 620.735 852.35 621.195C852.1 621.655 851.975 622.215 851.975 622.875C851.975 623.545 852.095 624.11 852.335 624.57C852.585 625.03 852.915 625.375 853.325 625.605C853.735 625.825 854.185 625.935 854.675 625.935ZM863.744 625.74L866.294 618.78H867.749L864.524 627H862.934L859.709 618.78H861.179L863.744 625.74ZM876.593 622.575C876.593 622.835 876.578 623.11 876.548 623.4H869.978C870.028 624.21 870.303 624.845 870.803 625.305C871.313 625.755 871.928 625.98 872.648 625.98C873.238 625.98 873.728 625.845 874.118 625.575C874.518 625.295 874.798 624.925 874.958 624.465H876.428C876.208 625.255 875.768 625.9 875.108 626.4C874.448 626.89 873.628 627.135 872.648 627.135C871.868 627.135 871.168 626.96 870.548 626.61C869.938 626.26 869.458 625.765 869.108 625.125C868.758 624.475 868.583 623.725 868.583 622.875C868.583 622.025 868.753 621.28 869.093 620.64C869.433 620 869.908 619.51 870.518 619.17C871.138 618.82 871.848 618.645 872.648 618.645C873.428 618.645 874.118 618.815 874.718 619.155C875.318 619.495 875.778 619.965 876.098 620.565C876.428 621.155 876.593 621.825 876.593 622.575ZM875.183 622.29C875.183 621.77 875.068 621.325 874.838 620.955C874.608 620.575 874.293 620.29 873.893 620.1C873.503 619.9 873.068 619.8 872.588 619.8C871.898 619.8 871.308 620.02 870.818 620.46C870.338 620.9 870.063 621.51 869.993 622.29H875.183ZM879.759 620.115C879.999 619.645 880.339 619.28 880.779 619.02C881.229 618.76 881.774 618.63 882.414 618.63V620.04H882.054C880.524 620.04 879.759 620.87 879.759 622.53V627H878.394V618.78H879.759V620.115Z" fill="black"/>
<rect x="4" y="4" width="1123" height="516" rx="36" stroke="url(#paint12_linear_195_292)" stroke-width="8"/>
<circle cx="1046" cy="75" r="15" fill="#FBFCFF"/>
<circle cx="77.5" cy="63.5" r="7.5" fill="white"/>
<circle cx="101.5" cy="63.5" r="7.5" fill="white"/>
<circle cx="124.5" cy="63.5" r="7.5" fill="white"/>
<defs>
<filter id="filter0_d_195_292" x="446.192" y="330.841" width="585.618" height="186.891" filterUnits="userSpaceOnUse" color-interpolation-filters="sRGB">
<feFlood flood-opacity="0" result="BackgroundImageFix"/>
<feColorMatrix in="SourceAlpha" type="matrix" values="0 0 0 0 0 0 0 0 0 0 0 0 0 0 0 0 0 0 127 0" result="hardAlpha"/>
<feOffset dy="4"/>
<feGaussianBlur stdDeviation="2"/>
<feComposite in2="hardAlpha" operator="out"/>
<feColorMatrix type="matrix" values="0 0 0 0 0 0 0 0 0 0 0 0 0 0 0 0 0 0 0.25 0"/>
<feBlend mode="normal" in2="BackgroundImageFix" result="effect1_dropShadow_195_292"/>
<feBlend mode="normal" in="SourceGraphic" in2="effect1_dropShadow_195_292" result="shape"/>
</filter>
<filter id="filter1_d_195_292" x="704.184" y="257.304" width="68.271" height="46.3505" filterUnits="userSpaceOnUse" color-interpolation-filters="sRGB">
<feFlood flood-opacity="0" result="BackgroundImageFix"/>
<feColorMatrix in="SourceAlpha" type="matrix" values="0 0 0 0 0 0 0 0 0 0 0 0 0 0 0 0 0 0 127 0" result="hardAlpha"/>
<feOffset dy="4"/>
<feGaussianBlur stdDeviation="2"/>
<feComposite in2="hardAlpha" operator="out"/>
<feColorMatrix type="matrix" values="0 0 0 0 0 0 0 0 0 0 0 0 0 0 0 0 0 0 0.25 0"/>
<feBlend mode="normal" in2="BackgroundImageFix" result="effect1_dropShadow_195_292"/>
<feBlend mode="normal" in="SourceGraphic" in2="effect1_dropShadow_195_292" result="shape"/>
</filter>
<linearGradient id="paint0_linear_195_292" x1="509" y1="577" x2="509" y2="753" gradientUnits="userSpaceOnUse">
<stop stop-color="#D7F5F0"/>
<stop offset="1" stop-color="#7D8F8C" stop-opacity="0"/>
</linearGradient>
<linearGradient id="paint1_linear_195_292" x1="741" y1="577" x2="741" y2="753" gradientUnits="userSpaceOnUse">
<stop stop-color="#D7F5F0"/>
<stop offset="1" stop-color="#7D8F8C" stop-opacity="0"/>
</linearGradient>
<linearGradient id="paint2_linear_195_292" x1="966" y1="577" x2="966" y2="753" gradientUnits="userSpaceOnUse">
<stop stop-color="#D7F5F0"/>
<stop offset="1" stop-color="#7D8F8C" stop-opacity="0"/>
</linearGradient>
<linearGradient id="paint3_linear_195_292" x1="208.5" y1="121" x2="208.5" y2="721" gradientUnits="userSpaceOnUse">
<stop stop-color="#D7F5F0"/>
<stop offset="0.749" stop-color="#D7F5F0" stop-opacity="0.37"/>
<stop offset="1" stop-color="#737373" stop-opacity="0"/>
</linearGradient>
<linearGradient id="paint4_linear_195_292" x1="468" y1="431" x2="468" y2="532" gradientUnits="userSpaceOnUse">
<stop stop-color="#9D8DFE" stop-opacity="0.75"/>
<stop offset="0.585" stop-color="#D7F5F0"/>
<stop offset="1" stop-color="#FBFCFF"/>
</linearGradient>
<linearGradient id="paint5_linear_195_292" x1="1010" y1="334" x2="1010" y2="530" gradientUnits="userSpaceOnUse">
<stop stop-color="#9D8DFE" stop-opacity="0.75"/>
<stop offset="0.585" stop-color="#D7F5F0"/>
<stop offset="1" stop-color="#FBFCFF"/>
</linearGradient>
<linearGradient id="paint6_linear_195_292" x1="925" y1="355" x2="925" y2="531" gradientUnits="userSpaceOnUse">
<stop stop-color="#9D8DFE" stop-opacity="0.75"/>
<stop offset="0.585" stop-color="#D7F5F0"/>
<stop offset="1" stop-color="#FBFCFF"/>
</linearGradient>
<linearGradient id="paint7_linear_195_292" x1="841" y1="403" x2="841" y2="532" gradientUnits="userSpaceOnUse">
<stop stop-color="#9D8DFE" stop-opacity="0.75"/>
<stop offset="0.585" stop-color="#D7F5F0"/>
<stop offset="1" stop-color="#FBFCFF"/>
</linearGradient>
<linearGradient id="paint8_linear_195_292" x1="754" y1="395" x2="754" y2="533" gradientUnits="userSpaceOnUse">
<stop stop-color="#9D8DFE" stop-opacity="0.75"/>
<stop offset="0.585" stop-color="#D7F5F0"/>
<stop offset="1" stop-color="#FBFCFF"/>
</linearGradient>
<linearGradient id="paint9_linear_195_292" x1="660" y1="383" x2="660" y2="533" gradientUnits="userSpaceOnUse">
<stop stop-color="#9D8DFE" stop-opacity="0.75"/>
<stop offset="0.585" stop-color="#D7F5F0"/>
<stop offset="1" stop-color="#FBFCFF"/>
</linearGradient>
<linearGradient id="paint10_linear_195_292" x1="558" y1="393" x2="558" y2="531" gradientUnits="userSpaceOnUse">
<stop stop-color="#9D8DFE" stop-opacity="0.75"/>
<stop offset="0.585" stop-color="#D7F5F0"/>
<stop offset="1" stop-color="#FBFCFF"/>
</linearGradient>
<linearGradient id="paint11_linear_195_292" x1="797.034" y1="614" x2="797.034" y2="634" gradientUnits="userSpaceOnUse">
<stop stop-color="#FBFCFF"/>
<stop offset="0.239" stop-color="#D7F5F0"/>
<stop offset="0.659" stop-color="#9D8DFE"/>
</linearGradient>
<linearGradient id="paint12_linear_195_292" x1="565.5" y1="0" x2="565.5" y2="400.5" gradientUnits="userSpaceOnUse">
<stop stop-color="white"/>
<stop offset="1" stop-color="white" stop-opacity="0"/>
</linearGradient>
</defs>
</svg>
