<svg width="24" height="24" viewBox="0 0 24 24" fill="none" xmlns="http://www.w3.org/2000/svg">
<rect width="24" height="24" transform="translate(0.000610352)" fill="white"/>
<path d="M17.0006 21.25H7.00061C6.59061 21.25 6.25061 20.91 6.25061 20.5C6.25061 20.09 6.59061 19.75 7.00061 19.75H17.0006C19.8606 19.75 21.2506 18.36 21.2506 15.5V8.5C21.2506 5.64 19.8606 4.25 17.0006 4.25H7.00061C4.14061 4.25 2.75061 5.64 2.75061 8.5C2.75061 8.91 2.41061 9.25 2.00061 9.25C1.59061 9.25 1.25061 8.91 1.25061 8.5C1.25061 4.85 3.35061 2.75 7.00061 2.75H17.0006C20.6506 2.75 22.7506 4.85 22.7506 8.5V15.5C22.7506 19.15 20.6506 21.25 17.0006 21.25Z" fill="#9D8DFE"/>
<path d="M12.0004 12.87C11.1604 12.87 10.3104 12.61 9.66039 12.08L6.53039 9.57997C6.21039 9.31997 6.15039 8.84997 6.41039 8.52997C6.67039 8.20997 7.14038 8.14997 7.46038 8.40997L10.5904 10.91C11.3504 11.52 12.6404 11.52 13.4004 10.91L16.5304 8.40997C16.8504 8.14997 17.3304 8.19997 17.5804 8.52997C17.8404 8.84997 17.7904 9.32997 17.4604 9.57997L14.3304 12.08C13.6904 12.61 12.8404 12.87 12.0004 12.87Z" fill="#9D8DFE"/>
<path d="M8.00061 17.25H2.00061C1.59061 17.25 1.25061 16.91 1.25061 16.5C1.25061 16.09 1.59061 15.75 2.00061 15.75H8.00061C8.41061 15.75 8.75061 16.09 8.75061 16.5C8.75061 16.91 8.41061 17.25 8.00061 17.25Z" fill="#9D8DFE"/>
<path d="M5.00061 13.25H2.00061C1.59061 13.25 1.25061 12.91 1.25061 12.5C1.25061 12.09 1.59061 11.75 2.00061 11.75H5.00061C5.41061 11.75 5.75061 12.09 5.75061 12.5C5.75061 12.91 5.41061 13.25 5.00061 13.25Z" fill="#9D8DFE"/>
</svg>
