<svg width="425" height="74" viewBox="0 0 425 74" fill="none" xmlns="http://www.w3.org/2000/svg">
<path d="M360.33 61.75C360.33 60.72 360.555 59.8 361.005 58.99C361.455 58.17 362.07 57.535 362.85 57.085C363.63 56.625 364.5 56.395 365.46 56.395C366.63 56.395 367.63 56.675 368.46 57.235C369.3 57.785 369.91 58.565 370.29 59.575H369.06C368.76 58.865 368.3 58.31 367.68 57.91C367.07 57.51 366.33 57.31 365.46 57.31C364.69 57.31 363.995 57.49 363.375 57.85C362.765 58.21 362.285 58.73 361.935 59.41C361.585 60.08 361.41 60.86 361.41 61.75C361.41 62.64 361.585 63.42 361.935 64.09C362.285 64.76 362.765 65.275 363.375 65.635C363.995 65.995 364.69 66.175 365.46 66.175C366.33 66.175 367.07 65.98 367.68 65.59C368.3 65.19 368.76 64.64 369.06 63.94H370.29C369.91 64.94 369.3 65.715 368.46 66.265C367.62 66.815 366.62 67.09 365.46 67.09C364.5 67.09 363.63 66.865 362.85 66.415C362.07 65.955 361.455 65.32 361.005 64.51C360.555 63.7 360.33 62.78 360.33 61.75ZM373.432 55.9V67H372.382V55.9H373.432ZM376.335 57.265C376.125 57.265 375.945 57.19 375.795 57.04C375.645 56.89 375.57 56.705 375.57 56.485C375.57 56.265 375.645 56.085 375.795 55.945C375.945 55.795 376.125 55.72 376.335 55.72C376.545 55.72 376.725 55.795 376.875 55.945C377.025 56.085 377.1 56.265 377.1 56.485C377.1 56.705 377.025 56.89 376.875 57.04C376.725 57.19 376.545 57.265 376.335 57.265ZM376.86 58.81V67H375.81V58.81H376.86ZM378.758 62.905C378.758 62.055 378.928 61.315 379.268 60.685C379.608 60.045 380.078 59.555 380.678 59.215C381.278 58.865 381.963 58.69 382.733 58.69C383.743 58.69 384.573 58.94 385.223 59.44C385.883 59.94 386.308 60.62 386.498 61.48H385.373C385.233 60.89 384.928 60.43 384.458 60.1C383.998 59.76 383.423 59.59 382.733 59.59C382.183 59.59 381.688 59.715 381.248 59.965C380.808 60.215 380.458 60.59 380.198 61.09C379.948 61.58 379.823 62.185 379.823 62.905C379.823 63.625 379.948 64.235 380.198 64.735C380.458 65.235 380.808 65.61 381.248 65.86C381.688 66.11 382.183 66.235 382.733 66.235C383.423 66.235 383.998 66.07 384.458 65.74C384.928 65.4 385.233 64.93 385.373 64.33H386.498C386.308 65.17 385.883 65.845 385.223 66.355C384.563 66.865 383.733 67.12 382.733 67.12C381.963 67.12 381.278 66.95 380.678 66.61C380.078 66.26 379.608 65.77 379.268 65.14C378.928 64.5 378.758 63.755 378.758 62.905ZM392.862 67L389.487 63.325V67H388.437V55.9H389.487V62.47L392.787 58.81H394.257L390.372 62.89L394.287 67H392.862ZM400.81 66.145H404.575V67H399.76V56.515H400.81V66.145ZM406.599 57.265C406.389 57.265 406.209 57.19 406.059 57.04C405.909 56.89 405.834 56.705 405.834 56.485C405.834 56.265 405.909 56.085 406.059 55.945C406.209 55.795 406.389 55.72 406.599 55.72C406.809 55.72 406.989 55.795 407.139 55.945C407.289 56.085 407.364 56.265 407.364 56.485C407.364 56.705 407.289 56.89 407.139 57.04C406.989 57.19 406.809 57.265 406.599 57.265ZM407.124 58.81V67H406.074V58.81H407.124ZM413.341 58.66C414.321 58.66 415.121 58.965 415.741 59.575C416.361 60.175 416.671 61.05 416.671 62.2V67H415.636V62.32C415.636 61.43 415.411 60.75 414.961 60.28C414.521 59.81 413.916 59.575 413.146 59.575C412.356 59.575 411.726 59.825 411.256 60.325C410.786 60.825 410.551 61.56 410.551 62.53V67H409.501V58.81H410.551V60.205C410.811 59.705 411.186 59.325 411.676 59.065C412.166 58.795 412.721 58.66 413.341 58.66ZM423.419 67L420.044 63.325V67H418.994V55.9H420.044V62.47L423.344 58.81H424.814L420.929 62.89L424.844 67H423.419Z" fill="black"/>
<path d="M183.169 67.105C182.199 67.105 181.319 66.88 180.529 66.43C179.739 65.97 179.114 65.335 178.654 64.525C178.204 63.705 177.979 62.78 177.979 61.75C177.979 60.72 178.204 59.8 178.654 58.99C179.114 58.17 179.739 57.535 180.529 57.085C181.319 56.625 182.199 56.395 183.169 56.395C184.149 56.395 185.034 56.625 185.824 57.085C186.614 57.535 187.234 58.17 187.684 58.99C188.134 59.8 188.359 60.72 188.359 61.75C188.359 62.78 188.134 63.705 187.684 64.525C187.234 65.335 186.614 65.97 185.824 66.43C185.034 66.88 184.149 67.105 183.169 67.105ZM183.169 66.19C183.949 66.19 184.649 66.01 185.269 65.65C185.889 65.29 186.379 64.775 186.739 64.105C187.099 63.425 187.279 62.64 187.279 61.75C187.279 60.86 187.099 60.08 186.739 59.41C186.379 58.74 185.889 58.225 185.269 57.865C184.649 57.505 183.949 57.325 183.169 57.325C182.389 57.325 181.689 57.505 181.069 57.865C180.449 58.225 179.959 58.74 179.599 59.41C179.239 60.08 179.059 60.86 179.059 61.75C179.059 62.64 179.239 63.425 179.599 64.105C179.959 64.775 180.449 65.29 181.069 65.65C181.689 66.01 182.389 66.19 183.169 66.19ZM191.316 60.61C191.576 60.06 191.986 59.605 192.546 59.245C193.116 58.875 193.791 58.69 194.571 58.69C195.311 58.69 195.976 58.865 196.566 59.215C197.166 59.555 197.631 60.045 197.961 60.685C198.301 61.315 198.471 62.05 198.471 62.89C198.471 63.73 198.301 64.47 197.961 65.11C197.631 65.75 197.166 66.245 196.566 66.595C195.976 66.945 195.311 67.12 194.571 67.12C193.801 67.12 193.131 66.94 192.561 66.58C191.991 66.21 191.576 65.75 191.316 65.2V70.87H190.281V58.81H191.316V60.61ZM197.406 62.89C197.406 62.21 197.271 61.625 197.001 61.135C196.741 60.635 196.381 60.255 195.921 59.995C195.461 59.735 194.941 59.605 194.361 59.605C193.801 59.605 193.286 59.74 192.816 60.01C192.356 60.28 191.991 60.665 191.721 61.165C191.451 61.665 191.316 62.245 191.316 62.905C191.316 63.565 191.451 64.145 191.721 64.645C191.991 65.145 192.356 65.53 192.816 65.8C193.286 66.07 193.801 66.205 194.361 66.205C194.941 66.205 195.461 66.075 195.921 65.815C196.381 65.545 196.741 65.16 197.001 64.66C197.271 64.15 197.406 63.56 197.406 62.89ZM207.813 62.485C207.813 62.845 207.803 63.12 207.783 63.31H200.988C201.018 63.93 201.168 64.46 201.438 64.9C201.708 65.34 202.063 65.675 202.503 65.905C202.943 66.125 203.423 66.235 203.943 66.235C204.623 66.235 205.193 66.07 205.653 65.74C206.123 65.41 206.433 64.965 206.583 64.405H207.693C207.493 65.205 207.063 65.86 206.403 66.37C205.753 66.87 204.933 67.12 203.943 67.12C203.173 67.12 202.483 66.95 201.873 66.61C201.263 66.26 200.783 65.77 200.433 65.14C200.093 64.5 199.923 63.755 199.923 62.905C199.923 62.055 200.093 61.31 200.433 60.67C200.773 60.03 201.248 59.54 201.858 59.2C202.468 58.86 203.163 58.69 203.943 58.69C204.723 58.69 205.403 58.86 205.983 59.2C206.573 59.54 207.023 60 207.333 60.58C207.653 61.15 207.813 61.785 207.813 62.485ZM206.748 62.455C206.758 61.845 206.633 61.325 206.373 60.895C206.123 60.465 205.778 60.14 205.338 59.92C204.898 59.7 204.418 59.59 203.898 59.59C203.118 59.59 202.453 59.84 201.903 60.34C201.353 60.84 201.048 61.545 200.988 62.455H206.748ZM213.574 58.66C214.554 58.66 215.354 58.965 215.974 59.575C216.594 60.175 216.904 61.05 216.904 62.2V67H215.869V62.32C215.869 61.43 215.644 60.75 215.194 60.28C214.754 59.81 214.149 59.575 213.379 59.575C212.589 59.575 211.959 59.825 211.489 60.325C211.019 60.825 210.784 61.56 210.784 62.53V67H209.734V58.81H210.784V60.205C211.044 59.705 211.419 59.325 211.909 59.065C212.399 58.795 212.954 58.66 213.574 58.66ZM224.392 57.37V61.285H228.367V62.155H224.392V66.13H228.817V67H223.342V56.5H228.817V57.37H224.392ZM240.636 58.66C241.596 58.66 242.376 58.965 242.976 59.575C243.586 60.175 243.891 61.05 243.891 62.2V67H242.856V62.32C242.856 61.43 242.641 60.75 242.211 60.28C241.781 59.81 241.196 59.575 240.456 59.575C239.686 59.575 239.071 59.83 238.611 60.34C238.151 60.85 237.921 61.59 237.921 62.56V67H236.886V62.32C236.886 61.43 236.671 60.75 236.241 60.28C235.811 59.81 235.221 59.575 234.471 59.575C233.701 59.575 233.086 59.83 232.626 60.34C232.166 60.85 231.936 61.59 231.936 62.56V67H230.886V58.81H231.936V60.22C232.196 59.71 232.566 59.325 233.046 59.065C233.526 58.795 234.061 58.66 234.651 58.66C235.361 58.66 235.981 58.83 236.511 59.17C237.051 59.51 237.441 60.01 237.681 60.67C237.901 60.02 238.276 59.525 238.806 59.185C239.346 58.835 239.956 58.66 240.636 58.66ZM245.743 62.89C245.743 62.05 245.908 61.315 246.238 60.685C246.578 60.045 247.043 59.555 247.633 59.215C248.233 58.865 248.908 58.69 249.658 58.69C250.438 58.69 251.108 58.87 251.668 59.23C252.238 59.59 252.648 60.05 252.898 60.61V58.81H253.948V67H252.898V65.185C252.638 65.745 252.223 66.21 251.653 66.58C251.093 66.94 250.423 67.12 249.643 67.12C248.903 67.12 248.233 66.945 247.633 66.595C247.043 66.245 246.578 65.75 246.238 65.11C245.908 64.47 245.743 63.73 245.743 62.89ZM252.898 62.905C252.898 62.245 252.763 61.665 252.493 61.165C252.223 60.665 251.853 60.28 251.383 60.01C250.923 59.74 250.413 59.605 249.853 59.605C249.273 59.605 248.753 59.735 248.293 59.995C247.833 60.255 247.468 60.635 247.198 61.135C246.938 61.625 246.808 62.21 246.808 62.89C246.808 63.56 246.938 64.15 247.198 64.66C247.468 65.16 247.833 65.545 248.293 65.815C248.753 66.075 249.273 66.205 249.853 66.205C250.413 66.205 250.923 66.07 251.383 65.8C251.853 65.53 252.223 65.145 252.493 64.645C252.763 64.145 252.898 63.565 252.898 62.905ZM256.87 57.265C256.66 57.265 256.48 57.19 256.33 57.04C256.18 56.89 256.105 56.705 256.105 56.485C256.105 56.265 256.18 56.085 256.33 55.945C256.48 55.795 256.66 55.72 256.87 55.72C257.08 55.72 257.26 55.795 257.41 55.945C257.56 56.085 257.635 56.265 257.635 56.485C257.635 56.705 257.56 56.89 257.41 57.04C257.26 57.19 257.08 57.265 256.87 57.265ZM257.395 58.81V67H256.345V58.81H257.395ZM260.823 55.9V67H259.773V55.9H260.823Z" fill="black"/>
<path d="M1.23721 61.75C1.23721 60.72 1.46221 59.8 1.91221 58.99C2.36221 58.17 2.97721 57.535 3.75721 57.085C4.53721 56.625 5.40721 56.395 6.36721 56.395C7.53721 56.395 8.53721 56.675 9.36721 57.235C10.2072 57.785 10.8172 58.565 11.1972 59.575H9.96721C9.66721 58.865 9.20721 58.31 8.58721 57.91C7.97721 57.51 7.23721 57.31 6.36721 57.31C5.59721 57.31 4.90221 57.49 4.28221 57.85C3.67221 58.21 3.19221 58.73 2.84221 59.41C2.49221 60.08 2.31721 60.86 2.31721 61.75C2.31721 62.64 2.49221 63.42 2.84221 64.09C3.19221 64.76 3.67221 65.275 4.28221 65.635C4.90221 65.995 5.59721 66.175 6.36721 66.175C7.23721 66.175 7.97721 65.98 8.58721 65.59C9.20721 65.19 9.66721 64.64 9.96721 63.94H11.1972C10.8172 64.94 10.2072 65.715 9.36721 66.265C8.52721 66.815 7.52721 67.09 6.36721 67.09C5.40721 67.09 4.53721 66.865 3.75721 66.415C2.97721 65.955 2.36221 65.32 1.91221 64.51C1.46221 63.7 1.23721 62.78 1.23721 61.75ZM17.1895 58.66C17.8095 58.66 18.3645 58.79 18.8545 59.05C19.3545 59.31 19.7445 59.71 20.0245 60.25C20.3145 60.78 20.4595 61.43 20.4595 62.2V67H19.4245V62.32C19.4245 61.43 19.1995 60.75 18.7495 60.28C18.3095 59.81 17.7045 59.575 16.9345 59.575C16.1445 59.575 15.5145 59.825 15.0445 60.325C14.5745 60.825 14.3395 61.56 14.3395 62.53V67H13.2895V55.9H14.3395V60.205C14.5995 59.715 14.9795 59.335 15.4795 59.065C15.9895 58.795 16.5595 58.66 17.1895 58.66ZM30.1917 62.485C30.1917 62.845 30.1817 63.12 30.1617 63.31H23.3667C23.3967 63.93 23.5467 64.46 23.8167 64.9C24.0867 65.34 24.4417 65.675 24.8817 65.905C25.3217 66.125 25.8017 66.235 26.3217 66.235C27.0017 66.235 27.5717 66.07 28.0317 65.74C28.5017 65.41 28.8117 64.965 28.9617 64.405H30.0717C29.8717 65.205 29.4417 65.86 28.7817 66.37C28.1317 66.87 27.3117 67.12 26.3217 67.12C25.5517 67.12 24.8617 66.95 24.2517 66.61C23.6417 66.26 23.1617 65.77 22.8117 65.14C22.4717 64.5 22.3017 63.755 22.3017 62.905C22.3017 62.055 22.4717 61.31 22.8117 60.67C23.1517 60.03 23.6267 59.54 24.2367 59.2C24.8467 58.86 25.5417 58.69 26.3217 58.69C27.1017 58.69 27.7817 58.86 28.3617 59.2C28.9517 59.54 29.4017 60 29.7117 60.58C30.0317 61.15 30.1917 61.785 30.1917 62.485ZM29.1267 62.455C29.1367 61.845 29.0117 61.325 28.7517 60.895C28.5017 60.465 28.1567 60.14 27.7167 59.92C27.2767 59.7 26.7967 59.59 26.2767 59.59C25.4967 59.59 24.8317 59.84 24.2817 60.34C23.7317 60.84 23.4267 61.545 23.3667 62.455H29.1267ZM31.6327 62.905C31.6327 62.055 31.8027 61.315 32.1427 60.685C32.4827 60.045 32.9527 59.555 33.5527 59.215C34.1527 58.865 34.8377 58.69 35.6077 58.69C36.6177 58.69 37.4477 58.94 38.0977 59.44C38.7577 59.94 39.1827 60.62 39.3727 61.48H38.2477C38.1077 60.89 37.8027 60.43 37.3327 60.1C36.8727 59.76 36.2977 59.59 35.6077 59.59C35.0577 59.59 34.5627 59.715 34.1227 59.965C33.6827 60.215 33.3327 60.59 33.0727 61.09C32.8227 61.58 32.6977 62.185 32.6977 62.905C32.6977 63.625 32.8227 64.235 33.0727 64.735C33.3327 65.235 33.6827 65.61 34.1227 65.86C34.5627 66.11 35.0577 66.235 35.6077 66.235C36.2977 66.235 36.8727 66.07 37.3327 65.74C37.8027 65.4 38.1077 64.93 38.2477 64.33H39.3727C39.1827 65.17 38.7577 65.845 38.0977 66.355C37.4377 66.865 36.6077 67.12 35.6077 67.12C34.8377 67.12 34.1527 66.95 33.5527 66.61C32.9527 66.26 32.4827 65.77 32.1427 65.14C31.8027 64.5 31.6327 63.755 31.6327 62.905ZM45.7369 67L42.3619 63.325V67H41.3119V55.9H42.3619V62.47L45.6619 58.81H47.1319L43.2469 62.89L47.1619 67H45.7369ZM53.6852 56.515V67H52.6352V56.515H53.6852ZM59.9029 58.66C60.8829 58.66 61.6829 58.965 62.3029 59.575C62.9229 60.175 63.2329 61.05 63.2329 62.2V67H62.1979V62.32C62.1979 61.43 61.9729 60.75 61.5229 60.28C61.0829 59.81 60.4779 59.575 59.7079 59.575C58.9179 59.575 58.2879 59.825 57.8179 60.325C57.3479 60.825 57.1129 61.56 57.1129 62.53V67H56.0629V58.81H57.1129V60.205C57.3729 59.705 57.7479 59.325 58.2379 59.065C58.7279 58.795 59.2829 58.66 59.9029 58.66ZM66.5901 60.625C66.8601 60.055 67.2751 59.59 67.8351 59.23C68.4051 58.87 69.0751 58.69 69.8451 58.69C70.5951 58.69 71.2651 58.865 71.8551 59.215C72.4451 59.555 72.9051 60.045 73.2351 60.685C73.5751 61.315 73.7451 62.05 73.7451 62.89C73.7451 63.73 73.5751 64.47 73.2351 65.11C72.9051 65.75 72.4401 66.245 71.8401 66.595C71.2501 66.945 70.5851 67.12 69.8451 67.12C69.0651 67.12 68.3901 66.945 67.8201 66.595C67.2601 66.235 66.8501 65.77 66.5901 65.2V67H65.5551V55.9H66.5901V60.625ZM72.6801 62.89C72.6801 62.21 72.5451 61.625 72.2751 61.135C72.0151 60.635 71.6551 60.255 71.1951 59.995C70.7351 59.735 70.2151 59.605 69.6351 59.605C69.0751 59.605 68.5601 59.74 68.0901 60.01C67.6301 60.28 67.2651 60.665 66.9951 61.165C66.7251 61.665 66.5901 62.245 66.5901 62.905C66.5901 63.565 66.7251 64.145 66.9951 64.645C67.2651 65.145 67.6301 65.53 68.0901 65.8C68.5601 66.07 69.0751 66.205 69.6351 66.205C70.2151 66.205 70.7351 66.075 71.1951 65.815C71.6551 65.545 72.0151 65.16 72.2751 64.66C72.5451 64.15 72.6801 63.56 72.6801 62.89ZM79.2622 67.12C78.4922 67.12 77.7972 66.95 77.1772 66.61C76.5672 66.26 76.0822 65.77 75.7222 65.14C75.3722 64.5 75.1972 63.755 75.1972 62.905C75.1972 62.055 75.3772 61.315 75.7372 60.685C76.0972 60.045 76.5872 59.555 77.2072 59.215C77.8272 58.865 78.5222 58.69 79.2922 58.69C80.0622 58.69 80.7572 58.865 81.3772 59.215C82.0072 59.555 82.4972 60.045 82.8472 60.685C83.2072 61.315 83.3872 62.055 83.3872 62.905C83.3872 63.745 83.2072 64.485 82.8472 65.125C82.4872 65.765 81.9922 66.26 81.3622 66.61C80.7322 66.95 80.0322 67.12 79.2622 67.12ZM79.2622 66.205C79.8022 66.205 80.3022 66.085 80.7622 65.845C81.2222 65.595 81.5922 65.225 81.8722 64.735C82.1622 64.235 82.3072 63.625 82.3072 62.905C82.3072 62.185 82.1672 61.58 81.8872 61.09C81.6072 60.59 81.2372 60.22 80.7772 59.98C80.3172 59.73 79.8172 59.605 79.2772 59.605C78.7372 59.605 78.2372 59.73 77.7772 59.98C77.3172 60.22 76.9472 60.59 76.6672 61.09C76.3972 61.58 76.2622 62.185 76.2622 62.905C76.2622 63.625 76.3972 64.235 76.6672 64.735C76.9472 65.225 77.3122 65.595 77.7622 65.845C78.2222 66.085 78.7222 66.205 79.2622 66.205ZM89.5912 67L87.4762 63.7L85.4362 67H84.3262L86.9662 62.905L84.3562 58.81H85.5412L87.6262 62.065L89.6512 58.81H90.7462L88.1362 62.86L90.7762 67H89.5912Z" fill="black"/>
<rect width="24" height="24" transform="translate(380.001)" fill="white"/>
<path d="M393.181 18.6999C392.011 18.6999 391.021 17.9799 390.651 16.8699L389.951 14.7999C389.841 14.4399 389.561 14.1699 389.221 14.0599L387.141 13.3599C386.021 12.9799 385.301 11.9699 385.321 10.7899C385.341 9.60992 386.081 8.61994 387.211 8.26994L394.741 5.92992C395.691 5.63992 396.721 5.88994 397.421 6.59994C398.121 7.30994 398.371 8.32993 398.081 9.27993L395.741 16.8199C395.391 17.9499 394.401 18.6899 393.211 18.7099C393.201 18.6999 393.191 18.6999 393.181 18.6999ZM395.521 7.29993C395.401 7.29993 395.291 7.31994 395.171 7.34994L387.631 9.69993C387.021 9.88993 386.801 10.3899 386.801 10.8099C386.791 11.2199 387.001 11.7399 387.601 11.9399L389.681 12.6299C390.481 12.8899 391.111 13.5199 391.371 14.3299L392.061 16.3899C392.261 16.9899 392.731 17.1799 393.191 17.1999C393.601 17.1999 394.111 16.9799 394.301 16.3699L396.641 8.82993C396.771 8.40993 396.661 7.96993 396.351 7.65993C396.121 7.41993 395.831 7.29993 395.521 7.29993Z" fill="#9D8DFE"/>
<path d="M395.001 22.75H389.001C383.571 22.75 381.251 20.43 381.251 15V9C381.251 3.57 383.571 1.25 389.001 1.25H395.001C400.431 1.25 402.751 3.57 402.751 9V15C402.751 20.43 400.431 22.75 395.001 22.75ZM389.001 2.75C384.391 2.75 382.751 4.39 382.751 9V15C382.751 19.61 384.391 21.25 389.001 21.25H395.001C399.611 21.25 401.251 19.61 401.251 15V9C401.251 4.39 399.611 2.75 395.001 2.75H389.001Z" fill="#9D8DFE"/>
<path d="M271.895 10.5H348.001" stroke="#C7C7C7"/>
<rect width="24" height="24" transform="translate(207.001)" fill="white"/>
<path d="M224.001 21.25H214.001C213.591 21.25 213.251 20.91 213.251 20.5C213.251 20.09 213.591 19.75 214.001 19.75H224.001C226.861 19.75 228.251 18.36 228.251 15.5V8.5C228.251 5.64 226.861 4.25 224.001 4.25H214.001C211.141 4.25 209.751 5.64 209.751 8.5C209.751 8.91 209.411 9.25 209.001 9.25C208.591 9.25 208.251 8.91 208.251 8.5C208.251 4.85 210.351 2.75 214.001 2.75H224.001C227.651 2.75 229.751 4.85 229.751 8.5V15.5C229.751 19.15 227.651 21.25 224.001 21.25Z" fill="#9D8DFE"/>
<path d="M219 12.87C218.16 12.87 217.31 12.61 216.66 12.08L213.53 9.57997C213.21 9.31997 213.15 8.84997 213.41 8.52997C213.67 8.20997 214.14 8.14997 214.46 8.40997L217.59 10.91C218.35 11.52 219.64 11.52 220.4 10.91L223.53 8.40997C223.85 8.14997 224.33 8.19997 224.58 8.52997C224.84 8.84997 224.79 9.32997 224.46 9.57997L221.33 12.08C220.69 12.61 219.84 12.87 219 12.87Z" fill="#9D8DFE"/>
<path d="M215.001 17.25H209.001C208.591 17.25 208.251 16.91 208.251 16.5C208.251 16.09 208.591 15.75 209.001 15.75H215.001C215.411 15.75 215.751 16.09 215.751 16.5C215.751 16.91 215.411 17.25 215.001 17.25Z" fill="#9D8DFE"/>
<path d="M212.001 13.25H209.001C208.591 13.25 208.251 12.91 208.251 12.5C208.251 12.09 208.591 11.75 209.001 11.75H212.001C212.411 11.75 212.751 12.09 212.751 12.5C212.751 12.91 212.411 13.25 212.001 13.25Z" fill="#9D8DFE"/>
<line x1="95.0006" y1="11.5" x2="171.106" y2="11.5" stroke="#C7C7C7"/>
<rect width="24" height="24" transform="translate(34.0006)" fill="white"/>
<path d="M46.0006 9.75C45.9006 9.75 45.8106 9.73 45.7106 9.69C45.4306 9.58 45.2506 9.3 45.2506 9V2C45.2506 1.59 45.5906 1.25 46.0006 1.25C46.4106 1.25 46.7506 1.59 46.7506 2V7.19L47.4706 6.47C47.7606 6.18 48.2406 6.18 48.5306 6.47C48.8206 6.76 48.8206 7.24 48.5306 7.53L46.5306 9.53C46.3906 9.67 46.2006 9.75 46.0006 9.75Z" fill="#9D8DFE"/>
<path d="M46.0006 9.74994C45.8106 9.74994 45.6206 9.67994 45.4706 9.52994L43.4706 7.52994C43.1806 7.23994 43.1806 6.75994 43.4706 6.46994C43.7606 6.17994 44.2406 6.17994 44.5306 6.46994L46.5306 8.46994C46.8206 8.75994 46.8206 9.23994 46.5306 9.52994C46.3806 9.67994 46.1906 9.74994 46.0006 9.74994Z" fill="#9D8DFE"/>
<path d="M47.7606 17.75H44.2306C43.1806 17.75 42.2406 17.17 41.7706 16.23L40.6006 13.89C40.5606 13.8 40.4706 13.75 40.3806 13.75H35.9806C35.5706 13.75 35.2306 13.41 35.2306 13C35.2306 12.59 35.5706 12.25 35.9806 12.25H40.3906C41.0606 12.25 41.6606 12.62 41.9606 13.22L43.1306 15.56C43.3406 15.99 43.7706 16.25 44.2506 16.25H47.7806C48.2606 16.25 48.6906 15.99 48.9006 15.56L50.0706 13.22C50.3706 12.62 50.9706 12.25 51.6406 12.25H56.0006C56.4106 12.25 56.7506 12.59 56.7506 13C56.7506 13.41 56.4106 13.75 56.0006 13.75H51.6406C51.5406 13.75 51.4606 13.8 51.4206 13.89L50.2506 16.23C49.7506 17.17 48.8106 17.75 47.7606 17.75Z" fill="#9D8DFE"/>
<path d="M49.0006 22.7499H43.0006C37.5706 22.7499 35.2506 20.4299 35.2506 14.9999V10.9999C35.2506 6.30993 36.9906 3.95993 40.8906 3.38993C41.3106 3.32993 41.6806 3.60993 41.7406 4.01993C41.8006 4.42993 41.5206 4.80993 41.1106 4.86993C37.9706 5.32993 36.7506 7.04993 36.7506 10.9999V14.9999C36.7506 19.6099 38.3906 21.2499 43.0006 21.2499H49.0006C53.6106 21.2499 55.2506 19.6099 55.2506 14.9999V10.9999C55.2506 7.04993 54.0306 5.32993 50.8906 4.86993C50.4806 4.80993 50.2006 4.42993 50.2606 4.01993C50.3206 3.60993 50.7006 3.32993 51.1106 3.38993C55.0106 3.95993 56.7506 6.30993 56.7506 10.9999V14.9999C56.7506 20.4299 54.4306 22.7499 49.0006 22.7499Z" fill="#9D8DFE"/>
</svg>
