<svg width="335" height="347" viewBox="0 0 335 347" fill="none" xmlns="http://www.w3.org/2000/svg">
<path d="M14.808 22.736L25.304 22.512L30.632 22.424C32.416 22.424 34.2 22.424 35.992 22.424H36.344V22.784L36.392 31.736V32.136H35.992L25.424 32.04C21.888 32.04 18.36 31.952 14.832 31.904H14.608V31.688C14.608 30.168 14.68 28.664 14.712 27.168L14.808 22.736ZM14.808 22.736L14.92 27.264C14.92 28.752 15.008 30.224 15.024 31.688L14.808 31.472C18.336 31.472 21.864 31.344 25.4 31.344L35.992 31.288L35.592 31.688L35.632 22.736L35.992 23.096C34.24 23.096 32.504 23.096 30.752 23.048L25.488 22.96L14.808 22.736Z" fill="#EBEBEB"/>
<path d="M26.624 11.448L37.12 11.224L42.448 11.136C44.232 11.136 46.024 11.136 47.808 11.136H48.16V11.496L48.208 20.448V20.848H47.824L37.216 20.736C33.68 20.736 30.152 20.648 26.624 20.6H26.4V20.384C26.4 18.864 26.472 17.36 26.504 15.864L26.624 11.448ZM26.624 11.448L26.736 15.976C26.736 17.464 26.824 18.936 26.84 20.4L26.624 20.184C30.152 20.184 33.68 20.056 37.216 20.056L47.824 20L47.424 20.4V11.448L47.784 11.808C46.04 11.808 44.296 11.808 42.544 11.76L37.28 11.672L26.624 11.448Z" fill="#EBEBEB"/>
<path d="M47.168 126.464L57.664 126.24L62.992 126.152C64.776 126.112 66.568 126.152 68.352 126.104H68.704V126.464L68.752 135.416V135.816H68.352L57.76 135.76C54.224 135.76 50.696 135.672 47.168 135.632H46.944V135.416C46.944 133.896 47.016 132.384 47.048 130.888L47.168 126.464ZM47.168 126.464L47.28 130.984C47.28 132.472 47.368 133.952 47.384 135.416L47.168 135.192C50.696 135.192 54.224 135.064 57.76 135.064L68.352 135.016L67.952 135.416V126.464L68.312 126.816C66.56 126.816 64.824 126.816 63.072 126.816L57.808 126.728L47.168 126.464Z" fill="#EBEBEB"/>
<path d="M59.024 115.176L69.52 114.952L74.848 114.864C76.632 114.864 78.424 114.864 80.208 114.816H80.56V115.176L80.608 124.128V124.528H80.208L69.616 124.472C66.08 124.472 62.552 124.384 59.024 124.344H58.8V124.128C58.8 122.608 58.872 121.096 58.912 119.6L59.024 115.176ZM59.024 115.176L59.136 119.696C59.136 121.184 59.224 122.664 59.24 124.128L59.024 123.936C62.552 123.896 66.08 123.816 69.616 123.808L80.208 123.76L79.808 124.16V115.208L80.168 115.56C78.424 115.56 76.68 115.56 74.928 115.52L69.664 115.432L59.024 115.176Z" fill="#EBEBEB"/>
<path d="M3.02401 11.448L13.528 11.224L18.816 11.136C20.592 11.136 22.384 11.136 24.168 11.136H24.528V11.496L24.568 20.448V20.848H24.16L13.576 20.736C10.048 20.736 6.52001 20.648 2.98401 20.6H2.76801V20.384C2.76801 18.864 2.84001 17.36 2.87201 15.864L3.02401 11.448ZM3.02401 11.448L3.14401 15.976C3.14401 17.464 3.232 18.936 3.248 20.4L3.02401 20.184C6.56 20.184 10.088 20.056 13.616 20.056L24.208 20L23.808 20.4L23.824 11.448L24.176 11.808C22.432 11.808 20.696 11.808 18.944 11.76L13.68 11.672L3.02401 11.448Z" fill="#EBEBEB"/>
<path d="M317.64 205.864L307.144 206.088L301.816 206.184C300.032 206.184 298.248 206.184 296.456 206.224H296.104V205.864L296.056 196.92V196.512H296.456L307.048 196.56C310.584 196.56 314.112 196.648 317.64 196.688H317.864V196.904C317.864 198.416 317.792 199.928 317.76 201.424L317.64 205.864ZM317.64 205.864L317.528 201.344C317.528 199.856 317.44 198.384 317.424 196.92L317.64 197.136C314.112 197.176 310.584 197.264 307.048 197.264L296.456 197.312L296.856 196.92L296.816 205.864L296.456 205.512C298.208 205.512 299.944 205.512 301.696 205.512L306.96 205.608L317.64 205.864Z" fill="#EBEBEB"/>
<path d="M329.464 217.152L318.96 217.376L313.632 217.472C311.848 217.472 310.064 217.472 308.28 217.512H307.92V217.152L307.88 208.2V207.8H308.288L318.88 207.848C322.408 207.848 325.936 207.936 329.472 207.976H329.688V208.184C329.688 209.704 329.616 211.216 329.584 212.712L329.464 217.152ZM329.464 217.152L329.344 212.632C329.344 211.144 329.256 209.672 329.24 208.2L329.464 208.424C325.928 208.464 322.4 208.552 318.872 208.552L308.28 208.6L308.68 208.2L308.624 217.152L308.272 216.8C310.016 216.8 311.752 216.8 313.504 216.84L318.768 216.936L329.464 217.152Z" fill="#EBEBEB"/>
<path d="M36.168 217.152L25.672 217.376L20.344 217.472C18.56 217.472 16.768 217.472 14.984 217.512H14.632V217.152L14.584 208.2V207.8H15.024L25.616 207.848C29.152 207.848 32.68 207.936 36.208 207.976H36.432V208.184C36.432 209.704 36.36 211.216 36.32 212.712L36.168 217.152ZM36.168 217.152L36.056 212.632C36.056 211.144 35.968 209.672 35.952 208.2L36.168 208.424C32.64 208.464 29.112 208.552 25.576 208.552L15.024 208.6L15.424 208.2L15.384 217.152L15.024 216.8C16.768 216.8 18.512 216.8 20.264 216.84L25.528 216.936L36.168 217.152Z" fill="#EBEBEB"/>
<path d="M296.368 11.448L306.872 11.224L312.2 11.136C313.976 11.136 315.768 11.136 317.552 11.136H317.912V11.496L317.952 20.448V20.848H317.552L306.96 20.736C303.432 20.736 299.896 20.648 296.368 20.6H296.152V20.384C296.152 18.864 296.216 17.36 296.256 15.864L296.368 11.448ZM296.368 11.448L296.48 15.976C296.52 17.464 296.576 18.936 296.584 20.4L296.368 20.184C299.896 20.184 303.432 20.056 306.96 20.056L317.552 20L317.152 20.4L317.2 11.448L317.552 11.808C315.808 11.808 314.064 11.808 312.32 11.76L307.024 11.672L296.368 11.448Z" fill="#EBEBEB"/>
<path d="M326.76 149.36H220.248V0.615967H326.76V149.36ZM223.408 146.2H323.6V3.77597H223.408V146.2Z" fill="#EBEBEB"/>
<path d="M275.08 4.59998H271.92V147.776H275.08V4.59998Z" fill="#EBEBEB"/>
<path d="M329.632 7.008H217.384V11.408H329.632V7.008Z" fill="#EBEBEB"/>
<path d="M329.632 11.96H217.384V16.36H329.632V11.96Z" fill="#EBEBEB"/>
<path d="M329.632 16.904H217.384V21.304H329.632V16.904Z" fill="#EBEBEB"/>
<path d="M329.632 21.856H217.384V26.256H329.632V21.856Z" fill="#EBEBEB"/>
<path d="M329.632 26.808H217.384V31.208H329.632V26.808Z" fill="#EBEBEB"/>
<path d="M329.632 31.76H217.384V36.16H329.632V31.76Z" fill="#EBEBEB"/>
<path d="M329.632 36.712H217.384V41.112H329.632V36.712Z" fill="#EBEBEB"/>
<path d="M329.632 41.664H217.384V46.064H329.632V41.664Z" fill="#EBEBEB"/>
<path d="M329.632 46.616H217.384V51.016H329.632V46.616Z" fill="#EBEBEB"/>
<path d="M320.24 6.112H319.448V91.752H320.24V6.112Z" fill="#A6A6A6"/>
<path d="M321.248 95.432H318.44L319.144 91.4H320.544L321.248 95.432Z" fill="#A6A6A6"/>
<path d="M323.088 6.112H322.296V113.352H323.088V6.112Z" fill="#A6A6A6"/>
<path d="M324.096 116.32H321.288L321.992 112.288H323.392L324.096 116.32Z" fill="#A6A6A6"/>
<path d="M334.536 0H212.48V9.208H334.536V0Z" fill="#DBDBDB"/>
<path d="M89.456 52.8H0V58.112H89.456V52.8Z" fill="#EBEBEB"/>
<path d="M12.104 58.112H6.79199V75.68H12.104V58.112Z" fill="#EBEBEB"/>
<path d="M12.104 58.112H6.79199V63.544H12.104V58.112Z" fill="#DBDBDB"/>
<path d="M82.664 58.112H77.352V75.68H82.664V58.112Z" fill="#EBEBEB"/>
<path d="M82.664 58.112H77.352V63.544H82.664V58.112Z" fill="#DBDBDB"/>
<path d="M20.168 52.8L20.168 18.944H11.64L11.64 52.8H20.168Z" fill="#C7C7C7"/>
<path d="M20.168 20.864V17.144H11.64V20.864H20.168Z" fill="#DBDBDB"/>
<path d="M20.168 27.008V25.624H11.64V27.008H20.168Z" fill="#DBDBDB"/>
<path d="M21.232 48.36V44.64H11.648V48.36H21.232Z" fill="#DBDBDB"/>
<path d="M26.12 52.8L26.12 13.312H20.16L20.16 52.8H26.12Z" fill="#DBDBDB"/>
<path d="M24.904 32.216V17.024H21.328V32.216H24.904Z" fill="#EBEBEB"/>
<path d="M68.4979 48.5734L40.4153 20.8125L36.2253 25.0511L64.3079 52.812L68.4979 48.5734Z" fill="#C7C7C7"/>
<path d="M61.0956 42.8907L50.2916 32.2104L47.7776 34.7535L58.5816 45.4338L61.0956 42.8907Z" fill="#DBDBDB"/>
<path d="M36.24 52.808V22.816H26.12V52.808H36.24Z" fill="#A6A6A6"/>
<path d="M36.24 49.624V46.832H26.12V49.624H36.24Z" fill="#C7C7C7"/>
<path d="M36.24 45V43.912H26.12V45H36.24Z" fill="#C7C7C7"/>
<path d="M11.64 52.816L11.64 24.624H4.64802L4.64802 52.816H11.64Z" fill="#A6A6A6"/>
<path d="M11.64 49.816V47.192H4.64801V49.816H11.64Z" fill="#C7C7C7"/>
<path d="M11.64 33.048V30.424H4.64802V33.048H11.64Z" fill="#C7C7C7"/>
<path d="M11.64 35.872V34.856H4.64801V35.872H11.64Z" fill="#C7C7C7"/>
<path d="M327.28 326.008C327.28 337.36 255.168 346.568 166.224 346.568C77.2802 346.568 5.16821 337.36 5.16821 326.008C5.16821 314.656 77.2802 305.448 166.224 305.448C255.168 305.448 327.28 314.656 327.28 326.008Z" fill="#EBEBEB"/>
<path d="M286.336 230.048C286.336 230.048 273.064 227.04 265.792 220.336C258.52 213.632 254.448 201.624 254.448 201.624C259.493 202.591 264.467 203.898 269.336 205.536C271.163 207.421 272.683 209.58 273.84 211.936C273.955 210.421 273.955 208.899 273.84 207.384C275.54 208.117 277.131 209.081 278.568 210.248C284.624 215.496 286.336 230.048 286.336 230.048Z" fill="#9D8DFE"/>
<path d="M262.736 207.456C260.928 206.208 259.088 205 257.288 203.736C257.176 203.664 257.288 203.488 257.392 203.56C260.816 205.6 264.184 207.784 267.448 210.072C268.584 210.872 269.704 211.696 270.808 212.544L270.576 212.152C270.176 211.488 269.776 210.832 269.336 210.176C268.505 208.846 267.563 207.588 266.52 206.416C266.48 206.376 266.52 206.312 266.584 206.352C267.616 207.544 268.648 208.752 269.592 209.992C270.04 210.592 270.456 211.216 270.856 211.848C271.064 212.184 271.264 212.512 271.448 212.856L271.648 213.192C273.368 214.544 275.04 215.952 276.632 217.432C277.619 218.349 278.571 219.299 279.488 220.28C278.968 218.68 278.52 217.08 277.928 215.48C277.928 215.424 278 215.4 278.016 215.48C278.592 217.136 279.224 218.808 279.672 220.512C280.688 221.608 281.664 222.744 282.576 223.936L282.528 223.72C282.376 223.088 282.224 222.464 282.056 221.848C281.736 220.648 281.376 219.448 280.976 218.272C280.211 215.829 279.002 213.548 277.408 211.544C277.368 211.496 277.408 211.432 277.472 211.48C279.959 214.582 281.7 218.214 282.56 222.096C282.704 222.656 282.832 223.224 282.96 223.792C283.032 224.096 283.112 224.4 283.16 224.712C283.56 225.256 283.96 225.8 284.336 226.36C286.589 229.822 288.467 233.515 289.936 237.376C291.604 241.706 293.036 246.123 294.224 250.608C294.219 250.622 294.21 250.634 294.198 250.643C294.186 250.652 294.171 250.656 294.156 250.656C294.141 250.656 294.127 250.652 294.115 250.643C294.102 250.634 294.093 250.622 294.088 250.608C291.488 242.84 288.84 234.96 284.392 228.024C283.455 226.557 282.443 225.139 281.36 223.776C279.161 223.635 276.991 223.205 274.904 222.496C272.628 221.725 270.457 220.674 268.44 219.368C267.291 218.591 266.183 217.756 265.12 216.864C265.113 216.861 265.107 216.857 265.101 216.852C265.096 216.846 265.092 216.839 265.09 216.832C265.088 216.825 265.088 216.817 265.089 216.81C265.091 216.802 265.094 216.795 265.099 216.789C265.103 216.783 265.109 216.779 265.116 216.775C265.123 216.772 265.13 216.771 265.138 216.771C265.146 216.771 265.153 216.773 265.16 216.777C265.166 216.78 265.172 216.786 265.176 216.792C267.031 218.289 269.078 219.53 271.264 220.48C273.41 221.464 275.654 222.215 277.96 222.72C278.936 222.936 279.936 223.096 280.928 223.232C279.701 221.719 278.395 220.272 277.016 218.896C276.568 218.448 276.104 218.016 275.64 217.584C274.093 216.502 272.452 215.562 270.736 214.776C268.56 213.72 266.416 212.608 264.264 211.512C263.048 210.896 261.864 210.264 260.624 209.664C260.568 209.664 260.624 209.568 260.672 209.592C262.848 210.648 265.064 211.632 267.264 212.64C269.464 213.648 271.44 214.544 273.424 215.656L273.68 215.808C271.88 214.208 270.016 212.752 268.08 211.312C266.336 210.016 264.552 208.736 262.736 207.456Z" fill="#263238"/>
<path d="M263.496 214.336C264.576 214.808 265.672 215.224 266.744 215.728C267.816 216.232 268.88 216.84 269.944 217.456C269.949 217.459 269.953 217.462 269.956 217.466C269.96 217.471 269.962 217.475 269.964 217.481C269.965 217.486 269.966 217.491 269.965 217.497C269.965 217.502 269.963 217.507 269.96 217.512C269.958 217.517 269.954 217.521 269.95 217.524C269.946 217.528 269.941 217.53 269.936 217.532C269.93 217.533 269.925 217.534 269.92 217.533C269.914 217.532 269.909 217.531 269.904 217.528C268.848 217.024 267.776 216.552 266.704 216.024C265.632 215.496 264.568 214.904 263.464 214.424C263.416 214.336 263.44 214.28 263.496 214.336Z" fill="#263238"/>
<path d="M329.424 163.136C326.96 166.296 325.56 170.155 325.424 174.16C325.384 175.352 325.568 177.016 325.712 178.96C322.398 180.883 319.462 183.393 317.048 186.368C319.698 184.828 322.741 184.1 325.8 184.272C325.732 185.616 325.563 186.953 325.296 188.272C323.375 188.278 321.474 188.655 319.696 189.384C321.438 189.366 323.165 189.709 324.768 190.392C322.368 197.92 315.376 205.656 295.968 208.936C293.912 199.703 295.128 190.043 299.408 181.608C305.24 170.144 329.424 163.136 329.424 163.136Z" fill="#9D8DFE"/>
<path d="M289.264 241.128C289.6 237.928 290.019 234.728 290.52 231.528C291.503 225.13 292.809 218.786 294.432 212.52C295.195 209.579 296.133 206.686 297.24 203.856C297.185 203.341 297.16 202.822 297.168 202.304C297.168 201.68 297.168 201.056 297.168 200.432C297.168 199.192 297.24 197.952 297.344 196.712C297.541 194.254 297.94 191.816 298.536 189.424C298.896 188.04 299.336 186.68 299.712 185.312C299.716 185.303 299.722 185.296 299.73 185.291C299.738 185.286 299.747 185.283 299.756 185.283C299.766 185.283 299.775 185.286 299.783 185.291C299.79 185.296 299.797 185.303 299.8 185.312C299.152 187.7 298.671 190.13 298.36 192.584C298.016 195 297.8 197.433 297.712 199.872C297.712 200.536 297.672 201.208 297.672 201.872C297.672 202.16 297.672 202.448 297.672 202.728C298.628 200.409 299.721 198.149 300.944 195.96C302.918 192.489 305.139 189.166 307.592 186.016C307.597 185.648 307.651 185.282 307.752 184.928C307.84 184.496 307.936 184.064 308.032 183.624C308.232 182.744 308.456 181.856 308.696 180.984C309.176 179.224 309.816 177.52 310.368 175.784C310.372 175.775 310.378 175.768 310.386 175.763C310.394 175.758 310.403 175.755 310.412 175.755C310.422 175.755 310.431 175.758 310.439 175.763C310.446 175.768 310.453 175.775 310.456 175.784C309.944 177.504 309.6 179.288 309.208 181.04C309.008 181.904 308.824 182.768 308.632 183.64C308.536 184.072 308.44 184.504 308.352 184.936C308.352 184.936 308.352 185.008 308.352 185.04C309.136 184.048 309.936 183.072 310.752 182.112C314.456 177.76 318.52 173.744 322.616 169.768C323.12 169.272 323.632 168.8 324.144 168.312C324.144 168.312 324.248 168.312 324.208 168.384C320.296 172.464 316.448 176.584 312.8 180.904C311.928 181.936 311.08 182.976 310.24 184.024L311.568 183.144C312.696 182.408 313.84 181.688 315.016 181.032C316.192 180.376 317.416 179.72 318.592 179.12C319.768 178.52 321.168 178 322.376 177.304C322.424 177.304 322.472 177.36 322.416 177.384C321.189 177.95 320.004 178.606 318.872 179.344C317.688 180.048 316.512 180.752 315.352 181.488C314.192 182.224 313.064 182.928 311.928 183.664C310.984 184.28 310.056 184.952 309.072 185.512C306.821 188.405 304.743 191.429 302.848 194.568C301.678 196.547 300.61 198.584 299.648 200.672L300.344 200.368L302.128 199.568C303.264 199.064 304.416 198.568 305.56 198.072C307.736 197.12 309.952 196.256 312.088 195.216C313.292 194.648 314.457 194.001 315.576 193.28C315.624 193.28 315.664 193.28 315.616 193.36C311.616 196.104 307.168 198.032 302.768 199.984L300.856 200.832C300.328 201.064 299.8 201.32 299.256 201.528C297.95 204.447 296.851 207.454 295.968 210.528C294.234 216.711 292.824 222.981 291.744 229.312C290.632 235.656 289.88 242.04 289.296 248.456C289.224 249.256 289.152 250.056 289.056 250.856C289.046 250.915 289.015 250.969 288.969 251.007C288.922 251.046 288.864 251.067 288.804 251.067C288.744 251.067 288.686 251.046 288.64 251.007C288.594 250.969 288.563 250.915 288.552 250.856C288.624 247.624 288.92 244.368 289.264 241.128Z" fill="#263238"/>
<path d="M301.08 187.496C301.432 185.52 301.96 183.592 302.488 181.656C302.488 181.6 302.592 181.656 302.576 181.656C302.088 183.552 301.736 185.488 301.376 187.408C301.016 189.328 300.696 191.344 300.416 193.32C300.416 193.32 300.36 193.36 300.36 193.32C300.489 191.367 300.73 189.422 301.08 187.496Z" fill="#263238"/>
<path d="M309.424 192.848C310.776 191.953 312.187 191.151 313.648 190.448C314.352 190.088 315.072 189.736 315.784 189.392C316.496 189.048 317.296 188.736 318.032 188.368C318.08 188.368 318.12 188.416 318.032 188.44C317.32 188.8 316.648 189.24 315.952 189.608L313.792 190.792C312.376 191.552 310.976 192.392 309.488 193.016C309.471 193.011 309.456 193.003 309.443 192.991C309.43 192.979 309.42 192.964 309.414 192.948C309.408 192.932 309.405 192.914 309.407 192.897C309.409 192.879 309.415 192.863 309.424 192.848Z" fill="#263238"/>
<path opacity="0.1" d="M286.096 207.056C286.096 207.056 273.816 204.12 268.176 195.856C262.792 187.992 261.048 174.576 260.912 173.392C261.128 174.48 263.664 186.192 272.024 191.664C278.432 195.872 284.624 199.312 286.096 207.056Z" fill="#263238"/>
<path d="M286.096 207.056C286.096 207.056 273.816 204.12 268.176 195.856C262.792 187.992 261.048 174.576 260.912 173.392C260.908 173.365 260.908 173.339 260.912 173.312C260.912 173.312 266.8 181.688 272.992 183.824C279.184 185.96 287.872 193.368 286.096 207.056Z" fill="#9D8DFE"/>
<path d="M263.072 177.952C264.174 180.21 265.445 182.381 266.872 184.448C268.303 186.409 270.002 188.16 271.92 189.648C273.592 190.976 275.352 192.176 277.04 193.472V193.408C276.72 192.944 276.384 192.48 276.032 192.04C275.328 191.136 274.56 190.288 273.784 189.448C272.264 187.792 270.704 186.168 269.336 184.376C268.573 183.379 267.914 182.307 267.368 181.176C267.368 181.12 267.424 181.096 267.448 181.176C269.44 185.328 273.424 187.984 276.248 191.488C276.65 191.986 277.026 192.504 277.376 193.04C277.658 193.429 277.897 193.847 278.088 194.288C279.644 195.536 281.05 196.958 282.28 198.528C282.174 197.717 282.008 196.915 281.784 196.128C281.5 195.034 281.061 193.986 280.48 193.016C280.48 192.968 280.528 192.912 280.56 192.968C281.153 193.94 281.633 194.976 281.992 196.056C282.252 196.916 282.402 197.806 282.44 198.704C283.049 199.53 283.604 200.393 284.104 201.288C284.048 201.024 284 200.76 283.952 200.488C283.704 199.264 283.44 198.04 283.152 196.832C282.573 194.373 281.574 192.032 280.2 189.912C280.16 189.864 280.2 189.816 280.272 189.864C281.681 191.952 282.783 194.231 283.544 196.632C283.936 197.84 284.248 199.032 284.528 200.304C284.664 200.904 284.784 201.512 284.896 202.12C284.96 202.432 285.024 202.76 285.08 203.08C286.296 205.756 287.245 208.546 287.912 211.408C289.116 216.523 289.99 221.709 290.528 226.936C291.163 232.408 291.446 237.916 291.376 243.424C291.376 244.12 291.32 244.808 291.288 245.496C291.288 245.672 291.008 245.704 291 245.496C290.88 242.768 290.808 240.04 290.648 237.32C290.488 234.6 290.248 231.88 289.96 229.16C289.4 223.824 288.545 218.522 287.4 213.28C286.4 208.792 285.112 204.272 282.656 200.336C281.436 198.377 279.944 196.602 278.224 195.064C276.504 193.52 274.624 192.168 272.808 190.736C270.968 189.335 269.298 187.725 267.832 185.936C266.333 183.952 265.026 181.831 263.928 179.6L263.048 177.936C262.968 177.952 263.024 177.904 263.072 177.952Z" fill="#263238"/>
<path d="M265.192 179.76C266 181.417 266.914 183.02 267.928 184.56C267.928 184.56 267.928 184.632 267.872 184.56C266.817 183.04 265.891 181.434 265.104 179.76C265.08 179.736 265.168 179.704 265.192 179.76Z" fill="#263238"/>
<path d="M331.168 201.624C331.168 201.624 331.368 219.08 320.928 224.112C310.488 229.144 304.928 224.96 297.808 226.648C298.08 226.232 303.144 218.952 311.192 216.952C319.48 214.88 328.624 208.896 331.168 201.624Z" fill="#9D8DFE"/>
<path opacity="0.1" d="M331.168 201.624C331.168 201.624 331.368 219.08 320.928 224.112C310.488 229.144 304.928 224.96 297.808 226.648C301.556 224.86 305.563 223.675 309.68 223.136C316.264 222.336 328.832 218.056 331.168 201.624Z" fill="black"/>
<path d="M297.12 226.96C298.36 225.824 299.759 224.876 301.272 224.144C301.488 224.04 301.72 223.952 301.952 223.856C302.058 223.715 302.173 223.582 302.296 223.456C302.616 223.128 302.936 222.816 303.28 222.52C303.937 221.957 304.641 221.451 305.384 221.008C307.112 219.992 309.008 219.28 310.776 218.336C310.824 218.336 310.872 218.384 310.816 218.416C309.944 218.864 309.096 219.368 308.248 219.864C307.4 220.36 306.576 220.808 305.768 221.328C305.045 221.794 304.355 222.31 303.704 222.872C303.52 223.032 303.344 223.208 303.168 223.384C304.323 222.996 305.501 222.684 306.696 222.448C308.608 222.064 310.536 221.792 312.448 221.384C313.383 221.184 314.307 220.936 315.216 220.64C316.08 219.936 316.944 219.248 317.768 218.488C318.759 217.578 319.662 216.576 320.464 215.496C320.464 215.456 320.576 215.496 320.536 215.544C319.271 217.257 317.84 218.841 316.264 220.272C316.712 220.096 317.152 219.912 317.592 219.712C321.179 218.106 324.256 215.547 326.488 212.312C326.488 212.264 326.6 212.312 326.568 212.36C324.67 215.135 322.219 217.489 319.368 219.272C317.942 220.163 316.417 220.885 314.824 221.424C312.974 221.997 311.087 222.444 309.176 222.76C307.304 223.064 305.457 223.502 303.648 224.072C301.983 224.636 300.417 225.46 299.008 226.512C296.351 228.577 294.21 231.231 292.752 234.264C290.882 238.303 289.715 242.632 289.304 247.064C289.304 247.248 289 247.248 289.008 247.064C289.496 239.688 291.464 232.048 297.12 226.96Z" fill="#263238"/>
<path d="M309.232 221.264C309.777 220.45 310.513 219.782 311.376 219.32C312.366 218.803 313.236 218.084 313.928 217.208C313.928 217.16 314.04 217.208 314 217.256C313.374 218.054 312.613 218.736 311.752 219.272C310.805 219.777 309.969 220.468 309.296 221.304C309.264 221.344 309.2 221.304 309.232 221.264Z" fill="#263238"/>
<path d="M303.688 239.84L303.216 249.44L301.76 278.76H279.864L278.408 249.44L277.936 239.84H303.688Z" fill="#37474F"/>
<path d="M303.688 239.84L303.216 249.44H278.408L277.936 239.84H303.688Z" fill="#263238"/>
<path d="M305.224 235.832H276.4V244.992H305.224V235.832Z" fill="#37474F"/>
<path d="M0 278.76L41.552 278.568L83.112 278.496L166.224 278.36L249.336 278.496L290.896 278.568L332.448 278.76L290.896 278.96L249.336 279.032L166.224 279.16L83.112 279.024L41.552 278.96L0 278.76Z" fill="#263238"/>
<path d="M266.4 300.144V21.3201C266.4 15.6249 261.783 11.0081 256.088 11.0081L76.3681 11.0081C70.673 11.0081 66.0562 15.6249 66.0562 21.3201V300.144C66.0562 305.839 70.673 310.456 76.3681 310.456H256.088C261.783 310.456 266.4 305.839 266.4 300.144Z" fill="#263238"/>
<path d="M257.944 31.9681H74.7361V289.68H257.944V31.9681Z" fill="white"/>
<path d="M188.016 23.7281V22.6161C188.016 22.0638 187.568 21.6161 187.016 21.6161L145.416 21.6161C144.864 21.6161 144.416 22.0638 144.416 22.6161V23.7281C144.416 24.2804 144.864 24.7281 145.416 24.7281L187.016 24.7281C187.568 24.7281 188.016 24.2804 188.016 23.7281Z" fill="#37474F"/>
<path d="M166.224 305.448C169.339 305.448 171.864 302.923 171.864 299.808C171.864 296.693 169.339 294.168 166.224 294.168C163.109 294.168 160.584 296.693 160.584 299.808C160.584 302.923 163.109 305.448 166.224 305.448Z" fill="#37474F"/>
<path d="M229.72 67.36H102.968V69.144H229.72V67.36Z" fill="#EBEBEB"/>
<path d="M229.72 72.8961H102.968V74.6801H229.72V72.8961Z" fill="#EBEBEB"/>
<path d="M229.72 241.48H102.968V243.264H229.72V241.48Z" fill="#EBEBEB"/>
<path d="M229.72 247.016H102.968V248.8H229.72V247.016Z" fill="#EBEBEB"/>
<path d="M133.784 266.224C137.018 266.224 139.64 263.602 139.64 260.368C139.64 257.134 137.018 254.512 133.784 254.512C130.55 254.512 127.928 257.134 127.928 260.368C127.928 263.602 130.55 266.224 133.784 266.224Z" fill="#9D8DFE"/>
<path d="M133.88 263.784L130.392 260.256L131.568 259.096L133.6 261.16L137.84 254.52L139.224 255.408L133.88 263.784Z" fill="white"/>
<path d="M148.448 260.32C148.452 259.9 148.528 259.483 148.672 259.088C148.82 258.686 149.046 258.316 149.336 258C149.645 257.651 150.026 257.373 150.453 257.187C150.88 257 151.342 256.909 151.808 256.92C152.369 256.91 152.923 257.054 153.408 257.336C153.843 257.588 154.195 257.961 154.424 258.408L153.424 259.136C153.344 258.955 153.233 258.79 153.096 258.648C152.975 258.526 152.838 258.421 152.688 258.336C152.541 258.261 152.385 258.205 152.224 258.168C152.069 258.137 151.911 258.12 151.752 258.12C151.452 258.112 151.154 258.181 150.888 258.32C150.647 258.446 150.437 258.624 150.272 258.84C150.107 259.059 149.983 259.306 149.904 259.568C149.723 260.113 149.723 260.703 149.904 261.248C149.993 261.517 150.132 261.766 150.312 261.984C150.489 262.193 150.703 262.367 150.944 262.496C151.192 262.623 151.466 262.688 151.744 262.688C151.906 262.685 152.067 262.664 152.224 262.624C152.389 262.589 152.549 262.53 152.696 262.448C152.848 262.36 152.988 262.253 153.112 262.128C153.243 261.987 153.349 261.825 153.424 261.648L154.504 262.272C154.397 262.528 154.239 262.759 154.04 262.952C153.839 263.148 153.61 263.313 153.36 263.44C152.851 263.713 152.282 263.856 151.704 263.856C151.241 263.86 150.784 263.756 150.368 263.552C149.973 263.355 149.62 263.083 149.328 262.752C149.037 262.422 148.807 262.043 148.648 261.632C148.496 261.212 148.428 260.766 148.448 260.32Z" fill="#9D8DFE"/>
<path d="M158.288 263.824C157.818 263.831 157.353 263.73 156.928 263.528C156.133 263.143 155.517 262.467 155.208 261.64C155.049 261.235 154.968 260.803 154.968 260.368C154.968 259.921 155.055 259.478 155.224 259.064C155.387 258.657 155.623 258.282 155.92 257.96C156.221 257.628 156.582 257.357 156.984 257.16C157.404 256.972 157.86 256.876 158.32 256.88C158.786 256.871 159.247 256.976 159.664 257.184C160.063 257.378 160.42 257.65 160.712 257.984C161.019 258.32 161.261 258.711 161.424 259.136C161.581 259.539 161.663 259.968 161.664 260.4C161.664 260.847 161.577 261.29 161.408 261.704C161.251 262.11 161.018 262.482 160.72 262.8C160.421 263.117 160.062 263.373 159.664 263.552C159.232 263.747 158.762 263.84 158.288 263.824ZM156.312 260.368C156.313 260.659 156.359 260.947 156.448 261.224C156.532 261.487 156.662 261.734 156.832 261.952C157.006 262.161 157.217 262.335 157.456 262.464C157.717 262.592 158.005 262.656 158.296 262.648C158.593 262.654 158.886 262.588 159.152 262.456C159.393 262.326 159.605 262.149 159.776 261.936C159.944 261.714 160.074 261.465 160.16 261.2C160.239 260.941 160.282 260.671 160.288 260.4C160.289 260.109 160.24 259.819 160.144 259.544C160.059 259.28 159.926 259.033 159.752 258.816C159.586 258.602 159.373 258.429 159.128 258.312C158.88 258.189 158.606 258.126 158.328 258.128C158.034 258.122 157.743 258.188 157.48 258.32C157.234 258.441 157.02 258.62 156.856 258.84C156.686 259.058 156.556 259.305 156.472 259.568C156.379 259.825 156.325 260.095 156.312 260.368Z" fill="#9D8DFE"/>
<path d="M163.96 259.408V263.776H162.64V256.96H163.664L167.216 261.432V256.968H168.544V263.776H167.464L163.96 259.408Z" fill="#9D8DFE"/>
<path d="M169.96 263.776V256.96H174.544V258.12H171.288V259.88H173.992V260.952H171.288V263.776H169.96Z" fill="#9D8DFE"/>
<path d="M175.472 263.776V256.96H176.8V263.776H175.472Z" fill="#9D8DFE"/>
<path d="M178.224 263.776V256.96H181.24C181.542 256.957 181.84 257.023 182.112 257.152C182.37 257.284 182.603 257.46 182.8 257.672C182.988 257.889 183.139 258.135 183.248 258.4C183.352 258.654 183.406 258.926 183.408 259.2C183.415 259.626 183.302 260.045 183.08 260.408C182.875 260.764 182.561 261.045 182.184 261.208L183.736 263.776H182.224L180.832 261.488H179.528V263.776H178.224ZM179.552 260.328H181.216C181.334 260.331 181.451 260.301 181.552 260.24C181.658 260.183 181.751 260.104 181.824 260.008C181.907 259.903 181.97 259.784 182.008 259.656C182.057 259.517 182.081 259.371 182.08 259.224C182.079 259.074 182.052 258.925 182 258.784C181.953 258.655 181.883 258.536 181.792 258.432C181.709 258.337 181.608 258.258 181.496 258.2C181.389 258.146 181.272 258.119 181.152 258.12H179.552V260.328Z" fill="#9D8DFE"/>
<path d="M190.16 263.776V259.264L188.408 262.624H187.688L185.928 259.264V263.776H184.624V256.96H186.048L188.064 260.84L190.096 256.96H191.512V263.776H190.16Z" fill="#9D8DFE"/>
<path d="M197.64 262.616V263.776H192.904V256.96H197.552V258.12H194.224V259.72H197.096V260.8H194.224V262.576L197.64 262.616Z" fill="#9D8DFE"/>
<path d="M198.68 263.776V256.96H201.152C201.654 256.947 202.153 257.04 202.616 257.232C203.018 257.394 203.378 257.643 203.672 257.96C203.956 258.272 204.171 258.64 204.304 259.04C204.597 259.926 204.597 260.882 204.304 261.768C204.158 262.169 203.927 262.533 203.628 262.837C203.328 263.14 202.967 263.376 202.568 263.528C202.125 263.7 201.652 263.784 201.176 263.776H198.68ZM203.176 260.36C203.182 260.053 203.136 259.748 203.04 259.456C202.962 259.194 202.828 258.951 202.648 258.744C202.475 258.544 202.259 258.385 202.016 258.28C201.741 258.171 201.448 258.117 201.152 258.12H200V262.616H201.152C201.452 262.619 201.749 262.559 202.024 262.44C202.268 262.332 202.484 262.171 202.656 261.968C202.831 261.756 202.961 261.511 203.04 261.248C203.136 260.962 203.182 260.662 203.176 260.36Z" fill="#9D8DFE"/>
<path d="M216.336 229.056H116.112V144.272L166.216 112.448L216.336 144.272V229.056Z" fill="#9D8DFE"/>
<path opacity="0.2" d="M216.336 229.056H116.112V144.272L166.216 112.448L216.336 144.272V229.056Z" fill="black"/>
<path d="M210.68 108.416H121.76V222.568H210.68V108.416Z" fill="#EBEBEB"/>
<path d="M160.808 176.712L140.448 156.104L147.288 149.344L159.184 161.384L183.888 122.648L192 127.816L160.808 176.712Z" fill="#9D8DFE"/>
<path d="M216.336 165.536V229.056H116.112V165.536C120.416 167.936 124.648 170.528 128.912 173.024C133.176 175.52 137.4 178.112 141.616 180.704C146.312 183.56 151.008 186.472 155.688 189.4L155.84 189.312C155.792 189.312 155.76 189.392 155.72 189.416C159.219 191.576 162.72 193.749 166.224 195.936C169.712 193.736 173.224 191.52 176.728 189.352C176.688 189.352 176.656 189.28 176.608 189.248C176.655 189.281 176.706 189.308 176.76 189.328C181.437 186.411 186.128 183.509 190.832 180.624C195.051 178.048 199.28 175.493 203.52 172.96C207.824 170.488 212.032 167.936 216.336 165.536Z" fill="#9D8DFE"/>
<g opacity="0.2">
<path d="M216.336 165.536C212.288 168.376 208.168 171.136 204.088 173.904C200.008 176.672 195.856 179.376 191.712 182.088C187.392 184.92 183.064 187.725 178.728 190.504L178.336 190.776L166.792 198.136L166.216 198.48L165.656 198.136L154.128 190.76L153.72 190.504C149.373 187.72 145.04 184.909 140.72 182.072C136.592 179.376 132.472 176.64 128.36 173.904C124.248 171.168 120.16 168.336 116.112 165.536C120.416 167.936 124.648 170.528 128.912 173.024C133.176 175.52 137.4 178.112 141.616 180.704C146.312 183.56 151.008 186.472 155.688 189.4C159.208 191.571 162.72 193.749 166.224 195.936C169.712 193.736 173.224 191.52 176.728 189.352C181.405 186.435 186.096 183.533 190.8 180.648C195.019 178.072 199.248 175.517 203.488 172.984C207.824 170.488 212.032 167.936 216.336 165.536Z" fill="black"/>
<path d="M155.824 189.272C155.776 189.272 155.744 189.352 155.704 189.376L154.104 190.72C151.592 192.84 149.016 194.872 146.4 196.848C143.2 199.248 139.944 201.648 136.664 203.936C133.384 206.224 130.056 208.464 126.664 210.632C123.272 212.8 119.864 214.92 116.328 216.864C119.368 214.2 122.528 211.712 125.72 209.296C128.912 206.88 132.192 204.496 135.456 202.2C138.72 199.904 142.08 197.656 145.464 195.488C148.16 193.76 150.904 192.056 153.696 190.464C154.344 190.088 154.992 189.728 155.656 189.36L155.824 189.272Z" fill="black"/>
<path d="M216.096 216.864C212.56 214.92 209.128 212.8 205.76 210.632C202.392 208.464 199.024 206.208 195.744 203.936C192.464 201.664 189.2 199.28 186.008 196.848C183.408 194.872 180.832 192.848 178.336 190.736L176.736 189.376C176.696 189.376 176.664 189.304 176.616 189.272C176.663 189.305 176.714 189.332 176.768 189.352C177.432 189.728 178.08 190.088 178.728 190.464C181.52 192.064 184.248 193.76 186.96 195.488C190.344 197.656 193.656 199.912 196.952 202.2C200.248 204.488 203.496 206.856 206.688 209.296C209.88 211.736 213.056 214.2 216.096 216.864Z" fill="black"/>
</g>
<path d="M123.344 102.976C122.811 98.5789 122.811 94.1333 123.344 89.7361C123.878 94.1333 123.878 98.5789 123.344 102.976Z" fill="#263238"/>
<path d="M117.712 105.08C115.959 103.727 114.299 102.257 112.744 100.68C111.165 99.1299 109.695 97.4726 108.344 95.7201C111.831 98.4529 114.976 101.595 117.712 105.08Z" fill="#263238"/>
<path d="M115.224 110.544C113.028 110.829 110.815 110.962 108.6 110.944C106.388 110.969 104.178 110.838 101.984 110.552C104.177 110.264 106.388 110.13 108.6 110.152C110.814 110.131 113.028 110.262 115.224 110.544Z" fill="#263238"/>
<path d="M117.328 116.168C114.592 119.652 111.45 122.797 107.968 125.536C110.698 122.044 113.841 118.896 117.328 116.16V116.168Z" fill="#263238"/>
<path d="M208.504 102.976C208.226 100.779 208.095 98.5664 208.112 96.3521C208.096 94.14 208.233 91.9295 208.52 89.7361C209.053 94.1333 209.053 98.5789 208.52 102.976H208.504Z" fill="#263238"/>
<path d="M214.136 105.08C216.872 101.595 220.017 98.4529 223.504 95.7201C222.153 97.4726 220.683 99.1299 219.104 100.68C217.549 102.257 215.89 103.727 214.136 105.08Z" fill="#263238"/>
<path d="M216.624 110.544C218.821 110.262 221.034 110.131 223.248 110.152C225.46 110.13 227.671 110.263 229.864 110.552C227.671 110.838 225.46 110.969 223.248 110.944C221.034 110.962 218.82 110.829 216.624 110.544Z" fill="#263238"/>
<path d="M214.52 116.168C218.007 118.901 221.15 122.047 223.88 125.536C222.129 124.18 220.472 122.707 218.92 121.128C217.341 119.578 215.871 117.92 214.52 116.168Z" fill="#263238"/>
<path d="M101.656 334.432C99.928 334.992 50.704 334.352 48.856 333.136C48.144 332.688 47.816 325.512 47.672 316.824V316.552C47.672 314.768 47.616 312.92 47.608 311.056C47.608 310.8 47.608 310.544 47.608 310.256L50.008 284.72L82.936 285.048L79.68 310.344V311.344L79.48 316.576V317.12C79.48 317.12 98.216 325.792 100.12 327.344C102.024 328.896 103.376 333.888 101.656 334.432Z" fill="#F7A9A0"/>
<path d="M101.656 334.432C99.928 334.992 50.704 334.352 48.856 333.136C48.144 332.688 47.816 325.512 47.672 316.824V316.552C47.672 314.768 47.616 312.92 47.608 311.056C47.608 310.8 47.608 310.544 47.608 310.256L79.672 310.344V311.344L79.472 316.576V317.12C79.472 317.12 98.208 325.792 100.112 327.344C102.016 328.896 103.376 333.888 101.656 334.432Z" fill="#EBEBEB"/>
<path d="M101.8 334.552C100.056 335.112 50.384 334.64 48.504 333.424C47.784 332.968 47.432 325.728 47.256 316.968L79.256 317.184C79.256 317.184 98.192 325.872 100.12 327.424C102.048 328.976 103.536 333.984 101.8 334.552Z" fill="#9D8DFE"/>
<path d="M101.104 332.56C92.784 332.272 59.176 331.912 50.928 332.264C50.864 332.264 50.864 332.312 50.928 332.32C59.176 332.776 92.776 332.864 101.104 332.696C101.28 332.688 101.28 332.56 101.104 332.56Z" fill="#263238"/>
<path d="M96.96 325.608C96.035 325.577 95.1135 325.737 94.2531 326.079C93.3928 326.42 92.6122 326.935 91.96 327.592C90.7821 328.772 90.1008 330.358 90.056 332.024C90.056 332.072 90.152 332.072 90.16 332.024C90.4575 330.378 91.2812 328.872 92.5074 327.734C93.7336 326.596 95.2961 325.886 96.96 325.712C96.9685 325.716 96.9777 325.717 96.9868 325.716C96.9959 325.715 97.0046 325.712 97.0122 325.707C97.0198 325.701 97.026 325.694 97.0303 325.686C97.0346 325.678 97.0368 325.669 97.0368 325.66C97.0368 325.651 97.0346 325.642 97.0303 325.634C97.026 325.626 97.0198 325.619 97.0122 325.614C97.0046 325.609 96.9959 325.605 96.9868 325.604C96.9777 325.603 96.9685 325.605 96.96 325.608Z" fill="#263238"/>
<path d="M82.504 318.048C79.168 317.968 75.304 319.104 73.2 321.808C73.12 321.92 73.272 322.032 73.368 321.976C76.2982 320.479 79.3796 319.299 82.56 318.456C82.6082 318.442 82.6497 318.412 82.6771 318.37C82.7045 318.328 82.7158 318.277 82.709 318.228C82.7022 318.178 82.6777 318.133 82.64 318.1C82.6024 318.067 82.5541 318.048 82.504 318.048Z" fill="#263238"/>
<path d="M85.064 319.072C81.736 318.992 77.864 320.136 75.76 322.84C75.68 322.944 75.832 323.056 75.928 323.008C78.8571 321.507 81.9387 320.324 85.12 319.48C85.1682 319.466 85.2097 319.436 85.2371 319.394C85.2645 319.352 85.2758 319.301 85.269 319.252C85.2622 319.202 85.2377 319.157 85.2 319.124C85.1624 319.091 85.1141 319.072 85.064 319.072Z" fill="#263238"/>
<path d="M87.632 320.096C84.296 320.024 80.432 321.16 78.328 323.864C78.248 323.968 78.392 324.088 78.496 324.032C81.424 322.537 84.5026 321.357 87.68 320.512C87.7249 320.495 87.7628 320.464 87.7878 320.422C87.8128 320.381 87.8233 320.333 87.8178 320.285C87.8123 320.238 87.7911 320.193 87.7574 320.159C87.7237 320.125 87.6796 320.103 87.632 320.096Z" fill="#263238"/>
<path d="M90.224 321.128C86.896 321.048 83.024 322.192 80.92 324.896C80.84 325 80.992 325.112 81.088 325.064C83.9992 323.567 87.0619 322.384 90.224 321.536C90.2712 321.527 90.3137 321.501 90.3442 321.464C90.3747 321.427 90.3914 321.38 90.3914 321.332C90.3914 321.284 90.3747 321.237 90.3442 321.2C90.3137 321.163 90.2712 321.138 90.224 321.128Z" fill="#263238"/>
<path d="M53.128 324.376C49.384 324.376 49.344 330.16 53.128 330.184C56.912 330.208 56.872 324.4 53.128 324.376Z" fill="white"/>
<path d="M86.224 309.184C84.552 307.768 82.408 309.12 81.36 310.56C79.5861 313.067 78.5044 315.998 78.224 319.056C78.224 319.12 78.272 319.152 78.328 319.152C78.3399 319.215 78.3667 319.274 78.406 319.324C78.4453 319.374 78.496 319.414 78.5539 319.441C78.6118 319.467 78.6753 319.48 78.739 319.477C78.8026 319.474 78.8647 319.456 78.92 319.424C81.32 317.824 84.064 316.368 85.888 314.072C86.944 312.736 87.776 310.528 86.224 309.184ZM82.064 316.232C80.912 317.032 79.72 317.832 78.6 318.688C79.1558 317.017 79.7967 315.374 80.52 313.768C80.8843 312.995 81.2985 312.247 81.76 311.528C82.496 310.432 85.76 307.68 86.088 311.312C86.224 313.312 83.408 315.248 82.032 316.232H82.064Z" fill="#263238"/>
<path d="M69.92 320.208C72.824 320.68 75.824 319.888 78.68 319.472C78.7416 319.456 78.7988 319.426 78.8469 319.384C78.8951 319.342 78.933 319.29 78.9578 319.231C78.9825 319.172 78.9934 319.109 78.9896 319.045C78.9858 318.981 78.9675 318.92 78.936 318.864C78.946 318.856 78.9541 318.845 78.9597 318.834C78.9652 318.822 78.9681 318.809 78.9681 318.796C78.9681 318.783 78.9652 318.77 78.9597 318.759C78.9541 318.747 78.946 318.736 78.936 318.728C76.6823 316.658 73.9231 315.217 70.936 314.552C69.184 314.192 66.696 314.64 66.416 316.816C66.136 318.872 68.232 319.936 69.92 320.208ZM67.928 318.336C65.704 315.456 69.992 315.264 71.272 315.576C72.0894 315.787 72.8913 316.055 73.672 316.376C75.32 317.032 76.872 317.904 78.416 318.712C77 318.832 75.608 319.072 74.192 319.24C72.536 319.416 69.16 319.88 67.928 318.336Z" fill="#263238"/>
<path opacity="0.1" d="M73.664 334.632C61.32 334.416 49.408 334.008 48.504 333.424C47.784 332.968 47.432 325.728 47.256 316.968H51.816C56.856 321.096 67.52 329.68 73.664 334.632Z" fill="black"/>
<path d="M81.584 316.736H46.136C46.136 316.736 53.272 233.944 52.992 232.496C52.64 230.64 50.544 222.264 47.76 211.312C46.888 207.888 45.944 204.216 44.968 200.408C42.32 190.104 39.368 178.848 36.872 169.048C33.064 154.376 30.088 142.976 30.088 142.976H60.128C60.128 142.976 63.632 154.072 68.048 168.52C75.248 191.984 84.848 224.288 85.792 232.144C87.328 244.808 81.584 316.736 81.584 316.736Z" fill="#37474F"/>
<path d="M80.016 310.672C74.6 310.56 76.152 310.52 70.736 310.464C68.088 310.464 50.68 310.288 48.2 310.696C48.1851 310.696 48.1709 310.702 48.1604 310.713C48.1499 310.723 48.144 310.737 48.144 310.752C48.144 310.767 48.1499 310.781 48.1604 310.792C48.1709 310.802 48.1851 310.808 48.2 310.808C50.68 311.216 68.088 311.064 70.736 311.04C76.152 310.992 74.6 310.944 80.016 310.832C80.0372 310.832 80.0576 310.824 80.0726 310.809C80.0876 310.794 80.096 310.773 80.096 310.752C80.096 310.731 80.0876 310.711 80.0726 310.696C80.0576 310.681 80.0372 310.672 80.016 310.672Z" fill="#263238"/>
<path d="M59.664 227.416C58.504 222.296 56.76 217.272 55.248 212.216C52.176 202.003 49.0854 191.789 45.976 181.576C44.424 176.472 42.8667 171.368 41.304 166.264C40.5147 163.688 39.7147 161.115 38.904 158.544C38.104 156.024 37.216 153.536 36.504 150.992C36.216 149.96 36.056 150.528 36.432 151.84C37.176 154.48 37.912 157.128 38.688 159.768C40.208 164.995 41.744 170.216 43.296 175.432C46.368 185.816 49.4667 196.192 52.592 206.56C54.1547 211.765 55.72 216.965 57.288 222.16C58.0809 224.635 58.7194 227.158 59.2 229.712C59.6225 232.381 59.7299 235.09 59.52 237.784C59.176 243.208 58.544 248.624 58.048 254.032C57.552 259.44 57.04 264.88 56.544 270.296C55.5467 281.091 54.5547 291.883 53.568 302.672C53.448 304.04 53.328 305.408 53.224 306.784C53.224 307.24 53.88 307.2 53.928 306.784C55.096 296.12 55.992 285.408 56.992 274.728C57.992 264.048 58.992 253.456 59.984 242.824C60.232 240.152 60.52 237.48 60.52 234.824C60.5135 232.33 60.2263 229.846 59.664 227.416Z" fill="#263238"/>
<path d="M56.72 142.96C54.632 159.096 50.656 189.36 47.76 211.296C40.984 184.736 30.088 142.96 30.088 142.96H56.72Z" fill="#263238"/>
<path d="M64.096 334.912C62.376 335.472 13.152 335.016 11.296 333.808C10.584 333.36 10.232 326.184 10.056 317.496V317.224C10.016 315.44 9.98402 313.592 9.97602 311.728C9.97602 311.472 9.97602 311.216 9.97602 310.928C9.86402 298.4 10.776 285.4 10.776 285.4L42.952 285.608L42.048 310.904V311.904L41.872 317.144V317.68C41.872 317.68 60.552 326.336 62.456 327.856C64.36 329.376 65.824 334.336 64.096 334.912Z" fill="#F7A9A0"/>
<path d="M64.096 334.912C62.376 335.472 13.152 335.016 11.296 333.808C10.584 333.36 10.232 326.184 10.056 317.496V317.224C10.016 315.44 9.98401 313.592 9.97601 311.728C9.97601 311.472 9.97601 311.216 9.97601 310.928H42.04V311.928L41.864 317.168V317.704C41.864 317.704 60.552 326.336 62.456 327.856C64.36 329.376 65.824 334.336 64.096 334.912Z" fill="#EBEBEB"/>
<path d="M64.296 334.808C62.552 335.368 12.88 334.896 11 333.68C10.28 333.224 9.92801 325.984 9.75201 317.224L41.752 317.44C41.752 317.44 60.688 326.128 62.608 327.68C64.528 329.232 66.032 334.24 64.296 334.808Z" fill="#9D8DFE"/>
<path d="M63.6 332.816C55.272 332.528 21.672 332.168 13.424 332.52C13.36 332.52 13.36 332.568 13.424 332.568C21.664 333.032 55.272 333.12 63.6 332.952C63.776 332.944 63.776 332.816 63.6 332.816Z" fill="#263238"/>
<path d="M59.456 325.864C58.5309 325.833 57.6092 325.993 56.7488 326.334C55.8884 326.675 55.1078 327.191 54.456 327.848C53.2753 329.026 52.5935 330.613 52.552 332.28C52.552 332.328 52.648 332.328 52.656 332.28C52.9535 330.634 53.7772 329.128 55.0034 327.99C56.2296 326.852 57.792 326.142 59.456 325.968C59.4664 325.964 59.4753 325.957 59.4816 325.948C59.4879 325.938 59.4912 325.927 59.4912 325.916C59.4912 325.905 59.4879 325.894 59.4816 325.885C59.4753 325.875 59.4664 325.868 59.456 325.864Z" fill="#263238"/>
<path d="M45 318.336C41.664 318.264 37.8 319.4 35.696 322.104C35.616 322.208 35.76 322.328 35.864 322.272C38.7942 320.776 41.8757 319.596 45.056 318.752C45.1011 318.735 45.139 318.702 45.1635 318.661C45.1881 318.619 45.1979 318.57 45.1915 318.522C45.185 318.474 45.1626 318.43 45.1279 318.396C45.0932 318.362 45.0482 318.341 45 318.336Z" fill="#263238"/>
<path d="M47.56 319.328C44.232 319.248 40.36 320.384 38.256 323.096C38.176 323.2 38.328 323.312 38.424 323.264C41.353 321.763 44.4347 320.58 47.616 319.736C47.6641 319.722 47.7057 319.692 47.7331 319.65C47.7604 319.608 47.7717 319.557 47.7649 319.508C47.7581 319.458 47.7337 319.413 47.696 319.38C47.6584 319.347 47.6101 319.328 47.56 319.328Z" fill="#263238"/>
<path d="M50.128 320.352C46.792 320.272 42.928 321.416 40.824 324.12C40.736 324.224 40.888 324.336 40.992 324.288C43.9179 322.788 46.9971 321.608 50.176 320.768C50.2209 320.751 50.2589 320.72 50.2839 320.678C50.3088 320.637 50.3194 320.589 50.3139 320.541C50.3084 320.494 50.2871 320.449 50.2534 320.415C50.2198 320.381 50.1756 320.359 50.128 320.352Z" fill="#263238"/>
<path d="M52.688 321.384C49.352 321.304 45.488 322.44 43.384 325.152C43.304 325.256 43.456 325.368 43.552 325.32C46.4804 323.817 49.5622 322.635 52.744 321.792C52.7921 321.778 52.8337 321.748 52.8611 321.706C52.8884 321.664 52.8997 321.613 52.8929 321.564C52.8861 321.514 52.8616 321.469 52.824 321.436C52.7863 321.403 52.7381 321.384 52.688 321.384Z" fill="#263238"/>
<path d="M15.624 324.632C11.88 324.632 11.84 330.416 15.624 330.44C19.408 330.464 19.368 324.656 15.624 324.632Z" fill="white"/>
<path d="M48.688 309.44C47.008 308.024 44.872 309.376 43.816 310.816C42.0545 313.324 40.984 316.251 40.712 319.304C40.7105 319.318 40.7122 319.332 40.7171 319.345C40.7219 319.357 40.7297 319.369 40.7398 319.378C40.7499 319.388 40.7621 319.395 40.7753 319.398C40.7885 319.402 40.8025 319.403 40.816 319.4C40.8269 319.463 40.8528 319.523 40.8917 319.574C40.9305 319.625 40.9811 319.667 41.0392 319.694C41.0973 319.721 41.1611 319.735 41.2253 319.732C41.2895 319.73 41.3522 319.712 41.408 319.68C43.808 318.08 46.552 316.624 48.376 314.32C49.424 312.976 50.272 310.776 48.688 309.44ZM44.528 316.488C43.376 317.288 42.184 318.088 41.064 318.936C41.6329 317.264 42.2871 315.622 43.024 314.016C43.3883 313.246 43.8025 312.5 44.264 311.784C45 310.688 48.264 307.936 48.592 311.56C48.72 313.536 45.904 315.504 44.528 316.488Z" fill="#263238"/>
<path d="M32.416 320.464C35.312 320.936 38.32 320.136 41.168 319.728C41.2283 319.713 41.2842 319.684 41.3316 319.643C41.3789 319.603 41.4164 319.552 41.4411 319.495C41.4658 319.438 41.4771 319.376 41.4741 319.314C41.4712 319.251 41.454 319.191 41.424 319.136C41.4355 319.128 41.445 319.117 41.4515 319.105C41.458 319.092 41.4614 319.078 41.4614 319.064C41.4614 319.05 41.458 319.036 41.4515 319.024C41.445 319.011 41.4355 319 41.424 318.992C39.1671 316.926 36.4092 315.487 33.424 314.816C31.672 314.464 29.184 314.912 28.904 317.088C28.624 319.136 30.728 320.184 32.416 320.464ZM30.424 318.544C28.2 315.664 32.488 315.48 33.768 315.792C34.5854 316.003 35.3873 316.271 36.168 316.592C37.7852 317.29 39.3659 318.07 40.904 318.928C39.488 319.048 38.096 319.28 36.688 319.456C35.024 319.672 31.656 320.136 30.424 318.544Z" fill="#263238"/>
<path d="M59.16 142.96C59.16 142.96 58.464 157.36 55.16 168.72C54.896 169.664 54.608 170.584 54.304 171.472C51.2921 172.695 48.3975 174.189 45.656 175.936C45.656 175.936 45.312 187.496 44.968 200.4C44.584 214.8 44.168 230.896 44.264 234.312C44.568 247.112 42.664 317.248 42.664 317.248L7.216 317.392C7.216 317.392 13.616 238.992 13.616 234.344C13.544 226.832 15.328 193.616 16.712 169.4C17.512 154.472 18.248 143 18.248 143L59.16 142.96Z" fill="#37474F"/>
<path d="M41.424 310.936C36.008 310.848 37.56 310.8 32.152 310.768C29.496 310.768 12.088 310.672 9.616 311.096C9.60115 311.096 9.5869 311.102 9.5764 311.112C9.5659 311.123 9.56 311.137 9.56 311.152C9.56 311.167 9.5659 311.181 9.5764 311.192C9.5869 311.202 9.60115 311.208 9.616 311.208C12.088 311.608 29.504 311.376 32.152 311.344C37.568 311.264 36.008 311.232 41.424 311.096C41.4452 311.096 41.4656 311.088 41.4806 311.073C41.4956 311.058 41.504 311.037 41.504 311.016C41.504 310.995 41.4956 310.975 41.4806 310.96C41.4656 310.945 41.4452 310.936 41.424 310.936Z" fill="#263238"/>
<path d="M21.2 148.096C20.544 167.872 19.856 187.648 18.968 207.408C18.08 227.168 16.888 247.072 15.232 266.848C14.304 277.904 13.424 293.456 12.232 304.448C12.232 304.52 12.336 304.552 12.352 304.448C14.928 284.832 16.352 260.584 17.64 240.84C18.928 221.096 19.768 201.336 20.44 181.576C20.824 170.376 21.112 159.176 21.448 148.024C21.424 147.936 21.208 147.936 21.2 148.096Z" fill="#263238"/>
<path d="M55.824 170.616C52.2875 172.093 48.8855 173.873 45.656 175.936C45.634 175.954 45.6188 175.978 45.6131 176.006C45.6074 176.034 45.6117 176.062 45.625 176.087C45.6383 176.112 45.66 176.131 45.6861 176.142C45.7123 176.152 45.7413 176.153 45.768 176.144C49.184 174.48 52.672 172.88 56 171.032C56.0423 171.001 56.0728 170.957 56.0868 170.907C56.1007 170.856 56.0972 170.803 56.0768 170.754C56.0564 170.706 56.0204 170.666 55.9745 170.641C55.9286 170.616 55.8756 170.607 55.824 170.616Z" fill="#263238"/>
<path d="M55.992 158.424C55.752 159.68 55.448 160.928 55.192 162.184C54.936 163.44 54.752 164.584 54.44 165.72C54.1818 166.843 53.6103 167.869 52.792 168.68C52.336 169.104 51.824 169.48 51.336 169.88L50.536 170.512C50.536 170.344 50.608 170.176 50.632 170C50.72 169.52 50.8 169.048 50.88 168.568C51.056 167.504 51.224 166.44 51.392 165.368C51.712 163.272 52 161.16 52.44 159.096C52.44 159.008 52.328 158.976 52.312 159.096C51.792 161.144 51.216 163.168 50.76 165.24C50.536 166.256 49.744 171.264 49.712 171.64C49.68 172.016 49.64 172.376 49.632 172.744C49.5795 173.116 49.5795 173.493 49.632 173.864C49.632 173.96 49.76 173.944 49.8 173.864C49.9557 173.518 50.0634 173.152 50.12 172.776C50.216 172.424 50.296 172.056 50.36 171.696C50.36 171.568 50.36 171.432 50.416 171.296C50.912 171 51.368 170.6 51.832 170.264C52.296 169.928 52.84 169.552 53.304 169.16C54.1466 168.412 54.7457 167.428 55.024 166.336C55.3287 165.156 55.5268 163.951 55.616 162.736C55.776 161.312 55.888 159.88 56.088 158.464C56.136 158.336 56.008 158.336 55.992 158.424Z" fill="#263238"/>
<path d="M43.024 110.392C45.768 118.656 58.056 144.928 63.216 146.768C68.592 148.672 89.352 151.048 93.96 147.424C96.216 145.64 97 126.624 93.96 127.104C90.92 127.584 72.616 128.248 70.44 127.472C68.264 126.696 53.728 105.536 47.824 100.384C37.64 91.5441 41.56 105.936 43.024 110.392Z" fill="#F7A9A0"/>
<path d="M89.368 126.784L89.072 150.456C89.072 150.456 67.784 150.512 62.112 147.528C56.44 144.544 44.44 117.192 41.44 106.728C38.44 96.2642 43.24 94.6482 50.864 102.328C58.488 110.008 69.952 126.104 71.312 126.432C72.672 126.76 89.368 126.784 89.368 126.784Z" fill="#9D8DFE"/>
<path d="M60.96 114.024C56.5798 114.759 52.3383 116.162 48.384 118.184L47.664 118.56C47.48 118.648 47.304 118.744 47.128 118.848C46.776 119.032 46.432 119.224 46.088 119.432L45.936 119.048L46.664 118.624L47.192 118.344C47.52 118.16 47.856 117.976 48.192 117.808C50.2226 116.755 52.3397 115.877 54.52 115.184C56.538 114.531 58.6026 114.03 60.696 113.688L60.96 114.024ZM65.712 120C65.3346 120.198 64.9474 120.377 64.552 120.536C63.5301 120.967 62.453 121.252 61.352 121.384C60.792 121.448 60.232 121.544 59.672 121.576L57.984 121.624C55.7257 121.563 53.4974 121.091 51.408 120.232C50.152 119.744 48.928 119.152 47.704 118.56C47.544 118.496 47.392 118.416 47.232 118.344C46.848 118.168 46.432 117.984 46.072 117.816L45.696 117.656L45.344 117.504L45.48 117.84C45.48 117.936 45.56 118.032 45.592 118.128H45.664L46.696 118.592L47.16 118.816C48.488 119.448 49.824 120.12 51.216 120.664C53.3613 121.547 55.6492 122.032 57.968 122.096L59.696 122.056C60.272 122.056 60.848 121.92 61.416 121.856C62.571 121.723 63.7019 121.429 64.776 120.984C65.2215 120.809 65.6569 120.608 66.08 120.384L65.712 120ZM57.52 109.808C56.0231 110.503 54.5673 111.283 53.16 112.144C50.5122 113.773 48.0025 115.617 45.656 117.656L45.44 117.84C45.44 117.936 45.52 118.032 45.552 118.128V118.192C45.552 118.192 45.552 118.192 45.6 118.192C45.736 118.072 45.864 117.952 46 117.848C48.3051 115.884 50.7636 114.108 53.352 112.536C54.7862 111.678 56.2627 110.893 57.776 110.184L57.52 109.808Z" fill="white"/>
<path d="M83.168 138.472C83.168 136.592 83.304 129.096 83.472 127.272H83.528C83.712 129.08 83.808 136.48 83.8 138.36C83.8618 142.098 83.7203 145.837 83.376 149.56C83.3715 149.572 83.3633 149.583 83.3526 149.59C83.3418 149.598 83.3291 149.602 83.316 149.602C83.303 149.602 83.2902 149.598 83.2795 149.59C83.2688 149.583 83.2606 149.572 83.256 149.56C82.976 145.872 83.128 142.168 83.168 138.472Z" fill="#263238"/>
<path opacity="0.1" d="M41.424 106.72C44.424 117.192 56.424 144.536 62.096 147.52C64.816 148.952 71.12 149.688 76.952 150.056L43.544 97.5361C40.688 97.2321 39.608 100.328 41.424 106.72Z" fill="black"/>
<path d="M14.528 164.312C14.656 164.44 66.592 160.888 67.024 160.312C67.632 159.512 51.192 106.712 47.072 98.9921C45.32 95.6881 36.92 95.2081 33.6 98.3361C25.288 106.152 19.504 131.424 18.288 139C16.272 151.496 14.064 163.856 14.528 164.312Z" fill="#9D8DFE"/>
<path d="M64.248 149.808L62.792 148.952C60.8295 147.809 58.808 146.77 56.736 145.84L55.6 145.344L55.048 145.12C53.518 144.488 51.9495 143.954 50.352 143.52C48.1687 142.911 45.9316 142.515 43.672 142.336C39.1375 142.14 34.6002 142.652 30.224 143.856L29.424 144.08C29.224 144.128 29.032 144.184 28.84 144.248C25.7908 145.18 22.8278 146.374 19.984 147.816C19.184 148.192 18.384 148.616 17.648 149.008L17.408 149.136L16.528 149.608L16.6 149.2L17.504 148.736C18.4 148.248 19.304 147.776 20.216 147.336C20.968 146.952 21.736 146.592 22.504 146.248C24.4358 145.362 26.4179 144.59 28.44 143.936L29.024 143.768C29.384 143.648 29.744 143.544 30.112 143.448C32.3159 142.828 34.5698 142.403 36.848 142.176C39.1219 141.929 41.4124 141.87 43.696 142C47.7126 142.343 51.648 143.329 55.352 144.92L55.896 145.16L56.848 145.584C58.9231 146.54 60.9448 147.609 62.904 148.784L64.152 149.52L64.248 149.808ZM61.56 141.008C60.232 141.808 58.936 142.608 57.648 143.456C56.848 143.952 56.12 144.456 55.352 144.944L55.048 145.144C54 145.816 52.936 146.464 51.848 147.072C49.9002 148.211 47.7786 149.021 45.568 149.472C44.4639 149.684 43.3357 149.74 42.216 149.64C41.656 149.584 41.088 149.568 40.536 149.488L38.872 149.192C36.6747 148.666 34.5906 147.747 32.72 146.48C31.592 145.744 30.52 144.88 29.432 144.08L29.016 143.768C28.68 143.512 28.336 143.256 27.992 143.016L27.664 142.776L27.184 142.448C25.2783 141.091 23.0176 140.321 20.68 140.232C19.7577 140.249 18.8464 140.436 17.992 140.784L17.92 141.216C18.7928 140.852 19.7266 140.657 20.672 140.64C22.9247 140.748 25.0965 141.513 26.92 142.84L27.2 143.032L27.528 143.264C27.832 143.48 28.136 143.704 28.432 143.936L28.848 144.248C30.024 145.144 31.192 146.072 32.448 146.888C34.3635 148.19 36.4995 149.133 38.752 149.672L40.464 149.984C41.032 150.064 41.608 150.088 42.184 150.144C43.3436 150.244 44.5114 150.188 45.656 149.976C47.9119 149.51 50.0747 148.672 52.056 147.496C53.248 146.824 54.408 146.096 55.552 145.344L55.848 145.16L57.864 143.84C59.112 143.04 60.376 142.24 61.656 141.44L61.56 141.008ZM60.68 138.176C59.2904 137.727 57.8777 137.353 56.448 137.056C54.1973 136.601 51.9039 136.392 49.608 136.432C47.3115 136.475 45.0231 136.716 42.768 137.152C40.5143 137.577 38.297 138.176 36.136 138.944C33.2134 139.994 30.3824 141.284 27.672 142.8C27.512 142.88 27.36 142.968 27.208 143.056C26.072 143.688 24.96 144.344 23.856 145.024C22.632 145.776 21.416 146.552 20.216 147.336C19.28 147.936 18.352 148.552 17.424 149.16L16.528 149.744C16.528 149.872 16.488 149.992 16.472 150.112C17.656 149.36 18.824 148.592 20 147.84C20.8 147.304 21.664 146.768 22.504 146.24C23.008 145.92 23.512 145.608 24.024 145.304C25.176 144.608 26.352 143.928 27.536 143.28L28 143.032C30.6554 141.578 33.4245 140.342 36.28 139.336C40.5659 137.81 45.0611 136.952 49.608 136.792C51.8808 136.74 54.1526 136.933 56.384 137.368C57.874 137.668 59.3457 138.053 60.792 138.52C60.752 138.384 60.712 138.264 60.68 138.152V138.176Z" fill="white"/>
<path d="M26.624 104.336C12.84 119.536 -2.704 145.224 3.944 150.736C10.024 155.744 32.2 150.976 46.144 145.528C48.8 144.488 38.032 121.016 35.328 122.408C32.481 123.924 29.5419 125.26 26.528 126.408C25.728 126.616 29.952 121.496 34.624 109.192C39.344 96.6242 34.504 95.6401 26.624 104.336Z" fill="#F7A9A0"/>
<path d="M69.208 120.632C69.208 123.36 62.496 122.824 62.496 122.824C63.4744 123.461 64.1989 124.421 64.544 125.536C65.048 127.544 62.144 129.224 62.144 129.224C63.0158 130.099 63.6088 131.213 63.848 132.424C64.136 134.392 61.448 136.512 61.448 136.512C61.8036 137.769 61.6957 139.112 61.144 140.296C59.544 143.408 54.168 143.496 50.848 144.168C47.1279 145.028 43.4839 146.189 39.952 147.64L33.776 123.12C33.776 123.12 48.176 114.568 52.176 114.76C55.552 114.992 69.192 116.456 69.208 120.632Z" fill="#F7A9A0"/>
<path d="M62.44 122.744C58.872 121.704 55.064 121.528 51.392 121.392C51.312 121.392 51.304 121.512 51.392 121.52C55.056 121.608 58.776 122.68 62.416 122.92C62.4394 122.923 62.463 122.917 62.4818 122.903C62.5005 122.889 62.5128 122.867 62.516 122.844C62.5192 122.821 62.513 122.797 62.4987 122.778C62.4845 122.76 62.4634 122.747 62.44 122.744Z" fill="#263238"/>
<path d="M62.024 128.976C61.191 128.819 60.341 128.774 59.496 128.84C58.6 128.84 57.704 128.88 56.808 128.92C55.0107 129 53.2187 129.128 51.432 129.304C51.352 129.304 51.344 129.432 51.432 129.432C53.224 129.352 55.016 129.296 56.8 129.288H59.488C60.3336 129.358 61.1844 129.331 62.024 129.208C62.0461 129.198 62.0647 129.181 62.0778 129.161C62.0909 129.14 62.0979 129.116 62.0979 129.092C62.0979 129.068 62.0909 129.044 62.0778 129.023C62.0647 129.003 62.0461 128.986 62.024 128.976Z" fill="#263238"/>
<path d="M61.32 136.584C60.5658 136.452 59.7943 136.452 59.04 136.584L56.624 136.736C55.024 136.824 53.352 136.92 51.712 136.952C51.695 136.952 51.6788 136.959 51.6668 136.971C51.6548 136.983 51.648 136.999 51.648 137.016C51.648 137.033 51.6548 137.049 51.6668 137.061C51.6788 137.073 51.695 137.08 51.712 137.08C53.376 137.08 55.04 137.08 56.704 137.008L59.152 136.936C59.8979 136.981 60.6458 136.892 61.36 136.672C61.3717 136.667 61.3808 136.657 61.3853 136.645C61.3898 136.633 61.3893 136.62 61.384 136.608C61.3787 136.596 61.369 136.587 61.357 136.583C61.345 136.578 61.3317 136.579 61.32 136.584Z" fill="#263238"/>
<path d="M33.08 122.92L38.392 149.32C38.392 149.32 5.37601 157.936 1.95201 149.584C-1.47199 141.232 17.952 110.216 29.152 101.368C40.352 92.5201 36.144 106.456 35.8 107.576C34.288 112.528 27.248 125.44 27.248 125.44L33.08 122.92Z" fill="#9D8DFE"/>
<path d="M38.3921 149.288C38.3921 149.288 5.37615 157.904 1.95215 149.552C0.112149 145.056 4.88015 134.008 11.4162 123.376L11.5201 123.208L11.6561 122.992C11.6961 122.92 11.7441 122.848 11.7921 122.776C14.1526 118.971 16.7052 115.289 19.4401 111.744L19.7202 111.384C22.475 107.695 25.6332 104.325 29.1361 101.336C40.3361 92.4882 36.1281 106.424 35.7841 107.544C35.6801 107.896 35.5441 108.288 35.3841 108.712C35.3201 108.872 35.2561 109.048 35.1841 109.224C34.2641 111.576 32.7842 114.744 31.2882 117.656L31.1122 118.008C31.1122 118.008 31.1122 118.088 31.0562 118.12L30.9601 118.304C29.0641 122.04 27.3441 125.208 27.2401 125.4L33.0801 122.92L38.3921 149.288Z" fill="#9D8DFE"/>
<path d="M31.288 117.656L31.112 118.008C31.112 118.008 31.112 118.088 31.056 118.12L30.656 118.376L27.4 120.496C25.4891 121.755 23.4922 122.877 21.424 123.856C20.377 124.339 19.2796 124.704 18.152 124.944C17.0105 125.21 15.8194 125.174 14.696 124.84C14.416 124.76 14.128 124.696 13.896 124.608L13.096 124.264C12.5643 124.037 12.0508 123.77 11.56 123.464L11.44 123.392L11.544 123.224L11.68 123.008C11.716 123.043 11.7564 123.072 11.8 123.096L11.912 123.16C12.3432 123.444 12.7983 123.691 13.272 123.896L14.072 124.232L14.872 124.464C15.9363 124.789 17.0668 124.83 18.152 124.584C19.2534 124.355 20.3265 124.007 21.352 123.544C23.4061 122.588 25.3921 121.492 27.296 120.264L29.896 118.6L30.576 118.16L31.288 117.656ZM30.488 118.144C26.384 119.144 22.36 120.416 18.264 121.416C16.12 121.952 13.944 122.424 11.76 122.776C11.712 122.848 11.664 122.92 11.624 122.992L11.488 123.208L11.856 123.144C14.04 122.776 16.208 122.288 18.352 121.744C22.2 120.776 25.976 119.576 29.808 118.584L30.608 118.376C30.704 118.376 30.808 118.32 30.912 118.304L31.008 118.12C31.008 118.12 31.008 118.048 31.064 118.008L30.488 118.144ZM30.752 111.496C29.7563 112.033 28.7149 112.48 27.64 112.832C26.5861 113.191 25.4702 113.333 24.36 113.248C22.6755 113.011 21.0729 112.372 19.688 111.384L19.408 111.744C20.8648 112.767 22.5472 113.423 24.312 113.656C25.481 113.741 26.6549 113.583 27.76 113.192C28.8678 112.832 29.9392 112.369 30.96 111.808C32.4137 111.019 33.8262 110.157 35.192 109.224C35.264 109.048 35.328 108.872 35.392 108.712C33.9054 109.72 32.3673 110.649 30.784 111.496H30.752Z" fill="white"/>
<path d="M32.512 122.944C28.72 124.272 18.784 129.232 16.6 131.264C16.5906 131.276 16.5855 131.291 16.5852 131.307C16.585 131.322 16.5897 131.337 16.5986 131.35C16.6076 131.362 16.6203 131.372 16.6349 131.376C16.6496 131.381 16.6654 131.381 16.68 131.376C18.824 129.864 31.08 123.856 33.024 123.12C33.024 123.12 33.12 123.352 33.16 123.416C33.2 123.48 33.272 123.456 33.272 123.368C33.238 123.152 33.1899 122.938 33.128 122.728L32.512 122.944Z" fill="#263238"/>
<path d="M29.688 137.696C29.328 135.856 27.952 128.48 27.752 126.624C27.752 126.624 27.752 126.584 27.8 126.624C28.344 128.352 29.912 135.592 30.28 137.432C31.0939 141.092 31.7055 144.793 32.112 148.52C32.112 148.584 32.016 148.624 31.992 148.52C31.024 144.984 30.392 141.32 29.688 137.696Z" fill="#263238"/>
<path d="M26.976 125.536C28.008 123.288 29.272 121.152 30.408 118.96C31.544 116.768 32.72 114.592 33.776 112.376H33.824C33.184 113.888 32.544 115.4 31.856 116.888C32.064 116.656 32.256 116.408 32.448 116.16C32.8 115.712 33.12 115.24 33.44 114.768C33.44 114.768 33.496 114.768 33.488 114.768C33.2389 115.298 32.9303 115.797 32.568 116.256C32.3002 116.601 32.006 116.925 31.688 117.224C31.408 117.832 31.112 118.44 30.808 119.04C29.823 121.273 28.6703 123.429 27.36 125.488C27.312 125.64 26.936 125.64 26.976 125.536Z" fill="#263238"/>
<path d="M16.016 153.008C19.912 152.96 34.624 150.072 38.264 149.32C38.216 148.936 38.264 148.8 38.168 148.256C38.168 148.184 38.272 148.152 38.288 148.256C38.384 148.776 38.736 149.808 38.592 149.856C36.84 150.544 19.84 153.512 16.016 153.192C16.0039 153.192 15.992 153.19 15.9808 153.185C15.9696 153.18 15.9595 153.174 15.951 153.165C15.9424 153.157 15.9356 153.146 15.931 153.135C15.9264 153.124 15.924 153.112 15.924 153.1C15.924 153.088 15.9264 153.076 15.931 153.065C15.9356 153.054 15.9424 153.044 15.951 153.035C15.9595 153.027 15.9696 153.02 15.9808 153.015C15.992 153.01 16.0039 153.008 16.016 153.008Z" fill="#263238"/>
<path d="M55.632 150.344L83.024 154.032L93.416 115.96L66.024 112.28L55.632 150.344Z" fill="#263238"/>
<path d="M56.984 150.52L84.368 154.208L94.76 116.144L67.376 112.456L56.984 150.52Z" fill="#37474F"/>
<path d="M79.696 132.12C79.5249 132.831 79.0991 133.455 78.4991 133.874C77.8992 134.293 77.1666 134.477 76.44 134.392C76.0972 134.356 75.7662 134.246 75.4696 134.071C75.173 133.895 74.9177 133.657 74.7211 133.374C74.5245 133.091 74.3912 132.769 74.3303 132.43C74.2693 132.09 74.2822 131.742 74.368 131.408C74.539 130.696 74.9645 130.071 75.5642 129.651C76.1639 129.232 76.8965 129.045 77.624 129.128C77.9677 129.164 78.2995 129.274 78.5968 129.45C78.8941 129.626 79.1499 129.865 79.3466 130.149C79.5433 130.433 79.6764 130.756 79.7367 131.096C79.797 131.436 79.7831 131.786 79.696 132.12Z" fill="white"/>
<path d="M94.488 123.992C95.632 127.192 98.896 131.36 98.944 133.888C98.9765 134.511 98.8083 135.127 98.4641 135.647C98.1199 136.167 97.6179 136.563 97.032 136.776C97.032 136.776 99.432 138.272 99.056 140.568C98.888 141.752 96.84 142.52 96.84 142.52C97.3578 142.887 97.764 143.389 98.0139 143.972C98.2638 144.556 98.3476 145.196 98.256 145.824C97.92 147.424 95.92 147.96 95.92 147.96C95.92 147.96 97.12 150.016 96.248 151.552C94.472 154.664 80.384 153.232 78.736 147.816C77.936 145.296 81.384 145.832 81.384 145.832C81.384 145.832 76.648 143.872 76.872 140.96C77.096 138.048 81.496 139.008 81.496 139.008C81.496 139.008 76.928 137.072 77.496 134.072C78.064 131.072 82.296 132.672 82.296 132.672C82.296 132.672 79.376 130.272 80.312 128.032C81.856 124.392 87.312 129.72 90.48 129.296L92.712 124.36L94.488 123.992Z" fill="#F7A9A0"/>
<path d="M96.864 128.736C96.064 125.608 100.16 122.264 99.808 119.136C99.336 114.936 94.304 118.496 92.672 124.352L92.2 129.152L96.864 128.736Z" fill="#F7A9A0"/>
<path d="M95.624 148.088C95.6346 148.088 95.6448 148.092 95.6523 148.1C95.6598 148.107 95.664 148.118 95.664 148.128C95.664 148.139 95.6598 148.149 95.6523 148.156C95.6448 148.164 95.6346 148.168 95.624 148.168C90.6974 148.861 85.6765 148.044 81.224 145.824C81.08 145.752 81.144 145.488 81.312 145.544C85.9339 147.082 90.7552 147.939 95.624 148.088Z" fill="#263238"/>
<path d="M96.904 142.552C96.96 142.552 96.96 142.648 96.904 142.656C91.4558 143.379 85.9286 142.131 81.32 139.136C81.16 139.024 81.128 138.768 81.32 138.88C84.544 140.736 92.328 142.48 96.904 142.552Z" fill="#263238"/>
<path d="M81.992 132.336C86.528 135.224 91.528 136.336 96.832 136.808C96.896 136.808 96.888 136.912 96.832 136.92C94.176 137.416 90.824 136.784 88.264 136.072C85.8671 135.459 83.6737 134.225 81.904 132.496C81.824 132.424 81.896 132.272 81.992 132.336Z" fill="#263238"/>
<path d="M48.04 101.024C48.136 103.424 48.208 108.872 44.512 108.464C43.0265 108.169 41.6573 107.453 40.568 106.4C39.4021 105.432 38.3476 104.337 37.424 103.136C36.3646 101.831 35.4122 100.442 34.576 98.9841C34.576 98.9281 34.448 98.9841 34.488 99.0481C35.336 100.512 36.04 102.024 37.032 103.408C37.9687 104.75 39.0829 105.958 40.344 107C41.5285 108.1 43.0227 108.81 44.624 109.032C45.3108 109.081 45.9931 108.889 46.5547 108.491C47.1163 108.093 47.5225 107.512 47.704 106.848C48.2503 104.956 48.3651 102.966 48.04 101.024Z" fill="#263238"/>
<path d="M44.4 106.056C41.728 106.288 37.36 101.256 36.08 97.8401C36.4157 96.06 36.8402 94.2978 37.352 92.5601C37.76 90.8721 38.152 88.9761 38.44 87.2241L49.048 91.5041C48.101 93.6077 47.4133 95.8186 47 98.0881C46.9764 98.3302 46.9764 98.574 47 98.8161C47 98.8161 47 98.8961 47 98.9361C47.024 100.336 46.976 105.832 44.4 106.056Z" fill="#F7A9A0"/>
<path d="M46.968 98.8161C46.9721 98.856 46.9721 98.8962 46.968 98.9361C46.5874 98.9337 46.2076 98.9016 45.832 98.8401C39.48 97.7601 39.12 89.7521 39.152 87.5201L41.808 88.5841L49.008 91.5042C48.0613 93.6071 47.3762 95.8183 46.968 98.0881C46.9448 98.3303 46.9448 98.574 46.968 98.8161Z" fill="#263238"/>
<path d="M37.224 75.2241C36.12 79.2241 38.488 90.5281 41.352 92.9921C45.512 96.5761 52.168 96.7601 55.176 91.7921C58.088 86.9921 54.744 72.2641 51.552 70.0401C46.856 66.7521 38.848 69.3521 37.224 75.2241Z" fill="#F7A9A0"/>
<path d="M48.4 82.3762C48.4 82.3762 48.352 82.4242 48.4 82.4562C48.576 83.2162 48.656 84.1202 48.016 84.5122C48.016 84.5122 48.016 84.5602 48.016 84.5522C48.808 84.2642 48.696 83.0722 48.4 82.3762Z" fill="#263238"/>
<path d="M47.56 81.7201C46.312 81.8801 46.76 84.3601 47.872 84.2161C48.984 84.0721 48.624 81.5921 47.56 81.7201Z" fill="#263238"/>
<path d="M52.744 81.5361C52.744 81.5361 52.816 81.5361 52.816 81.6001C52.92 82.4001 53.168 83.2401 53.904 83.3841V83.4241C53.032 83.4241 52.72 82.2721 52.744 81.5361Z" fill="#263238"/>
<path d="M53.304 80.6081C54.528 80.3121 55.032 82.7761 53.896 83.0081C52.76 83.2401 52.28 80.8561 53.304 80.6081Z" fill="#263238"/>
<path d="M46.392 80.7361C46.7042 80.5914 47.0062 80.4257 47.296 80.2401C47.6315 80.1099 47.9134 79.8703 48.096 79.5601C48.1372 79.4495 48.1407 79.3283 48.1059 79.2155C48.0712 79.1027 48.0002 79.0045 47.904 78.9361C47.6944 78.8292 47.46 78.7802 47.2251 78.7942C46.9902 78.8083 46.7633 78.8849 46.568 79.0161C46.1341 79.2215 45.7919 79.5807 45.608 80.0241C45.5669 80.131 45.559 80.2478 45.5855 80.3592C45.612 80.4707 45.6715 80.5715 45.7563 80.6485C45.841 80.7255 45.9471 80.775 46.0606 80.7907C46.174 80.8063 46.2895 80.7873 46.392 80.7361Z" fill="#263238"/>
<path d="M54.104 79.8481C53.752 79.8481 53.424 79.7841 53.072 79.7521C52.7049 79.769 52.3423 79.665 52.04 79.4561C51.9596 79.3704 51.9091 79.2609 51.8962 79.1441C51.8832 79.0273 51.9084 78.9094 51.968 78.8081C52.1178 78.6272 52.3132 78.4896 52.534 78.4094C52.7548 78.3293 52.993 78.3095 53.224 78.3521C53.7064 78.3651 54.1663 78.5593 54.512 78.8961C54.586 78.9767 54.6351 79.0769 54.6535 79.1847C54.6718 79.2926 54.6587 79.4034 54.6156 79.504C54.5725 79.6045 54.5013 79.6904 54.4106 79.7515C54.3198 79.8125 54.2133 79.8461 54.104 79.8481Z" fill="#263238"/>
<path d="M48.512 89.5761C48.7078 89.7726 48.9645 89.8967 49.24 89.9281C49.5271 89.8729 49.7996 89.7585 50.04 89.5921C50.04 89.5921 50.096 89.5921 50.04 89.6321C49.9531 89.8007 49.8228 89.943 49.6624 90.0443C49.5021 90.1456 49.3176 90.2021 49.128 90.2081C48.9654 90.1907 48.8113 90.1262 48.6849 90.0224C48.5584 89.9187 48.4649 89.7802 48.416 89.6241C48.432 89.5841 48.488 89.5361 48.512 89.5761Z" fill="#263238"/>
<path d="M48.944 86.9601C49.1905 87.2321 49.4902 87.4506 49.8246 87.6019C50.159 87.7533 50.521 87.8344 50.888 87.8401C51.2089 87.8464 51.5292 87.8087 51.84 87.7281L52.016 87.6801L52.176 87.6241C52.2167 87.61 52.2514 87.5825 52.2746 87.5463C52.2978 87.51 52.3082 87.467 52.304 87.4241C52.3086 87.3977 52.3086 87.3706 52.304 87.3441V87.2801C52.224 86.6801 52.016 85.7921 52.016 85.7921C52.248 85.8641 53.44 86.1841 53.368 85.8721C52.8641 83.2133 52.0894 80.6131 51.056 78.1121C51.0511 78.098 51.0419 78.0858 51.0297 78.0771C51.0175 78.0684 51.0029 78.0638 50.988 78.0638C50.973 78.0638 50.9584 78.0684 50.9463 78.0771C50.9341 78.0858 50.9249 78.098 50.92 78.1121C51.368 80.5761 52.256 82.9121 52.752 85.4001C52.3277 85.2814 51.8885 85.2248 51.448 85.2321C51.368 85.2321 51.88 86.9441 51.888 87.2161C51.4107 87.3436 50.9126 87.3739 50.4234 87.3052C49.9341 87.2365 49.4637 87.0702 49.04 86.8161C48.944 86.8401 48.888 86.9041 48.944 86.9601Z" fill="#263238"/>
<path d="M51.488 87.5841C51.2327 88.0497 50.864 88.4432 50.416 88.7281C50.1741 88.869 49.8951 88.9331 49.616 88.9121C48.984 88.8561 48.88 88.3041 48.912 87.8081C48.9288 87.5361 48.9799 87.2673 49.064 87.0081C49.7913 87.4502 50.6395 87.6517 51.488 87.5841Z" fill="#263238"/>
<path d="M50.416 88.7361C50.1741 88.8769 49.8951 88.9411 49.616 88.9201C48.984 88.8641 48.88 88.3121 48.912 87.8161C49.2292 87.7811 49.549 87.8525 49.8212 88.019C50.0935 88.1856 50.3027 88.4378 50.416 88.7361Z" fill="#FF9ABB"/>
<path d="M53.728 73.3441C53.088 72.4561 52.384 71.5681 51.744 71.4961C51.104 71.4241 51.032 72.9601 49.704 73.3441C47.904 73.8561 46.664 72.3761 44.104 72.7441C40.384 73.2801 39.432 76.6881 40.464 81.8961C41.384 86.5521 38.68 87.5921 38.68 87.5921C38.68 87.5921 34.776 77.7281 36.928 73.7201C39.08 69.7121 45.376 66.7921 50.528 69.0721C52.36 69.8961 53.728 73.3441 53.728 73.3441Z" fill="#263238"/>
<path d="M40.56 85.0081C40.56 85.0081 37.816 81.4481 36.192 82.4401C34.568 83.4321 36.736 88.6801 38.736 89.3201C38.9854 89.4205 39.2526 89.4692 39.5214 89.4632C39.7902 89.4571 40.055 89.3965 40.2996 89.2851C40.5443 89.1736 40.7637 89.0136 40.9446 88.8147C41.1255 88.6158 41.2642 88.3822 41.352 88.1281L40.56 85.0081Z" fill="#F7A9A0"/>
<path d="M36.848 83.9362C36.848 83.9362 36.848 83.9362 36.848 83.9922C37.4916 84.2782 38.0682 84.6957 38.5408 85.2179C39.0134 85.74 39.3715 86.3553 39.592 87.0242C39.5055 86.8901 39.3909 86.7763 39.2562 86.6908C39.1215 86.6052 38.9698 86.5499 38.8117 86.5286C38.6535 86.5073 38.4926 86.5205 38.34 86.5674C38.1875 86.6143 38.0469 86.6937 37.928 86.8002C37.928 86.8002 37.928 86.8802 37.968 86.8722C38.2065 86.7826 38.4668 86.7691 38.7132 86.8335C38.9596 86.898 39.18 87.0373 39.344 87.2322C39.6089 87.5642 39.8419 87.9204 40.04 88.2962C40.104 88.4162 40.328 88.3442 40.272 88.2002C40.216 86.4082 38.744 84.0162 36.848 83.9362Z" fill="#263238"/>
<path d="M46.792 67.6641C45.2314 67.2191 43.6148 67.0008 41.992 67.0161C40.16 67.0721 34.584 68.3921 33.408 69.7361C32.232 71.0801 32.712 76.4561 32.8 77.2401C32.888 78.0241 33.968 82.6721 35.856 83.5441C37.744 84.4161 36.656 76.3921 38.92 73.3201C41.184 70.2481 46.792 67.6641 46.792 67.6641Z" fill="#9D8DFE"/>
<path opacity="0.1" d="M46.792 67.6721C46.792 67.6721 41.192 70.2481 38.88 73.3201C36.568 76.3921 37.696 84.4081 35.824 83.5441C35.3876 83.3035 35.0032 82.9788 34.6929 82.5889C34.3826 82.1989 34.1525 81.7514 34.016 81.2721C34.016 78.8721 34.376 75.1121 35.928 72.2961C37.384 69.6641 40.336 67.9761 43.632 67.0721C44.7007 67.1802 45.758 67.3809 46.792 67.6721Z" fill="black"/>
<path d="M37.024 88.2161C36.84 86.0641 38.112 80.0161 39.872 76.3921C41.632 72.7681 48.008 69.8161 48.944 69.7201C51.232 69.4961 51.904 70.5201 52.232 70.2401C52.56 69.9601 49.888 67.7601 49.184 67.4801C48.1339 67.1418 47.0212 67.0434 45.928 67.1921C44.944 67.3681 38.968 68.9281 37.168 71.8641C35.368 74.8001 33.424 82.5521 34.224 84.3201C34.432 84.7441 35.024 84.9361 35.352 85.5441C35.736 86.3441 36.056 87.2641 36.4 87.8081C36.744 88.3521 37.04 88.4001 37.024 88.2161Z" fill="#9D8DFE"/>
<path d="M40.16 74.8481C39.605 74.6085 39.0699 74.3249 38.56 74.0001C38.0239 73.6781 37.5295 73.2912 37.088 72.8481C37.088 72.8481 37 72.8481 37.032 72.8961C37.4199 73.4095 37.8871 73.8578 38.416 74.2241C38.9474 74.5796 39.5422 74.8294 40.168 74.9601C40.1829 74.9591 40.1967 74.9522 40.2065 74.9409C40.2162 74.9297 40.2211 74.915 40.22 74.9001C40.219 74.8853 40.2121 74.8715 40.2008 74.8617C40.1895 74.852 40.1749 74.8471 40.16 74.8481Z" fill="#263238"/>
<path d="M36.672 86.0881C36.584 85.9441 36.464 85.8241 36.368 85.6881C36.2547 85.5349 36.1607 85.3683 36.088 85.1921C35.9888 84.8475 35.852 84.5148 35.68 84.2001C35.5025 83.9667 35.2984 83.7546 35.072 83.5681C34.8007 83.372 34.6034 83.0902 34.512 82.7681H34.448C34.544 83.4161 35.048 83.8081 35.416 84.3041C35.6031 84.6438 35.7584 84.9999 35.88 85.3681C36.0216 85.7041 36.2687 85.9849 36.584 86.1681C36.624 86.1921 36.696 86.1441 36.672 86.0881Z" fill="#263238"/>
<path d="M37.04 83.6721C36.8 83.4641 36.552 83.2801 36.328 83.0481C36.104 82.8161 35.928 82.5681 35.744 82.3201C35.56 82.0721 35.416 81.8081 35.24 81.5201C35.064 81.2321 34.8 80.9521 34.608 80.6401C34.608 80.6401 34.528 80.6401 34.552 80.6881C34.752 81.0001 34.888 81.3601 35.072 81.6801C35.2369 81.9576 35.4185 82.2248 35.616 82.4801C35.8026 82.7279 36.0115 82.9582 36.24 83.1681C36.4686 83.3881 36.7413 83.5571 37.04 83.6641C37.04 83.6641 37.056 83.6881 37.04 83.6721Z" fill="#263238"/>
<path d="M37.488 81.4721C36.9809 81.1661 36.5225 80.7859 36.128 80.3441C35.744 79.9121 35.376 79.4561 35.024 79.0001C35.024 79.0001 34.944 79.0001 34.968 79.0001C35.2296 79.5419 35.5604 80.0474 35.952 80.5041C36.1423 80.7279 36.36 80.9268 36.6 81.0961C36.8599 81.2689 37.1358 81.4162 37.424 81.5361C37.424 81.5361 37.528 81.5361 37.488 81.4721Z" fill="#263238"/>
<path d="M38.016 79.3441C37.7711 79.2274 37.5511 79.0644 37.368 78.8641C37.144 78.6561 36.928 78.4401 36.72 78.2161C36.512 78.0001 36.304 77.8001 36.104 77.5841C35.8879 77.3817 35.7163 77.1365 35.6 76.8641C35.6 76.8641 35.528 76.8641 35.536 76.8641C35.5988 77.156 35.7274 77.4296 35.912 77.6641C36.0903 77.9485 36.2938 78.2162 36.52 78.4641C36.7437 78.6946 36.9815 78.9111 37.232 79.1121C37.4436 79.3055 37.7084 79.4309 37.992 79.4721C38.0004 79.4737 38.0091 79.4736 38.0174 79.4719C38.0258 79.4701 38.0337 79.4667 38.0408 79.4619C38.0479 79.457 38.0539 79.4509 38.0586 79.4437C38.0632 79.4366 38.0664 79.4285 38.068 79.4201C38.0696 79.4117 38.0695 79.4031 38.0677 79.3947C38.066 79.3864 38.0626 79.3784 38.0578 79.3714C38.0529 79.3643 38.0468 79.3583 38.0396 79.3536C38.0324 79.3489 38.0244 79.3457 38.016 79.3441Z" fill="#263238"/>
<path d="M38.224 76.7362C37.9894 76.5762 37.7654 76.4082 37.552 76.2322C37.344 76.0482 37.136 75.8642 36.936 75.6722C36.736 75.4802 36.504 75.2722 36.304 75.0562C36.304 75.0562 36.224 75.0562 36.248 75.0962C36.4004 75.3481 36.5744 75.5864 36.768 75.8082C36.9592 76.0247 37.165 76.2278 37.384 76.4162C37.601 76.6052 37.8309 76.779 38.072 76.9362C38.3088 77.1171 38.5816 77.2454 38.872 77.3122C38.8786 77.3078 38.884 77.3018 38.8878 77.2949C38.8915 77.2879 38.8935 77.2801 38.8935 77.2722C38.8935 77.2642 38.8915 77.2564 38.8878 77.2495C38.884 77.2425 38.8786 77.2365 38.872 77.2322C38.6718 77.0472 38.4549 76.8811 38.224 76.7362Z" fill="#263238"/>
<path d="M41.608 73.3761C41.352 73.1521 41.104 72.9281 40.808 72.7201C40.512 72.5121 40.24 72.3281 39.936 72.1521C39.3618 71.7997 38.75 71.5126 38.112 71.2961C38.112 71.2961 38.04 71.3361 38.112 71.3601C39.248 72.0641 40.424 72.7201 41.56 73.4401C41.5685 73.4465 41.5792 73.4492 41.5897 73.4477C41.6002 73.4462 41.6096 73.4406 41.616 73.4321C41.6224 73.4237 41.6251 73.413 41.6236 73.4025C41.6221 73.392 41.6165 73.3825 41.608 73.3761Z" fill="#263238"/>
<path d="M42.608 71.3522C42.3609 71.1367 42.0929 70.9464 41.808 70.7841C41.1768 70.4663 40.511 70.222 39.824 70.0562C39.776 70.0562 39.752 70.1042 39.824 70.1202C40.44 70.4002 41.056 70.6721 41.648 70.9841C41.936 71.1441 42.232 71.3042 42.504 71.4882C42.776 71.6722 43.008 71.9201 43.304 72.1201C43.1268 71.8194 42.8899 71.558 42.608 71.3522Z" fill="#263238"/>
<path d="M44.248 70.2401C44.003 70.0196 43.7348 69.8265 43.448 69.6641C42.9245 69.3464 42.3511 69.1192 41.752 68.9921C41.752 68.9921 41.696 69.0481 41.752 69.0641C42.3084 69.2818 42.844 69.5496 43.352 69.8641C43.608 70.0241 43.864 70.2001 44.152 70.3761C44.44 70.5521 44.64 70.7761 44.904 70.9201C44.7074 70.6731 44.4878 70.4454 44.248 70.2401Z" fill="#263238"/>
<path d="M45.36 68.9762C45.112 68.8322 44.848 68.6962 44.56 68.5682C44.3099 68.4278 44.0403 68.3253 43.76 68.2642V68.3362L45.216 69.1922C45.6447 69.4891 46.0414 69.8296 46.4 70.2082C46.4 70.2082 46.448 70.2082 46.4 70.2082C46.1858 69.7018 45.8232 69.2723 45.36 68.9762Z" fill="#263238"/>
<path d="M46.904 68.3841C46.4306 68.0662 45.9013 67.8409 45.344 67.7202C45.304 67.7202 45.288 67.7762 45.344 67.7922C45.8651 67.9823 46.3536 68.2522 46.792 68.5922C47.2362 68.9148 47.644 69.285 48.008 69.6961C48.008 69.6961 48.064 69.6961 48.048 69.6961C47.7792 69.1722 47.3865 68.7218 46.904 68.3841Z" fill="#263238"/>
<path d="M50.448 68.9201C50.301 68.7731 50.1461 68.6343 49.984 68.5041C49.8217 68.375 49.6506 68.2574 49.472 68.1521C49.288 68.0401 49.104 67.9361 48.928 67.8161C48.928 67.8161 48.848 67.8561 48.928 67.8801C49.1152 67.9889 49.292 68.1148 49.456 68.2561L49.92 68.6401L50.392 69.0241C50.5402 69.1679 50.6979 69.3015 50.864 69.4241C50.745 69.2408 50.6054 69.0717 50.448 68.9201Z" fill="#263238"/>
<path d="M99.3681 53.784C99.0348 56.9897 97.817 60.0396 95.8505 62.5931C93.884 65.1465 91.2464 67.1031 88.2323 68.2442C85.2181 69.3853 81.9461 69.666 78.7816 69.055C75.6171 68.444 72.6848 66.9653 70.3122 64.784L61.6082 66.064L65.9602 58.544C64.963 56.0974 64.5363 53.4557 64.7126 50.8196C64.8889 48.1834 65.6634 45.6221 66.9774 43.33C68.2914 41.0379 70.1104 39.0753 72.2962 37.5912C74.482 36.107 76.9772 35.1404 79.5924 34.7647C82.2076 34.3889 84.874 34.6139 87.3892 35.4226C89.9045 36.2313 92.2024 37.6024 94.1086 39.4318C96.0148 41.2613 97.4791 43.5009 98.3905 45.9808C99.3018 48.4607 99.6361 51.1156 99.3681 53.744V53.784Z" fill="white"/>
<path d="M99.3682 53.784C99.0292 56.9845 97.8139 60.0295 95.8562 62.584C94.8991 63.8744 93.7498 65.0103 92.4482 65.952C91.1667 66.927 89.7524 67.7137 88.2482 68.288C86.7474 68.8756 85.1724 69.2525 83.5682 69.408C82.77 69.4753 81.9684 69.4913 81.1682 69.456C80.3629 69.4302 79.5607 69.3446 78.7682 69.2C75.562 68.612 72.5836 67.1408 70.1682 64.952L70.3682 65.016L61.6562 66.336L61.0242 66.432L61.3442 65.88L65.6722 58.336V58.64C64.6486 56.1479 64.2107 53.4541 64.3924 50.7661C64.5741 48.0781 65.3705 45.4677 66.7202 43.136C68.0759 40.8168 69.9383 38.8341 72.1682 37.336C74.9436 35.5071 78.1803 34.5015 81.5036 34.4356C84.8268 34.3697 88.1008 35.2462 90.9466 36.9638C93.7924 38.6813 96.0937 41.1696 97.584 44.1406C99.0744 47.1117 99.693 50.444 99.3682 53.752V53.784ZM99.3682 53.784C99.6459 51.165 99.3188 48.5172 98.412 46.0446C97.5053 43.5719 96.043 41.3404 94.138 39.5219C92.2329 37.7033 89.9358 36.3464 87.4237 35.5555C84.9116 34.7646 82.2514 34.5609 79.6482 34.96C77.0633 35.3463 74.6007 36.3176 72.4482 37.8C70.3215 39.294 68.5445 41.232 67.2402 43.48C65.961 45.7336 65.2063 48.2466 65.0322 50.832C64.8749 53.4194 65.2929 56.0095 66.2562 58.416L66.3202 58.568L66.2402 58.712L61.8562 66.216L61.5522 65.76L70.2562 64.536H70.3762L70.4642 64.616C72.7873 66.7921 75.6714 68.2771 78.7922 68.904C79.5829 69.066 80.3856 69.1624 81.1922 69.192C81.9912 69.2492 82.7932 69.2492 83.5922 69.192C85.1816 69.0685 86.746 68.7238 88.2402 68.168C89.742 67.6254 91.1548 66.8624 92.4322 65.904C93.0776 65.4346 93.6922 64.9242 94.2722 64.376C94.8413 63.8089 95.3756 63.2078 95.8722 62.576C97.8236 60.0225 99.0332 56.9803 99.3682 53.784Z" fill="#263238"/>
<path d="M80.0322 61.896L72.6082 54.376L75.1042 51.912L79.4402 56.304L88.4562 42.168L91.4162 44.056L80.0322 61.896Z" fill="#9D8DFE"/>
</svg>
