<svg width="400" height="400" viewBox="0 0 400 400" fill="none" xmlns="http://www.w3.org/2000/svg">
<path d="M69.904 321.744C142.248 358.92 259.504 358.92 331.864 321.744C404.224 284.568 404.208 224.288 331.864 187.104C259.52 149.92 142.264 149.928 69.904 187.104C-2.45597 224.28 -2.39997 284.568 69.904 321.744Z" fill="#F5F5F5"/>
<path d="M326.008 222.152C326.096 217.184 331.296 204.192 336.568 197.824C341.84 191.456 350.024 186.888 355.768 188.96C361.104 190.888 360.4 197.912 353.808 202.464C347.216 207.016 337.328 212.704 334.328 220.712L328.152 230.504L326.008 222.152Z" fill="#9D8DFE"/>
<path opacity="0.1" d="M326.008 222.152C326.096 217.184 331.296 204.192 336.568 197.824C341.84 191.456 350.024 186.888 355.768 188.96C361.104 190.888 360.4 197.912 353.808 202.464C347.216 207.016 337.328 212.704 334.328 220.712L328.152 230.504L326.008 222.152Z" fill="black"/>
<path d="M326.952 226.184C327.029 226.179 327.103 226.149 327.162 226.099C327.222 226.048 327.263 225.98 327.28 225.904C330.904 208.992 344.88 195.44 353.136 192.536C353.181 192.521 353.223 192.496 353.259 192.465C353.295 192.433 353.325 192.394 353.346 192.351C353.367 192.308 353.379 192.261 353.381 192.213C353.383 192.165 353.376 192.117 353.36 192.072C353.344 192.027 353.319 191.986 353.287 191.951C353.255 191.916 353.216 191.887 353.173 191.867C353.13 191.847 353.083 191.836 353.036 191.834C352.988 191.832 352.941 191.839 352.896 191.856C344.472 194.816 330.248 208.584 326.568 225.752C326.551 225.846 326.57 225.943 326.622 226.023C326.674 226.104 326.755 226.161 326.848 226.184H326.952Z" fill="white"/>
<path d="M329.288 237.088C330.136 234.312 333.632 229.76 339.216 226.048C345.392 221.944 353.152 220.144 354.992 216.888C357.2 212.992 353.944 209.208 347.664 209.88C341.384 210.552 330.2 218.912 328.216 231.768L329.288 237.088Z" fill="#9D8DFE"/>
<path d="M328.128 234.136C328.198 234.131 328.264 234.106 328.321 234.065C328.377 234.024 328.421 233.968 328.448 233.904C333.904 219.464 345.08 214.552 350.224 213.976C350.271 213.971 350.317 213.957 350.359 213.934C350.401 213.911 350.438 213.88 350.468 213.843C350.497 213.806 350.519 213.763 350.532 213.717C350.546 213.671 350.549 213.623 350.544 213.576C350.54 213.528 350.526 213.482 350.504 213.439C350.481 213.397 350.45 213.36 350.413 213.33C350.376 213.3 350.332 213.278 350.286 213.265C350.24 213.252 350.191 213.249 350.144 213.256C344.456 213.888 333.344 218.904 327.744 233.648C327.71 233.737 327.713 233.836 327.752 233.923C327.791 234.01 327.863 234.078 327.952 234.112C328.006 234.141 328.068 234.149 328.128 234.136Z" fill="white"/>
<path d="M83.3199 269.144L89.3759 265.68C89.3759 265.68 92.2799 249.68 90.1119 235.92C87.0559 216.576 73.8879 209.904 69.1039 211.832C64.3199 213.76 63.1919 219.48 71.8319 230.656C76.9279 237.256 83.4879 251.2 83.3199 269.144Z" fill="#9D8DFE"/>
<g opacity="0.1">
<path d="M83.3199 269.144L89.3759 265.68C89.3759 265.68 92.2799 249.68 90.1119 235.92C87.0559 216.576 73.8879 209.904 69.1039 211.832C64.3199 213.76 63.1919 219.48 71.8319 230.656C76.9279 237.256 83.4879 251.2 83.3199 269.144Z" fill="black"/>
</g>
<path d="M85.5119 261.464H85.4559C85.3993 261.457 85.3446 261.439 85.2951 261.41C85.2457 261.382 85.2024 261.344 85.1681 261.298C85.1337 261.253 85.1089 261.201 85.0951 261.145C85.0814 261.09 85.0789 261.032 85.0879 260.976C87.5919 242.872 80.2879 223.032 72.1279 215.032C72.0873 214.992 72.055 214.945 72.0329 214.893C72.0109 214.841 71.9995 214.785 71.9995 214.728C71.9995 214.671 72.0109 214.615 72.0329 214.563C72.055 214.511 72.0873 214.463 72.1279 214.424C72.2088 214.344 72.3181 214.299 72.4319 214.299C72.5458 214.299 72.6551 214.344 72.7359 214.424C81.0719 222.568 88.4879 242.728 85.9519 261.104C85.933 261.206 85.8785 261.299 85.7979 261.364C85.7173 261.43 85.616 261.466 85.5119 261.464Z" fill="white"/>
<path d="M66.52 278.848C65.568 279.4 63.592 278.2 62.84 277.688C61.5445 276.808 60.4974 275.61 59.8 274.208C59.0062 272.618 58.7267 270.82 59 269.064C59.1515 268.14 59.368 267.229 59.648 266.336L60.448 263.68C60.7567 262.825 60.8874 261.915 60.832 261.008C60.6 259.192 58.992 257.92 57.528 256.824C55.928 255.608 54.224 254.008 54.232 251.824C54.3515 250.131 55.0264 248.526 56.152 247.256C57.2 245.936 58.44 244.768 59.352 243.368C60.1033 242.407 60.504 241.219 60.488 240C60.391 239.25 60.1405 238.528 59.752 237.88C58.8625 236.528 58.0865 235.104 57.432 233.624C56.896 232.096 56.976 230.2 58.168 229.104C58.7011 228.706 59.3082 228.418 59.9538 228.257C60.5993 228.097 61.2705 228.066 61.928 228.168C63.1659 228.322 64.3558 228.742 65.416 229.4C68.888 231.328 70.864 235.432 74.544 236.92C76.0058 237.373 77.4939 237.736 79 238.008C79.7531 238.148 80.4688 238.444 81.1011 238.876C81.7334 239.309 82.2684 239.869 82.672 240.52C84.024 243.216 81.512 246.544 82.464 249.408C83.264 251.944 85.768 252.912 87.152 255.192C87.7127 256.202 87.9395 257.365 87.8 258.512C87.6767 260.448 87.2023 262.345 86.4 264.112C85.4985 265.868 84.4691 267.555 83.32 269.16C83.264 269.2 66.664 278.768 66.52 278.848Z" fill="#9D8DFE"/>
<path d="M76.352 273.6C76.2953 273.598 76.2395 273.585 76.1878 273.561C76.1362 273.537 76.0898 273.504 76.0511 273.462C76.0125 273.421 75.9824 273.372 75.9627 273.319C75.9429 273.265 75.9339 273.209 75.936 273.152C76.648 256.016 68.568 237.088 62.696 231.592C62.6178 231.51 62.5741 231.401 62.5741 231.288C62.5741 231.175 62.6178 231.066 62.696 230.984C62.7769 230.904 62.8861 230.859 63 230.859C63.1139 230.859 63.2231 230.904 63.304 230.984C69.296 236.584 77.536 255.832 76.816 273.216C76.8039 273.328 76.7486 273.43 76.662 273.502C76.5753 273.574 76.4641 273.609 76.352 273.6Z" fill="white"/>
<path d="M73.784 253.36H73.656C69.5949 252.239 65.4235 251.566 61.216 251.352C61.1592 251.35 61.1035 251.336 61.0518 251.313C61.0002 251.289 60.9538 251.256 60.9151 251.214C60.8765 251.172 60.8464 251.124 60.8267 251.07C60.8069 251.017 60.7978 250.96 60.8 250.904C60.801 250.847 60.8135 250.79 60.8368 250.738C60.86 250.686 60.8936 250.639 60.9354 250.6C60.9773 250.562 61.0265 250.532 61.0802 250.512C61.1339 250.493 61.191 250.485 61.248 250.488C65.5308 250.712 69.7768 251.399 73.912 252.536C74.0074 252.569 74.0883 252.634 74.1404 252.721C74.1926 252.807 74.2129 252.909 74.1977 253.009C74.1825 253.109 74.1327 253.2 74.0572 253.267C73.9816 253.334 73.8849 253.373 73.784 253.376V253.36Z" fill="white"/>
<path d="M68.632 272.488L155.936 322.888C157.009 323.433 158.196 323.716 159.4 323.716C160.604 323.716 161.791 323.433 162.864 322.888L328.168 227.44C330.08 226.336 330.08 224.544 328.168 223.44L240.856 173.04C239.783 172.495 238.596 172.211 237.392 172.211C236.188 172.211 235.001 172.495 233.928 173.04L68.632 268.488C66.72 269.6 66.72 271.384 68.632 272.488Z" fill="#37474F"/>
<path d="M115.816 295.904C117.304 296.657 118.948 297.05 120.616 297.05C122.284 297.05 123.928 296.657 125.416 295.904C128.072 294.368 128.072 291.904 125.416 290.352C123.928 289.598 122.284 289.206 120.616 289.206C118.948 289.206 117.304 289.598 115.816 290.352C113.16 291.888 113.16 294.4 115.816 295.904Z" fill="#263238"/>
<path d="M155.936 322.896L68.632 272.496C66.92 271.512 66.744 269.976 68.088 268.872C67.2347 269.547 66.5336 270.395 66.0305 271.36C65.5273 272.325 65.2334 273.386 65.168 274.472V277.728C65.2324 278.93 65.5797 280.1 66.1816 281.143C66.7835 282.185 67.6231 283.071 68.632 283.728L155.936 334.128C157.004 334.683 158.196 334.959 159.4 334.928V323.72C158.194 323.744 157.002 323.46 155.936 322.896Z" fill="#455A64"/>
<path d="M328.168 238.696C329.176 238.038 330.015 237.152 330.617 236.11C331.218 235.067 331.566 233.898 331.632 232.696V229.44C331.565 228.353 331.269 227.293 330.764 226.328C330.26 225.363 329.558 224.515 328.704 223.84C330.056 224.944 329.88 226.48 328.168 227.472L162.864 322.896C161.796 323.453 160.604 323.729 159.4 323.696V334.96C160.604 334.993 161.796 334.717 162.864 334.16L328.168 238.696Z" fill="#263238"/>
<path d="M170.328 312.448L87.928 264.864C86.776 264.2 86.776 263.128 87.928 262.464L223.464 184.168C224.108 183.841 224.821 183.67 225.544 183.67C226.267 183.67 226.979 183.841 227.624 184.168L310.064 231.744C311.216 232.4 311.216 233.48 310.064 234.144L174.48 312.448C173.837 312.775 173.126 312.946 172.404 312.946C171.682 312.946 170.971 312.775 170.328 312.448Z" fill="#FAFAFA"/>
<path d="M148.896 248.424L197.64 276.56L166.872 294.328C166.334 294.596 165.741 294.736 165.14 294.736C164.539 294.736 163.946 294.596 163.408 294.328L118.128 268.184C117.919 268.113 117.737 267.978 117.609 267.799C117.48 267.62 117.411 267.405 117.411 267.184C117.411 266.963 117.48 266.748 117.609 266.569C117.737 266.389 117.919 266.255 118.128 266.184L148.896 248.424Z" fill="#E6E6E6"/>
<path d="M197.6 276.56L191.856 253.728C191.725 253.183 191.422 252.695 190.992 252.336C190.556 251.966 190.017 251.74 189.448 251.688L148.864 248.424L197.6 276.56Z" fill="#E0E0E0"/>
<path d="M197.6 276.56L153.976 274.76C153.454 274.739 152.956 274.533 152.572 274.178C152.187 273.823 151.942 273.343 151.88 272.824L148.856 248.416L197.6 276.56Z" fill="#E0E0E0"/>
<path d="M197.6 276.56L153.976 274.76C153.454 274.739 152.956 274.533 152.572 274.178C152.187 273.823 151.942 273.343 151.88 272.824L148.856 248.416L154.24 272.416C154.288 272.63 154.404 272.823 154.569 272.966C154.735 273.11 154.942 273.198 155.16 273.216L197.6 276.56Z" fill="#FAFAFA"/>
<path d="M158.64 274.688L165.144 295.328L166.872 294.328L158.64 274.688Z" fill="#FAFAFA"/>
<path d="M116.4 267.184L118.128 266.184L152.144 270.936L116.4 267.184Z" fill="#FAFAFA"/>
<path d="M176.624 238.16L215.4 260.56C215.937 260.832 216.53 260.974 217.132 260.974C217.734 260.974 218.327 260.832 218.864 260.56L273.896 228.8C274.105 228.729 274.286 228.594 274.415 228.415C274.544 228.236 274.613 228.021 274.613 227.8C274.613 227.579 274.544 227.364 274.415 227.185C274.286 227.005 274.105 226.871 273.896 226.8L235.12 204.4C234.583 204.128 233.99 203.986 233.388 203.986C232.786 203.986 232.193 204.128 231.656 204.4L176.624 236.16C176.415 236.231 176.234 236.365 176.105 236.545C175.976 236.724 175.907 236.939 175.907 237.16C175.907 237.381 175.976 237.596 176.105 237.775C176.234 237.954 176.415 238.089 176.624 238.16Z" fill="#E6E6E6"/>
<path d="M207.456 235.2C206.994 234.482 206.72 233.659 206.66 232.808C206.6 231.956 206.755 231.103 207.112 230.328C207.832 228.728 209.4 227.192 211.808 225.808C214.448 224.256 217.363 223.226 220.392 222.776C223.347 222.35 226.355 222.458 229.272 223.096C232.281 223.75 235.167 224.876 237.824 226.432C240.395 227.909 242.144 229.435 243.072 231.008C243.525 231.678 243.796 232.455 243.858 233.261C243.919 234.068 243.77 234.877 243.424 235.608C242.72 237.104 241.24 238.504 239 239.8C236.852 241.098 234.436 241.886 231.936 242.104C229.855 242.306 227.761 241.877 225.928 240.872C225.599 240.729 225.305 240.519 225.063 240.254C224.822 239.989 224.64 239.676 224.528 239.336C224.475 239.041 224.501 238.738 224.603 238.457C224.706 238.176 224.882 237.927 225.112 237.736C223.823 237.841 222.526 237.752 221.264 237.472C220.027 237.205 218.839 236.746 217.744 236.112C215.899 235.045 214.933 233.888 214.848 232.64C214.763 231.392 215.645 230.245 217.496 229.2C219.729 227.891 222.284 227.234 224.872 227.304C227.515 227.362 230.098 228.098 232.376 229.44C233.318 229.965 234.159 230.656 234.856 231.48C235.41 232.09 235.772 232.849 235.896 233.664L228.696 237.84C228.112 238.176 227.792 238.472 227.744 238.728C227.696 238.984 227.904 239.256 228.36 239.528C229.356 240.012 230.496 240.109 231.56 239.8C233.127 239.433 234.625 238.82 236 237.984C237.808 236.944 238.952 235.824 239.432 234.648C239.672 234.077 239.764 233.455 239.698 232.839C239.633 232.224 239.412 231.635 239.056 231.128C238.09 229.749 236.806 228.624 235.312 227.848C232.242 226.032 228.772 225.001 225.208 224.848C221.593 224.746 218.025 225.685 214.928 227.552C212.96 228.688 211.696 229.888 211.136 231.152C210.855 231.74 210.731 232.391 210.776 233.042C210.821 233.692 211.033 234.32 211.392 234.864C212.361 236.29 213.67 237.453 215.2 238.248C216.217 238.83 217.289 239.309 218.4 239.68C219.437 240.038 220.51 240.28 221.6 240.4C221.716 240.409 221.83 240.439 221.936 240.488C221.992 240.488 221.992 240.592 221.936 240.696L220.88 242.176C220.836 242.233 220.785 242.284 220.728 242.328C220.572 242.381 220.404 242.381 220.248 242.328C218.929 242.161 217.631 241.856 216.376 241.416C215.064 240.98 213.799 240.415 212.6 239.728C210.12 238.4 208.408 236.84 207.456 235.2ZM224.136 235.896C225.239 236.036 226.358 235.826 227.336 235.296L231.52 232.896C231.024 232.056 230.293 231.38 229.416 230.952C228.08 230.169 226.564 229.747 225.016 229.728C223.474 229.701 221.954 230.1 220.624 230.88C219.456 231.552 218.888 232.216 218.92 232.872C218.92 233.528 219.576 234.208 220.8 234.912C221.827 235.481 222.965 235.82 224.136 235.904V235.896Z" fill="#FAFAFA"/>
<path d="M277.808 202.32C278.137 202.49 278.502 202.578 278.872 202.578C279.242 202.578 279.607 202.49 279.936 202.32C280.063 202.276 280.173 202.193 280.251 202.083C280.329 201.974 280.371 201.842 280.371 201.708C280.371 201.573 280.329 201.442 280.251 201.332C280.173 201.223 280.063 201.14 279.936 201.096C279.605 200.932 279.241 200.847 278.872 200.847C278.503 200.847 278.139 200.932 277.808 201.096C277.681 201.14 277.571 201.223 277.493 201.332C277.415 201.442 277.373 201.573 277.373 201.708C277.373 201.842 277.415 201.974 277.493 202.083C277.571 202.193 277.681 202.276 277.808 202.32Z" fill="#263238"/>
<path d="M281.2 211.952C281.858 212.287 282.586 212.462 283.324 212.462C284.062 212.462 284.79 212.287 285.448 211.952C286.624 211.28 286.624 210.176 285.448 209.504C284.79 209.169 284.062 208.994 283.324 208.994C282.586 208.994 281.858 209.169 281.2 209.504C280 210.176 280 211.28 281.2 211.952Z" fill="#263238"/>
<path d="M278.208 207.688C279.008 207.232 278.952 206.48 278.112 206L264.144 197.928C263.695 197.687 263.195 197.558 262.686 197.549C262.177 197.541 261.673 197.654 261.216 197.88C260.416 198.328 260.48 199.088 261.312 199.568L275.28 207.632C275.73 207.869 276.229 207.998 276.737 208.008C277.246 208.017 277.749 207.908 278.208 207.688Z" fill="#263238"/>
<path d="M97.104 105.952C97.1482 105.093 97.3953 104.256 97.8249 103.511C98.2546 102.766 98.8547 102.133 99.576 101.664L226.16 28.5839C226.927 28.1933 227.775 27.9897 228.636 27.9897C229.497 27.9897 230.345 28.1933 231.112 28.5839L233.896 30.1839C234.616 30.6519 235.216 31.2836 235.645 32.0275C236.075 32.7713 236.323 33.6062 236.368 34.4639V131.504C236.319 132.362 236.07 133.196 235.64 133.941C235.211 134.686 234.614 135.319 233.896 135.792L107.312 208.872C106.545 209.259 105.699 209.46 104.84 209.46C103.981 209.46 103.135 209.259 102.368 208.872L99.576 207.272C98.8582 206.799 98.2609 206.166 97.8316 205.421C97.4024 204.676 97.1533 203.842 97.104 202.984V105.952Z" fill="#9D8DFE"/>
<path opacity="0.4" d="M97.824 103.512L104.848 107.56L235.648 32.0399C235.231 31.2871 234.631 30.6516 233.904 30.1919L231.104 28.5919C230.338 28.2014 229.491 27.9978 228.632 27.9978C227.773 27.9978 226.925 28.2014 226.16 28.5919L99.584 101.664C98.8462 102.116 98.2394 102.753 97.824 103.512Z" fill="white"/>
<path opacity="0.1" d="M97.104 105.944V202.968C97.1497 203.828 97.3983 204.664 97.8293 205.41C98.2604 206.155 98.8616 206.787 99.584 207.256L102.368 208.856C102.583 208.981 102.811 209.083 103.048 209.16C103.379 209.269 103.719 209.347 104.064 209.392C104.714 209.476 105.374 209.452 106.016 209.32C106.178 209.287 106.339 209.244 106.496 209.192C106.598 209.164 106.697 209.127 106.792 209.08C106.605 209.16 106.404 209.201 106.2 209.201C105.996 209.201 105.795 209.16 105.608 209.08C105.349 208.907 105.141 208.666 105.007 208.385C104.874 208.103 104.819 207.79 104.848 207.48V110.4C104.823 109.96 104.933 109.523 105.164 109.147C105.394 108.771 105.733 108.474 106.136 108.296L104.848 107.544L97.824 103.496C97.3806 104.238 97.1329 105.08 97.104 105.944Z" fill="black"/>
<path opacity="0.2" d="M104.848 107.56L163.472 129.464C165.5 130.218 167.723 130.26 169.778 129.582C171.832 128.905 173.595 127.548 174.776 125.736L184.192 111.336L236.112 31.7839L186.064 111.856L236.368 131.544C236.317 132.423 236.041 133.274 235.568 134.016L185.928 112.08L174.984 129.6C173.77 131.544 171.895 132.986 169.704 133.659C167.513 134.332 165.152 134.192 163.056 133.264L155.272 129.824L105.6 209.072C105.341 208.899 105.133 208.658 104.999 208.377C104.866 208.095 104.811 207.782 104.84 207.472V205.872L155.024 129.76L104.848 107.56Z" fill="black"/>
<path d="M119.352 84.904L110.696 79.92L110.616 79.872C106.776 77.704 101.512 78.032 95.68 81.392C83.944 88.168 74.432 104.648 74.432 118.192C74.432 124.952 76.832 129.712 80.632 131.936L88.504 136.424L90.384 133.28C92.5257 132.793 94.5811 131.984 96.48 130.88C108.216 124.104 117.728 107.624 117.728 94.08C117.727 92.2518 117.504 90.4304 117.064 88.656L119.352 84.904Z" fill="#37474F"/>
<path d="M103.888 86.1199C92.144 92.8959 82.632 109.376 82.632 122.92C82.632 136.464 92.144 141.968 103.88 135.192C115.616 128.416 125.136 111.928 125.136 98.3919C125.136 84.8559 115.624 79.3359 103.888 86.1199Z" fill="#455A64"/>
<path d="M97.28 112.272C97.2045 112.194 97.1496 112.098 97.1202 111.993C97.0909 111.889 97.0881 111.778 97.112 111.672C97.1524 111.383 97.2622 111.109 97.432 110.872L104 101.12C104.168 100.888 104.328 100.656 104.504 100.432C104.65 100.223 104.838 100.046 105.056 99.912L107.456 98.552C107.536 98.4929 107.631 98.4586 107.73 98.4533C107.829 98.4481 107.927 98.4722 108.013 98.5226C108.098 98.5729 108.167 98.6474 108.21 98.7366C108.253 98.8258 108.269 98.9258 108.256 99.024V121.536C108.243 121.82 108.158 122.095 108.008 122.336C107.876 122.585 107.68 122.795 107.44 122.944L104.992 124.352C104.911 124.414 104.814 124.452 104.712 124.462C104.61 124.471 104.508 124.453 104.416 124.408C104.332 124.35 104.266 124.27 104.224 124.177C104.181 124.084 104.165 123.981 104.176 123.88V106.672L99.896 113.016C99.7546 113.248 99.5489 113.434 99.304 113.552C99.2154 113.597 99.1161 113.616 99.0172 113.607C98.9184 113.599 98.8238 113.563 98.744 113.504L97.28 112.272Z" fill="#FAFAFA"/>
<path d="M293.288 189.864V188.432H293.64C294.171 187.459 294.978 186.666 295.96 186.152C297.961 185.138 300.173 184.61 302.416 184.61C304.659 184.61 306.871 185.138 308.872 186.152C309.854 186.666 310.661 187.459 311.192 188.432H311.544V189.816C311.544 191.184 310.68 192.56 308.872 193.608C306.875 194.614 304.671 195.137 302.435 195.135C300.199 195.134 297.995 194.608 296 193.6C294.168 192.576 293.28 191.2 293.288 189.864Z" fill="#263238"/>
<path d="M308.872 184.704C306.872 183.687 304.66 183.156 302.416 183.156C300.172 183.156 297.96 183.687 295.96 184.704C292.392 186.76 292.392 190.096 295.96 192.16C297.961 193.174 300.173 193.702 302.416 193.702C304.659 193.702 306.871 193.174 308.872 192.16C312.44 190.096 312.44 186.76 308.872 184.704Z" fill="#455A64"/>
<path d="M304.8 133.6V187.824C304.781 188.031 304.707 188.228 304.586 188.397C304.465 188.566 304.302 188.699 304.112 188.784C303.597 189.048 303.027 189.185 302.448 189.185C301.869 189.185 301.299 189.048 300.784 188.784C300.594 188.699 300.431 188.566 300.31 188.397C300.189 188.228 300.115 188.031 300.096 187.824V133.6H304.8Z" fill="#37474F"/>
<path d="M300.064 139.504V141.2L304.768 143.912V142.224L300.064 139.504Z" fill="#263238"/>
<path d="M330.072 119.24L329.672 120.04L325.368 128.664L323.328 132.8L316.416 146.664L315.656 148.192H315.52C315.242 148.201 314.966 148.138 314.72 148.008L283.912 130.2C283.682 130.055 283.49 129.857 283.351 129.624C283.212 129.39 283.13 129.127 283.112 128.856V116.952C283.112 111.016 287.024 103.944 291.848 101.16C294.136 99.84 296.208 99.736 297.768 100.608L330.072 119.24Z" fill="#455A64"/>
<path d="M324.256 119.872C322.304 120.592 315.224 126.44 315.224 135.656C315.224 143.4 315.224 147.416 315.224 148.144H315.512H315.648L316.408 146.616L323.328 132.8L325.368 128.704L325.84 127.768L324.256 119.872Z" fill="#37474F"/>
<path d="M332.608 138.4C332.531 138.53 332.42 138.638 332.288 138.712L332.208 138.76L316.296 148C316.098 148.105 315.88 148.165 315.656 148.176H315.52V135.656C315.56 133.391 316.029 131.154 316.904 129.064L317.704 129.512L323.344 132.768L332.096 137.832L332.544 138.088C332.592 138.122 332.626 138.173 332.638 138.231C332.65 138.289 332.639 138.35 332.608 138.4Z" fill="#37474F"/>
<path d="M330.072 119.24C328.528 118.44 326.488 118.576 324.256 119.872C321.517 121.593 319.303 124.034 317.856 126.928C317.489 127.621 317.161 128.334 316.872 129.064C315.997 131.154 315.528 133.391 315.488 135.656V148.168H315.624C315.848 148.157 316.066 148.097 316.264 147.992L332.168 138.8L332.248 138.752C332.373 138.669 332.482 138.563 332.568 138.44C332.792 138.159 332.921 137.815 332.936 137.456V125.6C332.976 122.4 331.856 120.184 330.072 119.24ZM331.848 137.96L316.648 146.76C316.52 146.832 316.416 146.76 316.416 146.624V135.656C316.457 133.547 316.888 131.464 317.688 129.512C317.697 129.469 317.713 129.429 317.736 129.392C318.042 128.619 318.395 127.866 318.792 127.136C320.14 124.478 322.183 122.236 324.704 120.648C325.681 120.028 326.804 119.678 327.96 119.632C328.556 119.625 329.145 119.768 329.672 120.048C331.192 120.848 332.072 122.824 332.072 125.568V137.568C332.068 137.646 332.045 137.722 332.006 137.79C331.967 137.859 331.913 137.917 331.848 137.96Z" fill="#455A64"/>
<path d="M332.08 125.6V137.864L317.68 129.544C317.689 129.501 317.705 129.461 317.728 129.424C319.272 125.568 321.872 122.296 324.696 120.68C325.673 120.06 326.796 119.71 327.952 119.664C330.504 119.632 332.08 121.912 332.08 125.6Z" fill="#263238"/>
<path d="M305.728 131.68L307 130.944C307.271 130.821 307.57 130.772 307.867 130.802C308.163 130.831 308.446 130.938 308.688 131.112C309.387 131.568 309.968 132.183 310.385 132.905C310.802 133.628 311.043 134.439 311.088 135.272C311.117 135.565 311.069 135.86 310.948 136.128C310.827 136.396 310.638 136.628 310.4 136.8L309.224 137.48L309.008 137.12C308.767 137.067 308.535 136.978 308.32 136.856C307.621 136.4 307.04 135.785 306.623 135.063C306.206 134.34 305.965 133.529 305.92 132.696C305.922 132.489 305.946 132.282 305.992 132.08L305.728 131.68Z" fill="#E0E0E0"/>
<path d="M307.48 131.816C308.178 132.271 308.759 132.884 309.176 133.605C309.593 134.327 309.834 135.136 309.88 135.968C309.88 137.504 308.8 138.12 307.48 137.36C306.782 136.903 306.201 136.289 305.784 135.566C305.367 134.844 305.126 134.033 305.08 133.2C305.072 131.672 306.152 131.048 307.48 131.816Z" fill="#FAFAFA"/>
<path d="M307.48 135.248C307.295 135.248 307.118 135.175 306.988 135.044C306.857 134.914 306.784 134.737 306.784 134.552V114.864C306.784 114.679 306.857 114.502 306.988 114.372C307.118 114.241 307.295 114.168 307.48 114.168C307.665 114.168 307.842 114.241 307.972 114.372C308.103 114.502 308.176 114.679 308.176 114.864V134.552C308.176 134.737 308.103 134.914 307.972 135.044C307.842 135.175 307.665 135.248 307.48 135.248Z" fill="#EBEBEB"/>
<path d="M306.784 116.808L299.808 112.784L301.992 116.984L299.808 118.664L306.784 122.696V116.808Z" fill="#9D8DFE"/>
<mask id="mask0_256_434" style="mask-type:luminance" maskUnits="userSpaceOnUse" x="316" y="119" width="17" height="30">
<path d="M332.08 125.6C332.08 121.944 330.48 119.664 327.96 119.664C326.804 119.71 325.681 120.06 324.704 120.68C321.88 122.28 319.28 125.568 317.736 129.424C317.713 129.461 317.697 129.502 317.688 129.544C316.888 131.493 316.457 133.574 316.416 135.68V148.776L332.08 139.736V125.6Z" fill="white"/>
</mask>
<g mask="url(#mask0_256_434)">
<path d="M328.448 129.6C328.443 129.493 328.413 129.389 328.36 129.296C328.307 129.202 328.233 129.123 328.144 129.064L312.368 119.96C312.272 119.913 312.167 119.888 312.06 119.888C311.953 119.888 311.848 119.913 311.752 119.96L311.4 120.16C311.311 120.219 311.237 120.298 311.184 120.392C311.131 120.485 311.101 120.589 311.096 120.696V132.8C311.103 132.907 311.134 133.01 311.186 133.103C311.239 133.196 311.312 133.276 311.4 133.336L327.2 142.4C327.296 142.447 327.401 142.472 327.508 142.472C327.615 142.472 327.72 142.447 327.816 142.4L328.168 142.2C328.257 142.141 328.331 142.062 328.384 141.968C328.437 141.875 328.467 141.771 328.472 141.664L328.448 129.6Z" fill="#F0F0F0"/>
<path d="M328.36 129.28L327.488 129.784L311.2 120.376C311.252 120.283 311.327 120.203 311.416 120.144L311.768 119.944C311.863 119.893 311.968 119.866 312.076 119.866C312.184 119.866 312.289 119.893 312.384 119.944L328.16 129.048C328.244 129.109 328.312 129.188 328.36 129.28Z" fill="#FAFAFA"/>
<path d="M328.448 129.6V141.688C328.443 141.795 328.413 141.899 328.36 141.992C328.307 142.086 328.233 142.165 328.144 142.224L327.792 142.424L327.712 142.464H327.584C327.502 142.48 327.418 142.48 327.336 142.464H327.28H327.24C327.264 142.476 327.29 142.482 327.316 142.482C327.342 142.482 327.368 142.476 327.392 142.464C327.425 142.442 327.451 142.413 327.468 142.377C327.485 142.342 327.492 142.303 327.488 142.264V130.136C327.49 130.081 327.475 130.027 327.445 129.981C327.415 129.935 327.371 129.9 327.32 129.88L327.488 129.784L328.36 129.28C328.417 129.377 328.448 129.487 328.448 129.6Z" fill="#E0E0E0"/>
<path d="M327.488 129.784L320.176 132.512C319.923 132.605 319.647 132.61 319.391 132.526C319.135 132.441 318.916 132.273 318.768 132.048L317.6 130.256L311.128 120.336L317.36 130.32L311.096 132.8C311.102 132.908 311.135 133.013 311.192 133.104L317.384 130.368L318.744 132.552C318.895 132.795 319.129 132.975 319.403 133.059C319.676 133.143 319.971 133.125 320.232 133.008L321.2 132.584L327.392 142.4C327.425 142.379 327.451 142.349 327.468 142.313C327.485 142.278 327.492 142.239 327.488 142.2V142L321.232 132.512L327.488 129.784Z" fill="#E0E0E0"/>
</g>
<path d="M342.584 127.616L340.912 129.008C340.475 129.652 339.997 130.266 339.48 130.848L334.68 136.392L332.984 138.352L322.072 144.656L316.856 148.984H316.8C316.644 149.009 316.484 148.984 316.344 148.912L315.856 148.632C315.815 148.608 315.78 148.576 315.753 148.537C315.726 148.498 315.708 148.453 315.701 148.407C315.693 148.36 315.696 148.312 315.709 148.267C315.722 148.221 315.745 148.179 315.776 148.144L319.584 143.744L321.984 140.952C326.442 136.081 331.558 131.856 337.184 128.4C339.44 127.104 340.848 126.656 341.352 126.968L342.496 127.632C342.496 127.632 342.576 127.616 342.584 127.616Z" fill="#455A64"/>
<path d="M340.656 131.536L337.456 135.192L337.392 135.272L334.4 138.736C334.222 138.932 334.017 139.101 333.792 139.24L316.992 148.92C316.935 148.953 316.873 148.975 316.808 148.984H316.8L322.848 142L323.2 141.6C327.66 136.733 332.776 132.512 338.4 129.056C340.6 127.784 342.008 127.328 342.544 127.592C343.2 127.952 342.592 129.304 340.656 131.536Z" fill="#37474F"/>
</svg>
