<svg width="44" height="44" viewBox="0 0 44 44" fill="none" xmlns="http://www.w3.org/2000/svg">
<path d="M12.6501 37.7667C15.4001 39.4167 18.7001 40.3334 22.0001 40.3334C32.0834 40.3334 40.3334 32.0834 40.3334 22.0001C40.3334 11.9167 32.0834 3.66675 22.0001 3.66675C11.9167 3.66675 3.66675 11.9167 3.66675 22.0001C3.66675 25.3001 4.58341 28.4167 6.05008 31.1667L4.10719 38.6394C3.91247 39.3883 4.60567 40.0652 5.34973 39.8526L12.6501 37.7667Z" stroke="white" stroke-width="1.5" stroke-miterlimit="10" stroke-linecap="round" stroke-linejoin="round"/>
<path d="M30.25 27.2222C30.25 27.5192 30.1839 27.8245 30.0434 28.1215C29.903 28.4185 29.7212 28.699 29.4816 28.963C29.0767 29.4085 28.6306 29.7303 28.1266 29.9365C27.6308 30.1428 27.0938 30.25 26.5154 30.25C25.6726 30.25 24.772 30.052 23.8219 29.6478C22.8717 29.2435 21.9215 28.699 20.9796 28.0143C20.0294 27.3213 19.1288 26.554 18.2695 25.7042C17.4185 24.8462 16.6501 23.947 15.9643 23.0065C15.2868 22.066 14.7415 21.1255 14.3449 20.1933C13.9483 19.2528 13.75 18.3535 13.75 17.4955C13.75 16.9345 13.8491 16.3983 14.0474 15.9033C14.2457 15.4 14.5597 14.938 14.9976 14.5255C15.5264 14.0058 16.1048 13.75 16.7162 13.75C16.9475 13.75 17.1789 13.7995 17.3855 13.8985C17.6003 13.9975 17.7903 14.146 17.939 14.3605L19.8559 17.0583C20.0046 17.2645 20.112 17.4542 20.1864 17.6357C20.2608 17.809 20.3021 17.9823 20.3021 18.139C20.3021 18.337 20.2442 18.535 20.1286 18.7247C20.0212 18.9145 19.8642 19.1125 19.6659 19.3105L19.0379 19.9622C18.947 20.053 18.9057 20.1603 18.9057 20.2923C18.9057 20.3583 18.914 20.416 18.9305 20.482C18.9553 20.548 18.9801 20.5975 18.9966 20.647C19.1453 20.9192 19.4015 21.274 19.765 21.703C20.1368 22.132 20.5334 22.5693 20.9631 23.0065C21.4092 23.4438 21.8389 23.848 22.2768 24.2192C22.7064 24.5822 23.0617 24.8297 23.3426 24.9782C23.384 24.9947 23.4335 25.0195 23.4914 25.0442C23.5575 25.069 23.6236 25.0772 23.6979 25.0772C23.8384 25.0772 23.9458 25.0278 24.0367 24.937L24.6646 24.3183C24.8712 24.112 25.0695 23.9552 25.2595 23.8562C25.4496 23.7407 25.6396 23.683 25.8461 23.683C26.0031 23.683 26.1684 23.716 26.3502 23.7902C26.5319 23.8645 26.722 23.9718 26.9285 24.112L29.6634 26.0507C29.8782 26.1992 30.0269 26.3725 30.1178 26.5787C30.2004 26.785 30.25 26.9912 30.25 27.2222Z" stroke="white" stroke-width="1.5" stroke-miterlimit="10"/>
</svg>
